<svg xmlns="http://www.w3.org/2000/svg" xmlns:xlink="http://www.w3.org/1999/xlink" width="100" zoomAndPan="magnify" viewBox="0 0 75 74.999997" height="100" preserveAspectRatio="xMidYMid meet" version="1.2"><defs><clipPath id="013db7357c"><path d="M 9 23.101562 L 64 23.101562 L 64 51.601562 L 9 51.601562 Z M 9 23.101562 "/></clipPath><clipPath id="2a4420666c"><path d="M 47 48 L 59 48 L 59 51.601562 L 47 51.601562 Z M 47 48 "/></clipPath><clipPath id="ca1ca5e0f4"><path d="M 7.5 23.101562 L 67 23.101562 L 67 51.601562 L 7.5 51.601562 Z M 7.5 23.101562 "/></clipPath></defs><g id="5fbb4eb4b1"><g clip-rule="nonzero" clip-path="url(#013db7357c)"><path style=" stroke:none;fill-rule:evenodd;fill:#ffffff;fill-opacity:1;" d="M 57.820312 39.496094 C 59.011719 36.660156 58.679688 36.417969 59.722656 35.667969 C 62.078125 33.984375 62.390625 29.070312 56.714844 29.914062 C 56.546875 29.941406 47.621094 25.96875 46.585938 26.203125 C 46.476562 26.230469 46.515625 26.460938 46.40625 26.488281 C 46.363281 26.167969 46.023438 23.660156 43.566406 23.601562 C 42.605469 23.578125 42.589844 24.226562 40.324219 23.710938 C 37.460938 28.660156 38.308594 29.664062 38.65625 32.714844 L 40.195312 31.015625 C 40.402344 30.917969 40.75 31.535156 41.074219 30.617188 C 41.257812 30.105469 41.179688 30.097656 41.234375 28.855469 C 41.480469 28.945312 43.296875 29.601562 44.515625 28.890625 C 45.242188 28.46875 45.308594 28.820312 53.710938 31.992188 C 55.492188 32.664062 55.328125 32.890625 56.527344 34.355469 C 55.546875 36.558594 55.015625 36.292969 54.054688 39.523438 C 50.800781 39.964844 49.8125 39.847656 45.160156 39.546875 C 44.9375 36.371094 45.441406 35.363281 42.285156 34.90625 C 38.460938 34.355469 37.578125 34.707031 37.4375 34.644531 C 36.917969 34.410156 31.980469 28.941406 23.714844 30.546875 C 18.160156 31.628906 18.960938 34.519531 14.648438 34.109375 C 13.25 36.824219 13.40625 37.277344 14.140625 39.328125 C 12.304688 39.324219 8.777344 38.996094 10.28125 42.261719 C 10.601562 42.363281 11.117188 42.523438 14.480469 42.507812 C 14.457031 43.195312 14.367188 45.835938 14.035156 51.054688 C 15.996094 51.164062 15.96875 51.136719 17.957031 51.140625 C 17.964844 46.816406 17.503906 46.839844 17.765625 42.507812 C 29.816406 41.144531 33.636719 42.738281 38.582031 42.015625 C 38.976562 44.765625 38.53125 49.070312 38.851562 50.917969 C 40.574219 51.0625 40.542969 51.039062 42.269531 51.125 C 42.359375 49.84375 42.25 49.875 42.089844 48.414062 C 41.832031 46.085938 42.191406 42.878906 42.246094 42.398438 C 44.636719 42.023438 45.300781 41.980469 52.679688 42.53125 L 52.207031 43.894531 C 50.527344 44.011719 50.539062 44.007812 50.394531 44.019531 C 50.203125 44.039062 50.015625 44.105469 49.824219 44.125 C 49.582031 45.472656 49.636719 45.804688 50.527344 47.425781 C 47.859375 49.5625 48.234375 49.917969 48.042969 51.15625 C 53.246094 50.980469 53.214844 50.730469 58.441406 50.882812 C 58.414062 48.5625 58.441406 48.300781 56.390625 47.203125 C 56.984375 45.121094 56.980469 45.132812 57.03125 44.953125 C 57.0625 44.828125 57.046875 44.691406 57.078125 44.566406 C 56.429688 44.210938 56.4375 44.238281 55.691406 44.085938 C 55.960938 43.625 56.230469 43.167969 56.5 42.707031 C 59.34375 42.453125 62.175781 43.085938 62.933594 41.359375 C 64.128906 38.644531 60.117188 39.339844 57.820312 39.496094 Z M 57.820312 39.496094 "/></g><path style=" stroke:none;fill-rule:evenodd;fill:#ffffff;fill-opacity:1;" d="M 14.105469 39.046875 C 16.292969 39.109375 16.238281 39.175781 18.394531 39.238281 C 18.5 35.359375 23.308594 35.378906 22.960938 39.679688 C 30 39.773438 29.949219 39.683594 36.964844 39.554688 C 37.140625 35.667969 41.839844 36.308594 41.640625 38.753906 C 41.535156 40.046875 42.691406 39.632812 44.839844 39.332031 C 44.929688 38.472656 44.941406 38.476562 44.9375 38.402344 C 44.886719 37.828125 44.601562 38.4375 44.011719 38.378906 C 43.097656 38.285156 40.007812 32.648438 36.316406 37.601562 C 33.816406 37.8125 33.066406 37.902344 29.957031 38.023438 C 29.742188 37.0625 27.636719 36.1875 26.628906 38.136719 C 25.871094 38.160156 25.019531 38.183594 24.066406 38.210938 C 21.605469 34 18.246094 35.273438 17.140625 37.15625 C 16.210938 38.742188 15.78125 37.910156 13.898438 37.925781 C 13.898438 38.546875 13.894531 38.5 13.898438 38.546875 C 13.925781 38.726562 14.082031 38.867188 14.105469 39.046875 Z M 14.105469 39.046875 "/><path style=" stroke:none;fill-rule:evenodd;fill:#ffffff;fill-opacity:1;" d="M 32 36.109375 C 29.289062 36.734375 31.78125 37.445312 31.960938 37.433594 C 33.949219 37.308594 32.851562 35.914062 32 36.109375 Z M 32 36.109375 "/><path style=" stroke:none;fill-rule:evenodd;fill:#ffffff;fill-opacity:1;" d="M 26.28125 34.375 C 26.398438 34.464844 33.769531 34.996094 34.292969 34.898438 C 35.402344 34.683594 31.019531 31.90625 26.320312 32.296875 C 26.28125 32.460938 25.914062 34.082031 26.28125 34.375 Z M 26.28125 34.375 "/><path style=" stroke:none;fill-rule:evenodd;fill:#ffffff;fill-opacity:1;" d="M 23.699219 34.71875 C 24.535156 34.695312 24.679688 34.167969 24.339844 32.453125 C 23.957031 32.535156 20.480469 33.289062 19.8125 34.289062 C 19.628906 34.570312 20.675781 34.804688 23.699219 34.71875 Z M 23.699219 34.71875 "/><path style=" stroke:none;fill-rule:evenodd;fill:#ffffff;fill-opacity:1;" d="M 23.578125 37.136719 C 24.355469 37.882812 25.28125 36.519531 24.503906 36.097656 C 23.71875 35.671875 23.246094 36.816406 23.578125 37.136719 Z M 23.578125 37.136719 "/><path style=" stroke:none;fill-rule:evenodd;fill:#ffffff;fill-opacity:1;" d="M 53.066406 41.925781 C 53.082031 41.902344 53.097656 41.875 53.113281 41.851562 C 52.902344 42.492188 52.683594 43.199219 52.460938 43.976562 L 53.847656 44 C 54.808594 41.316406 56.75 37.246094 58.023438 35.128906 C 59.648438 35.1875 59.976562 35.027344 60.96875 33.386719 C 57.8125 35.46875 55.449219 31.707031 59.492188 29.601562 C 58.984375 29.589844 57.109375 28.796875 55.90625 31.1875 C 49.363281 28.625 47.460938 28.074219 46.816406 27.703125 C 45.632812 27.023438 46.011719 26.699219 45.804688 25.089844 C 45.765625 25.351562 45.460938 27.300781 43.371094 27.3125 C 41.394531 27.324219 41.203125 25.796875 40.652344 24.304688 C 40.582031 25.351562 40.554688 26.269531 40.628906 27.027344 C 40.507812 26.566406 40.582031 26.3125 40.554688 26.40625 C 40.464844 26.703125 40.171875 28.984375 39.582031 29.125 C 39.339844 29.183594 38.355469 28.738281 38.253906 28.691406 C 38.210938 28.828125 37.800781 29.726562 38.101562 29.96875 C 38.277344 30.109375 40.90625 30.71875 41.152344 30.773438 C 41.226562 30.660156 41.730469 29.902344 41.726562 29.1875 C 42.402344 29.523438 43.445312 29.453125 45.019531 28.894531 C 45.402344 28.761719 53.464844 32.007812 55.929688 32.898438 C 56 33.816406 56.039062 33.785156 56.398438 34.628906 C 56.644531 35.210938 55.617188 35.335938 53.976562 39.449219 C 53.746094 39.273438 52.953125 39.953125 52.917969 40.015625 C 51.867188 41.972656 38.765625 40.734375 17.117188 41.3125 C 10.792969 41.480469 9.574219 39.757812 9.667969 41.578125 C 9.726562 42.660156 11.707031 42.484375 12.179688 42.476562 C 13.367188 42.453125 14.523438 42.433594 15.640625 42.414062 C 15.554688 42.433594 15.464844 42.453125 15.367188 42.480469 C 15.238281 42.515625 14.316406 42.757812 14.417969 43.890625 C 14.511719 44.984375 15.078125 44.410156 17.546875 44.582031 C 17.660156 43.328125 17.550781 42.625 16.988281 42.390625 C 51.398438 41.855469 51.945312 43.363281 53.066406 41.925781 Z M 53.066406 41.925781 "/><path style=" stroke:none;fill-rule:evenodd;fill:#ffffff;fill-opacity:1;" d="M 59.191406 39.585938 C 57.152344 39.585938 56.964844 40.273438 56.273438 42.3125 C 56.847656 42.453125 62.574219 43.636719 63.351562 40.90625 C 60.800781 41.164062 57.65625 41.859375 59.191406 39.585938 Z M 59.191406 39.585938 "/><path style=" stroke:none;fill-rule:evenodd;fill:#ffffff;fill-opacity:1;" d="M 40.648438 42.472656 C 38.71875 42.445312 38.945312 44.015625 38.890625 44.5 C 39.144531 44.5 40.480469 44.496094 42.074219 44.566406 C 42.25 43.410156 42.492188 42.496094 40.648438 42.472656 Z M 40.648438 42.472656 "/><g clip-rule="nonzero" clip-path="url(#2a4420666c)"><path style=" stroke:none;fill-rule:evenodd;fill:#ffffff;fill-opacity:1;" d="M 53.265625 49.566406 C 53.222656 49.394531 53.101562 49.21875 52.882812 49.066406 C 52.523438 48.816406 51.710938 49.136719 51.40625 49.578125 C 49.203125 49.464844 48.167969 48.316406 47.921875 50.523438 C 47.800781 51.601562 48.523438 51.042969 54.921875 51.113281 C 57.175781 51.136719 59.832031 51.558594 57.972656 48.671875 C 57.566406 48.808594 55.738281 49.425781 53.265625 49.566406 Z M 53.265625 49.566406 "/></g><g clip-rule="nonzero" clip-path="url(#ca1ca5e0f4)"><path style=" stroke:none;fill-rule:nonzero;fill:#165efc;fill-opacity:1;" d="M 66.359375 50.578125 L 59.195312 50.578125 C 59.195312 50.535156 59.199219 50.492188 59.199219 50.449219 C 59.199219 49.257812 58.507812 48.140625 57.292969 47.355469 L 57.292969 44.554688 C 57.292969 44.339844 57.21875 44.160156 57.066406 44.007812 C 56.917969 43.859375 56.738281 43.785156 56.523438 43.785156 L 56.378906 43.785156 L 56.777344 42.878906 L 61.976562 42.878906 C 62.21875 42.878906 62.449219 42.832031 62.667969 42.742188 C 62.890625 42.652344 63.085938 42.519531 63.253906 42.351562 C 63.421875 42.183594 63.554688 41.988281 63.644531 41.765625 C 63.734375 41.542969 63.78125 41.316406 63.78125 41.074219 L 63.78125 40.929688 C 63.78125 40.691406 63.734375 40.460938 63.644531 40.242188 C 63.550781 40.019531 63.421875 39.824219 63.253906 39.65625 C 63.085938 39.488281 62.890625 39.359375 62.667969 39.265625 C 62.449219 39.175781 62.21875 39.128906 61.980469 39.128906 L 58.445312 39.128906 L 60.046875 35.519531 C 60.421875 35.332031 60.75 35.078125 61.03125 34.765625 C 61.308594 34.449219 61.523438 34.09375 61.667969 33.699219 C 61.8125 33.304688 61.878906 32.894531 61.867188 32.472656 C 61.855469 32.054688 61.765625 31.648438 61.597656 31.261719 C 61.433594 30.875 61.203125 30.53125 60.90625 30.234375 C 60.609375 29.933594 60.265625 29.699219 59.878906 29.53125 C 59.492188 29.363281 59.089844 29.273438 58.667969 29.257812 C 58.25 29.246094 57.839844 29.308594 57.441406 29.453125 L 46.417969 25.292969 C 46.296875 24.980469 46.132812 24.691406 45.925781 24.425781 C 45.71875 24.164062 45.476562 23.933594 45.203125 23.746094 C 44.925781 23.554688 44.628906 23.40625 44.308594 23.304688 C 43.988281 23.207031 43.660156 23.15625 43.324219 23.152344 C 42.683594 23.152344 42.09375 23.320312 41.550781 23.667969 L 40 23.175781 C 39.882812 23.136719 39.769531 23.144531 39.660156 23.203125 C 39.550781 23.257812 39.480469 23.347656 39.441406 23.464844 L 37.4375 29.796875 C 37.398438 29.90625 37.40625 30.015625 37.457031 30.121094 C 37.507812 30.230469 37.589844 30.304688 37.699219 30.34375 C 37.699219 30.386719 37.707031 30.429688 37.71875 30.46875 L 38.378906 32.6875 C 38.429688 32.847656 38.53125 32.949219 38.691406 32.988281 C 38.730469 33 38.769531 33.003906 38.804688 33.003906 C 38.925781 33.003906 39.027344 32.964844 39.113281 32.878906 L 40.742188 31.308594 L 40.878906 31.351562 C 40.996094 31.390625 41.109375 31.382812 41.21875 31.324219 C 41.328125 31.269531 41.402344 31.183594 41.4375 31.066406 L 41.945312 29.46875 C 42.449219 29.699219 42.976562 29.796875 43.53125 29.761719 C 44.082031 29.726562 44.59375 29.5625 45.066406 29.273438 L 55.3125 33.136719 C 55.398438 33.640625 55.59375 34.097656 55.898438 34.511719 L 53.847656 39.128906 L 45.433594 39.128906 C 45.453125 39.066406 45.457031 39.003906 45.449219 38.9375 L 45.027344 35.699219 C 45.011719 35.574219 44.953125 35.476562 44.851562 35.398438 C 43.265625 34.21875 38.523438 34.097656 37.378906 34.085938 C 36.648438 33.324219 33.183594 30.054688 27.09375 29.929688 C 20.964844 29.804688 17.597656 32.925781 16.917969 33.632812 L 14.328125 33.886719 C 14.179688 33.898438 14.066406 33.96875 13.992188 34.09375 C 12.726562 36.148438 13.101562 38.453125 13.25 39.128906 L 11.269531 39.128906 C 11.03125 39.128906 10.800781 39.175781 10.578125 39.265625 C 10.359375 39.355469 10.164062 39.488281 9.992188 39.65625 C 9.824219 39.824219 9.695312 40.019531 9.601562 40.242188 C 9.511719 40.460938 9.464844 40.691406 9.464844 40.933594 L 9.464844 41.078125 C 9.464844 41.316406 9.511719 41.546875 9.601562 41.769531 C 9.695312 41.988281 9.824219 42.183594 9.992188 42.351562 C 10.164062 42.523438 10.359375 42.652344 10.578125 42.742188 C 10.800781 42.835938 11.03125 42.882812 11.269531 42.882812 L 13.925781 42.882812 L 13.925781 50.578125 L 8 50.578125 C 7.878906 50.578125 7.773438 50.621094 7.6875 50.707031 C 7.601562 50.796875 7.558594 50.898438 7.558594 51.023438 C 7.558594 51.144531 7.601562 51.25 7.6875 51.335938 C 7.773438 51.425781 7.878906 51.46875 8 51.46875 L 66.359375 51.46875 C 66.484375 51.46875 66.589844 51.425781 66.675781 51.335938 C 66.761719 51.25 66.804688 51.144531 66.804688 51.023438 C 66.804688 50.898438 66.761719 50.796875 66.675781 50.707031 C 66.589844 50.621094 66.484375 50.578125 66.359375 50.578125 Z M 58.308594 50.449219 C 58.308594 50.492188 58.308594 50.535156 58.304688 50.578125 L 48.523438 50.578125 C 48.519531 50.535156 48.519531 50.492188 48.519531 50.449219 C 48.519531 49.511719 49.132812 48.613281 50.203125 47.984375 C 51.09375 47.464844 52.238281 47.175781 53.414062 47.175781 C 54.589844 47.175781 55.730469 47.464844 56.625 47.984375 C 57.695312 48.613281 58.308594 49.511719 58.308594 50.449219 Z M 56.402344 46.878906 C 55.507812 46.492188 54.46875 46.285156 53.414062 46.285156 C 52.355469 46.285156 51.320312 46.492188 50.421875 46.878906 L 50.421875 44.675781 L 56.402344 44.675781 Z M 61.980469 40.019531 C 62.230469 40.019531 62.449219 40.109375 62.625 40.285156 C 62.804688 40.464844 62.894531 40.679688 62.894531 40.933594 L 62.894531 41.078125 C 62.894531 41.328125 62.804688 41.542969 62.625 41.722656 C 62.449219 41.902344 62.234375 41.992188 61.980469 41.992188 L 57.175781 41.992188 L 58.050781 40.019531 Z M 57.351562 39.390625 L 56.082031 42.253906 L 55.40625 43.785156 L 52.757812 43.785156 L 53.273438 42.617188 L 53.277344 42.609375 L 56.570312 35.195312 L 56.585938 35.207031 L 56.628906 35.238281 C 56.65625 35.257812 56.6875 35.28125 56.71875 35.300781 L 56.761719 35.332031 C 56.796875 35.355469 56.835938 35.378906 56.871094 35.398438 L 56.898438 35.414062 C 56.941406 35.441406 56.988281 35.464844 57.035156 35.492188 L 57.074219 35.511719 C 57.109375 35.527344 57.144531 35.546875 57.179688 35.5625 L 57.226562 35.582031 C 57.265625 35.597656 57.300781 35.613281 57.335938 35.628906 L 57.375 35.644531 C 57.421875 35.664062 57.472656 35.679688 57.519531 35.699219 L 57.558594 35.710938 C 57.597656 35.722656 57.636719 35.734375 57.675781 35.746094 L 57.726562 35.757812 C 57.761719 35.769531 57.800781 35.777344 57.839844 35.785156 C 57.851562 35.789062 57.867188 35.792969 57.882812 35.796875 C 57.933594 35.808594 57.984375 35.816406 58.039062 35.824219 L 58.0625 35.828125 C 58.105469 35.835938 58.152344 35.84375 58.195312 35.847656 L 58.246094 35.851562 C 58.285156 35.855469 58.320312 35.859375 58.363281 35.863281 L 58.410156 35.863281 C 58.464844 35.867188 58.519531 35.871094 58.570312 35.871094 C 58.625 35.871094 58.6875 35.871094 58.746094 35.863281 C 58.769531 35.863281 58.789062 35.859375 58.8125 35.859375 C 58.847656 35.855469 58.882812 35.855469 58.917969 35.851562 L 58.929688 35.851562 Z M 60.984375 32.5625 C 60.984375 32.882812 60.925781 33.191406 60.800781 33.488281 C 60.679688 33.78125 60.503906 34.042969 60.277344 34.269531 C 60.050781 34.496094 59.789062 34.671875 59.492188 34.796875 C 59.195312 34.917969 58.886719 34.980469 58.566406 34.980469 C 58.523438 34.980469 58.480469 34.980469 58.4375 34.976562 C 58.148438 34.960938 57.867188 34.894531 57.601562 34.777344 C 57.335938 34.660156 57.097656 34.5 56.890625 34.300781 C 56.679688 34.097656 56.515625 33.867188 56.390625 33.601562 C 56.261719 33.339844 56.1875 33.066406 56.160156 32.777344 C 56.15625 32.707031 56.152344 32.632812 56.152344 32.5625 C 56.152344 32.410156 56.167969 32.261719 56.195312 32.117188 C 56.199219 32.082031 56.207031 32.046875 56.214844 32.011719 C 56.386719 31.289062 56.800781 30.757812 57.460938 30.414062 C 57.472656 30.40625 57.488281 30.402344 57.5 30.394531 L 57.539062 30.375 C 57.566406 30.363281 57.59375 30.347656 57.621094 30.335938 C 57.925781 30.207031 58.242188 30.144531 58.570312 30.144531 C 58.890625 30.144531 59.199219 30.207031 59.496094 30.328125 C 59.789062 30.453125 60.050781 30.628906 60.277344 30.855469 C 60.503906 31.082031 60.679688 31.339844 60.800781 31.636719 C 60.921875 31.933594 60.984375 32.242188 60.984375 32.5625 Z M 39.023438 31.734375 L 38.703125 30.664062 L 39.777344 31.003906 Z M 40.722656 30.371094 L 38.414062 29.640625 L 40.15625 24.15625 L 40.777344 24.351562 C 40.742188 24.390625 40.710938 24.433594 40.679688 24.472656 C 40.675781 24.484375 40.667969 24.492188 40.660156 24.503906 C 40.632812 24.539062 40.605469 24.578125 40.582031 24.613281 L 40.550781 24.660156 C 40.527344 24.699219 40.503906 24.734375 40.480469 24.773438 L 40.460938 24.808594 C 40.429688 24.855469 40.402344 24.90625 40.378906 24.957031 C 40.371094 24.972656 40.367188 24.984375 40.359375 24.996094 C 40.339844 25.035156 40.320312 25.078125 40.304688 25.117188 C 40.296875 25.132812 40.289062 25.148438 40.28125 25.167969 C 40.261719 25.210938 40.246094 25.253906 40.230469 25.296875 C 40.226562 25.304688 40.222656 25.316406 40.21875 25.328125 C 40.199219 25.382812 40.179688 25.433594 40.164062 25.488281 C 40.15625 25.503906 40.152344 25.519531 40.148438 25.535156 C 40.136719 25.578125 40.125 25.617188 40.117188 25.660156 C 40.113281 25.675781 40.105469 25.695312 40.101562 25.710938 C 40.089844 25.761719 40.082031 25.8125 40.070312 25.863281 C 40.070312 25.871094 40.070312 25.875 40.066406 25.882812 C 40.058594 25.941406 40.050781 25.996094 40.042969 26.054688 C 40.039062 26.070312 40.039062 26.085938 40.035156 26.101562 C 40.03125 26.148438 40.027344 26.191406 40.023438 26.234375 L 40.019531 26.285156 C 40.019531 26.34375 40.015625 26.402344 40.015625 26.460938 C 40.015625 26.519531 40.019531 26.589844 40.023438 26.652344 C 40.023438 26.671875 40.023438 26.695312 40.027344 26.714844 C 40.03125 26.757812 40.035156 26.800781 40.039062 26.84375 C 40.042969 26.867188 40.046875 26.890625 40.050781 26.917969 C 40.054688 26.957031 40.058594 26.992188 40.066406 27.03125 C 40.070312 27.054688 40.074219 27.082031 40.082031 27.105469 C 40.089844 27.144531 40.097656 27.179688 40.105469 27.214844 C 40.109375 27.242188 40.117188 27.265625 40.125 27.289062 C 40.132812 27.328125 40.144531 27.363281 40.152344 27.398438 C 40.160156 27.421875 40.167969 27.449219 40.175781 27.472656 C 40.1875 27.507812 40.199219 27.542969 40.214844 27.578125 C 40.222656 27.601562 40.230469 27.625 40.242188 27.648438 C 40.253906 27.6875 40.269531 27.722656 40.285156 27.757812 C 40.296875 27.777344 40.304688 27.800781 40.3125 27.824219 C 40.332031 27.863281 40.351562 27.902344 40.371094 27.941406 C 40.378906 27.957031 40.386719 27.976562 40.394531 27.992188 C 40.425781 28.046875 40.457031 28.101562 40.488281 28.15625 C 40.496094 28.167969 40.503906 28.179688 40.507812 28.191406 C 40.535156 28.230469 40.5625 28.273438 40.589844 28.3125 C 40.601562 28.332031 40.617188 28.351562 40.628906 28.371094 C 40.652344 28.402344 40.675781 28.433594 40.699219 28.464844 C 40.714844 28.484375 40.730469 28.507812 40.75 28.527344 C 40.769531 28.554688 40.792969 28.585938 40.816406 28.613281 C 40.835938 28.632812 40.855469 28.652344 40.871094 28.671875 C 40.894531 28.699219 40.921875 28.726562 40.945312 28.75 C 40.96875 28.777344 40.984375 28.792969 41.003906 28.8125 C 41.027344 28.832031 41.054688 28.859375 41.082031 28.886719 C 41.101562 28.90625 41.125 28.925781 41.144531 28.941406 L 41.171875 28.96875 Z M 41.941406 28.441406 C 41.785156 28.332031 41.640625 28.207031 41.511719 28.0625 C 41.386719 27.917969 41.277344 27.761719 41.1875 27.59375 C 41.097656 27.421875 41.027344 27.246094 40.980469 27.058594 C 40.933594 26.871094 40.90625 26.683594 40.90625 26.492188 C 40.902344 26.300781 40.921875 26.109375 40.964844 25.921875 C 41.007812 25.734375 41.074219 25.554688 41.15625 25.382812 C 41.242188 25.210938 41.347656 25.050781 41.472656 24.902344 C 41.59375 24.757812 41.734375 24.625 41.890625 24.511719 C 42.3125 24.199219 42.792969 24.039062 43.320312 24.042969 C 43.84375 24.042969 44.316406 24.195312 44.742188 24.503906 C 45.164062 24.8125 45.457031 25.214844 45.617188 25.710938 C 45.78125 26.207031 45.78125 26.707031 45.617188 27.203125 C 45.457031 27.703125 45.164062 28.105469 44.742188 28.414062 C 44.328125 28.714844 43.859375 28.871094 43.347656 28.875 C 42.832031 28.878906 42.363281 28.734375 41.941406 28.441406 Z M 45.839844 28.609375 L 45.863281 28.578125 C 45.890625 28.542969 45.921875 28.507812 45.949219 28.46875 L 45.984375 28.421875 C 46.007812 28.390625 46.03125 28.355469 46.054688 28.320312 C 46.066406 28.308594 46.074219 28.292969 46.085938 28.277344 C 46.117188 28.230469 46.148438 28.183594 46.175781 28.132812 C 46.179688 28.125 46.183594 28.117188 46.1875 28.113281 C 46.214844 28.066406 46.238281 28.023438 46.261719 27.980469 C 46.269531 27.960938 46.277344 27.945312 46.285156 27.929688 C 46.304688 27.894531 46.320312 27.851562 46.339844 27.8125 C 46.347656 27.800781 46.355469 27.785156 46.359375 27.769531 C 46.382812 27.714844 46.40625 27.660156 46.425781 27.605469 L 46.429688 27.59375 C 46.449219 27.542969 46.46875 27.492188 46.480469 27.441406 C 46.488281 27.425781 46.492188 27.410156 46.496094 27.390625 C 46.507812 27.351562 46.519531 27.308594 46.53125 27.265625 C 46.535156 27.25 46.539062 27.234375 46.542969 27.21875 C 46.554688 27.160156 46.570312 27.105469 46.582031 27.046875 L 46.582031 27.039062 C 46.589844 26.984375 46.597656 26.929688 46.605469 26.871094 C 46.609375 26.855469 46.609375 26.835938 46.613281 26.820312 C 46.617188 26.777344 46.621094 26.734375 46.625 26.691406 L 46.625 26.636719 C 46.628906 26.578125 46.632812 26.519531 46.632812 26.460938 C 46.632812 26.417969 46.632812 26.375 46.628906 26.332031 L 46.628906 26.324219 L 56.445312 30.027344 C 56.40625 30.054688 56.371094 30.085938 56.339844 30.117188 C 56.328125 30.128906 56.316406 30.140625 56.308594 30.148438 C 56.28125 30.171875 56.257812 30.195312 56.234375 30.21875 L 56.203125 30.25 C 56.175781 30.277344 56.148438 30.304688 56.125 30.332031 L 56.105469 30.355469 C 56.074219 30.390625 56.042969 30.425781 56.015625 30.460938 L 55.992188 30.492188 C 55.96875 30.519531 55.949219 30.546875 55.929688 30.574219 L 55.898438 30.609375 C 55.878906 30.640625 55.859375 30.667969 55.839844 30.695312 C 55.832031 30.707031 55.824219 30.714844 55.820312 30.726562 C 55.792969 30.765625 55.769531 30.804688 55.742188 30.84375 C 55.738281 30.851562 55.734375 30.863281 55.730469 30.871094 C 55.710938 30.902344 55.691406 30.933594 55.671875 30.96875 C 55.664062 30.980469 55.660156 30.992188 55.652344 31.007812 C 55.636719 31.039062 55.621094 31.066406 55.605469 31.097656 C 55.597656 31.109375 55.59375 31.125 55.585938 31.136719 C 55.566406 31.179688 55.546875 31.222656 55.527344 31.265625 C 55.527344 31.269531 55.527344 31.269531 55.523438 31.273438 C 55.507812 31.316406 55.492188 31.355469 55.476562 31.394531 L 55.460938 31.4375 C 55.449219 31.46875 55.4375 31.5 55.429688 31.535156 C 55.421875 31.546875 55.417969 31.5625 55.414062 31.574219 C 55.402344 31.617188 55.390625 31.65625 55.378906 31.695312 L 55.375 31.710938 C 55.363281 31.757812 55.351562 31.804688 55.339844 31.851562 C 55.339844 31.863281 55.335938 31.875 55.332031 31.886719 C 55.328125 31.921875 55.320312 31.957031 55.3125 31.992188 C 55.3125 32.007812 55.308594 32.023438 55.304688 32.039062 C 55.300781 32.074219 55.292969 32.113281 55.289062 32.152344 C 55.289062 32.160156 55.289062 32.167969 55.285156 32.175781 Z M 51.78125 43.785156 L 50.300781 43.785156 C 50.089844 43.785156 49.90625 43.859375 49.757812 44.011719 C 49.605469 44.160156 49.53125 44.339844 49.53125 44.554688 L 49.53125 47.355469 C 48.316406 48.140625 47.625 49.257812 47.625 50.449219 C 47.625 50.492188 47.625 50.535156 47.628906 50.578125 L 42.472656 50.578125 L 42.472656 42.882812 L 52.183594 42.882812 Z M 14.15625 39.078125 C 14.148438 39.054688 13.523438 36.765625 14.640625 34.75 L 17.175781 34.503906 C 17.292969 34.492188 17.390625 34.441406 17.46875 34.351562 C 17.5 34.316406 20.632812 30.816406 26.742188 30.816406 C 26.851562 30.816406 26.960938 30.816406 27.074219 30.820312 C 33.414062 30.949219 36.8125 34.785156 36.84375 34.820312 C 36.933594 34.925781 37.046875 34.976562 37.179688 34.976562 C 38.6875 34.976562 42.761719 35.171875 44.171875 36.015625 L 44.566406 39.054688 C 44.570312 39.078125 44.574219 39.105469 44.582031 39.128906 L 42.359375 39.128906 C 42.347656 38.753906 42.269531 38.394531 42.121094 38.050781 C 41.972656 37.707031 41.761719 37.402344 41.492188 37.140625 C 41.226562 36.878906 40.917969 36.675781 40.570312 36.535156 C 40.222656 36.394531 39.863281 36.320312 39.488281 36.320312 C 39.109375 36.320312 38.75 36.394531 38.402344 36.535156 C 38.054688 36.675781 37.746094 36.878906 37.480469 37.140625 C 37.210938 37.402344 37 37.707031 36.851562 38.050781 C 36.703125 38.394531 36.625 38.753906 36.613281 39.128906 L 23.277344 39.128906 C 23.269531 38.753906 23.1875 38.394531 23.039062 38.050781 C 22.890625 37.707031 22.679688 37.402344 22.414062 37.140625 C 22.144531 36.878906 21.835938 36.675781 21.488281 36.535156 C 21.140625 36.394531 20.78125 36.320312 20.40625 36.320312 C 20.03125 36.320312 19.667969 36.394531 19.320312 36.535156 C 18.972656 36.675781 18.664062 36.878906 18.398438 37.140625 C 18.128906 37.402344 17.921875 37.707031 17.769531 38.050781 C 17.621094 38.394531 17.542969 38.753906 17.535156 39.128906 L 14.164062 39.128906 C 14.164062 39.113281 14.160156 39.09375 14.15625 39.078125 Z M 37.503906 39.128906 C 37.515625 38.871094 37.570312 38.625 37.675781 38.390625 C 37.78125 38.15625 37.925781 37.953125 38.109375 37.773438 C 38.292969 37.59375 38.507812 37.457031 38.746094 37.363281 C 38.980469 37.265625 39.230469 37.21875 39.484375 37.21875 C 39.742188 37.21875 39.988281 37.265625 40.226562 37.363281 C 40.464844 37.457031 40.675781 37.59375 40.863281 37.773438 C 41.046875 37.953125 41.191406 38.15625 41.296875 38.390625 C 41.402344 38.625 41.457031 38.871094 41.46875 39.128906 Z M 18.421875 39.128906 C 18.433594 38.871094 18.488281 38.625 18.59375 38.390625 C 18.699219 38.15625 18.84375 37.949219 19.027344 37.769531 C 19.210938 37.589844 19.421875 37.453125 19.660156 37.355469 C 19.898438 37.261719 20.148438 37.210938 20.40625 37.210938 C 20.660156 37.210938 20.910156 37.261719 21.148438 37.355469 C 21.386719 37.453125 21.597656 37.589844 21.78125 37.769531 C 21.96875 37.949219 22.113281 38.15625 22.214844 38.390625 C 22.320312 38.625 22.378906 38.871094 22.386719 39.128906 Z M 10.625 41.722656 C 10.445312 41.542969 10.355469 41.328125 10.355469 41.078125 L 10.355469 40.933594 C 10.355469 40.679688 10.445312 40.464844 10.625 40.285156 C 10.800781 40.105469 11.019531 40.019531 11.269531 40.019531 L 53.453125 40.019531 L 52.578125 41.992188 L 11.269531 41.992188 C 11.015625 41.992188 10.800781 41.902344 10.621094 41.722656 Z M 38.410156 42.882812 L 38.410156 50.578125 L 17.988281 50.578125 L 17.988281 42.882812 Z M 14.816406 50.578125 L 14.816406 42.882812 L 17.097656 42.882812 L 17.097656 50.578125 Z M 39.300781 50.578125 L 39.300781 42.882812 L 41.582031 42.882812 L 41.582031 50.578125 Z M 39.300781 50.578125 "/></g><path style=" stroke:none;fill-rule:nonzero;fill:#165efc;fill-opacity:1;" d="M 19.179688 35.230469 L 24.484375 35.230469 C 24.613281 35.230469 24.722656 35.179688 24.8125 35.085938 C 24.898438 34.988281 24.9375 34.875 24.925781 34.746094 L 24.707031 32.328125 C 24.695312 32.203125 24.636719 32.097656 24.539062 32.019531 C 24.4375 31.941406 24.324219 31.910156 24.199219 31.929688 C 21.433594 32.328125 18.996094 34.359375 18.894531 34.445312 C 18.734375 34.578125 18.691406 34.742188 18.761719 34.9375 C 18.832031 35.132812 18.972656 35.230469 19.179688 35.230469 Z M 23.863281 32.894531 L 23.996094 34.339844 L 20.566406 34.339844 C 21.386719 33.816406 22.582031 33.175781 23.863281 32.894531 Z M 23.863281 32.894531 "/><path style=" stroke:none;fill-rule:nonzero;fill:#165efc;fill-opacity:1;" d="M 26.214844 35.222656 L 35.058594 35.445312 L 35.070312 35.445312 C 35.148438 35.445312 35.21875 35.425781 35.285156 35.386719 C 35.351562 35.351562 35.40625 35.300781 35.445312 35.238281 C 35.488281 35.171875 35.511719 35.101562 35.515625 35.027344 C 35.519531 34.949219 35.503906 34.875 35.472656 34.808594 C 35.417969 34.695312 34.058594 32.023438 26.242188 31.710938 C 26.117188 31.707031 26.007812 31.746094 25.917969 31.835938 C 25.828125 31.921875 25.78125 32.027344 25.78125 32.15625 L 25.78125 34.777344 C 25.78125 34.898438 25.824219 35 25.90625 35.085938 C 25.992188 35.175781 26.09375 35.21875 26.214844 35.222656 Z M 26.671875 32.621094 C 31.023438 32.855469 33.082031 33.847656 34 34.527344 L 26.671875 34.34375 Z M 26.671875 32.621094 "/></g></svg>