<svg xmlns="http://www.w3.org/2000/svg" xmlns:xlink="http://www.w3.org/1999/xlink" width="100" zoomAndPan="magnify" viewBox="0 0 75 74.999997" height="100" preserveAspectRatio="xMidYMid meet" version="1.2"><defs><clipPath id="a706866973"><path d="M 39 7.5 L 63 7.5 L 63 27 L 39 27 Z M 39 7.5 "/></clipPath><clipPath id="c60f5cb93e"><path d="M 13.800781 25 L 47 25 L 47 67.5 L 13.800781 67.5 Z M 13.800781 25 "/></clipPath></defs><g id="05da5d98d9"><g clip-rule="nonzero" clip-path="url(#a706866973)"><path style=" stroke:none;fill-rule:nonzero;fill:#165efc;fill-opacity:1;" d="M 61.792969 7.5 L 61.792969 19.085938 C 61.792969 20.085938 60.992188 20.886719 59.992188 20.886719 C 58.992188 20.886719 58.191406 20.085938 58.191406 19.085938 L 58.191406 13.523438 C 58.191406 11.863281 56.855469 10.523438 55.191406 10.523438 C 53.527344 10.523438 52.191406 11.863281 52.191406 13.523438 L 52.191406 23.949219 C 52.191406 24.949219 51.390625 25.75 50.390625 25.75 C 49.390625 25.75 48.589844 24.949219 48.589844 23.949219 L 48.589844 17.335938 C 48.589844 15.675781 47.253906 14.335938 45.589844 14.335938 C 43.929688 14.335938 42.589844 15.675781 42.589844 17.335938 L 42.589844 19.425781 L 42.179688 19.425781 L 42.179688 19.976562 C 41.066406 20.386719 40.265625 21.460938 40.265625 22.726562 L 40.265625 24.261719 L 40.253906 24.261719 C 40.054688 24.261719 39.902344 24.425781 39.902344 24.613281 L 39.902344 24.625 C 39.902344 24.824219 40.066406 24.976562 40.253906 24.976562 L 46.140625 24.976562 C 46.339844 24.976562 46.492188 24.8125 46.492188 24.625 L 46.492188 24.613281 C 46.492188 24.414062 46.328125 24.261719 46.140625 24.261719 L 46.128906 24.261719 L 46.128906 22.726562 C 46.128906 21.460938 45.328125 20.386719 44.214844 19.976562 L 44.214844 19.425781 L 43.792969 19.425781 L 43.792969 17.335938 C 43.792969 16.335938 44.589844 15.539062 45.589844 15.539062 C 46.589844 15.539062 47.390625 16.335938 47.390625 17.335938 L 47.390625 23.949219 C 47.390625 25.613281 48.730469 26.949219 50.390625 26.949219 C 52.054688 26.949219 53.390625 25.613281 53.390625 23.949219 L 53.390625 13.523438 C 53.390625 12.523438 54.191406 11.726562 55.191406 11.726562 C 56.191406 11.726562 56.992188 12.523438 56.992188 13.523438 L 56.992188 19.085938 C 56.992188 20.75 58.328125 22.085938 59.992188 22.085938 C 61.652344 22.085938 62.992188 20.75 62.992188 19.085938 L 62.992188 7.5 Z M 61.792969 7.5 "/></g><g clip-rule="nonzero" clip-path="url(#c60f5cb93e)"><path style=" stroke:none;fill-rule:nonzero;fill:#165efc;fill-opacity:1;" d="M 46.140625 28.023438 L 44.792969 28.023438 L 44.792969 25.875 C 44.792969 25.664062 44.617188 25.488281 44.402344 25.488281 C 44.191406 25.488281 44.015625 25.664062 44.015625 25.875 L 44.015625 28.039062 L 42.390625 28.039062 L 42.390625 25.875 C 42.390625 25.664062 42.214844 25.488281 42.003906 25.488281 C 41.792969 25.488281 41.617188 25.664062 41.617188 25.875 L 41.617188 28.039062 L 40.265625 28.039062 C 40.066406 28.039062 39.917969 28.199219 39.917969 28.386719 L 39.917969 28.398438 C 39.917969 28.601562 40.078125 28.75 40.265625 28.75 L 40.277344 28.75 L 40.277344 30.289062 C 40.277344 31.550781 41.078125 32.625 42.191406 33.039062 L 42.191406 33.585938 L 42.605469 33.585938 L 42.605469 56.460938 C 42.605469 57.460938 41.804688 58.261719 40.804688 58.261719 C 39.804688 58.261719 39.003906 57.460938 39.003906 56.460938 L 39.003906 41.386719 C 39.003906 39.726562 37.667969 38.386719 36.003906 38.386719 C 34.339844 38.386719 33.003906 39.726562 33.003906 41.386719 L 33.003906 53.011719 C 33.003906 54.011719 32.203125 54.8125 31.203125 54.8125 C 30.203125 54.8125 29.402344 54.011719 29.402344 53.011719 L 29.402344 37.5625 C 29.402344 35.898438 28.066406 34.5625 26.402344 34.5625 C 24.742188 34.5625 23.402344 35.898438 23.402344 37.5625 L 23.402344 59.101562 C 23.402344 60.101562 22.605469 60.898438 21.605469 60.898438 C 20.605469 60.898438 19.804688 60.101562 19.804688 59.101562 L 19.804688 47.101562 C 19.804688 45.4375 18.464844 44.101562 16.804688 44.101562 C 15.140625 44.101562 13.804688 45.4375 13.804688 47.101562 L 13.804688 67.5 L 15.003906 67.5 L 15.003906 47.101562 C 15.003906 46.101562 15.804688 45.300781 16.804688 45.300781 C 17.804688 45.300781 18.605469 46.101562 18.605469 47.101562 L 18.605469 59.101562 C 18.605469 60.761719 19.941406 62.101562 21.605469 62.101562 C 23.265625 62.101562 24.605469 60.761719 24.605469 59.101562 L 24.605469 37.5625 C 24.605469 36.5625 25.402344 35.761719 26.402344 35.761719 C 27.402344 35.761719 28.203125 36.5625 28.203125 37.5625 L 28.203125 53.011719 C 28.203125 54.675781 29.542969 56.011719 31.203125 56.011719 C 32.867188 56.011719 34.203125 54.675781 34.203125 53.011719 L 34.203125 41.386719 C 34.203125 40.386719 35.003906 39.585938 36.003906 39.585938 C 37.003906 39.585938 37.804688 40.386719 37.804688 41.386719 L 37.804688 56.460938 C 37.804688 58.125 39.140625 59.460938 40.804688 59.460938 C 42.464844 59.460938 43.804688 58.125 43.804688 56.460938 L 43.804688 33.585938 L 44.230469 33.585938 L 44.230469 33.039062 C 45.339844 32.625 46.140625 31.550781 46.140625 30.289062 L 46.140625 28.75 L 46.152344 28.75 C 46.355469 28.75 46.503906 28.585938 46.503906 28.398438 L 46.503906 28.386719 C 46.492188 28.1875 46.328125 28.023438 46.140625 28.023438 Z M 46.140625 28.023438 "/></g></g></svg>