<svg xmlns="http://www.w3.org/2000/svg" xmlns:xlink="http://www.w3.org/1999/xlink" width="100" zoomAndPan="magnify" viewBox="0 0 75 74.999997" height="100" preserveAspectRatio="xMidYMid meet" version="1.2"><g id="d977f33f92"><path style="fill:none;stroke-width:3.61;stroke-linecap:round;stroke-linejoin:round;stroke:#6dabfb;stroke-opacity:1;stroke-miterlimit:1.5;" d="M 329.207788 467.050908 C 329.216127 470.655576 329.15198 474.25333 329.029536 477.842532 C 328.892903 481.433372 328.710624 484.998921 328.452783 488.527355 C 328.210669 492.069251 327.891454 495.558932 327.525054 499.008222 C 327.144466 502.459149 326.715154 505.854585 326.221393 509.181067 C 325.727631 512.507548 325.183608 515.763439 324.575135 518.950375 C 323.965124 522.12221 323.304851 525.223454 322.589703 528.208804 C 321.876092 531.209255 321.123334 534.107276 320.301509 536.891041 C 319.479685 539.674807 318.617174 542.341041 317.713976 544.889745 C 316.810778 547.43845 315.852703 549.87126 314.865055 552.154703 C 313.863217 554.439782 312.833343 556.590593 311.759706 558.593672 C 310.700258 560.595115 309.595508 562.433725 308.462722 564.138066 C 307.329936 565.842408 306.166038 567.382281 304.985216 568.756047 C 303.790205 570.13145 302.57981 571.355847 301.350953 572.399037 C 300.122095 573.442227 298.876315 574.319311 297.613611 575.030288 C 296.34937 575.726164 295.082394 576.254297 293.796957 576.601222 C 292.527248 576.961611 291.239077 577.140793 289.960824 577.135494 C 288.668382 577.131831 287.387395 576.958788 286.102136 576.6029 C 284.832606 576.260476 283.557264 575.720107 282.294918 575.025458 C 281.031032 574.315709 279.794331 573.450041 278.567547 572.399893 C 277.326574 571.351381 276.126974 570.145316 274.937292 568.754768 C 273.749148 567.379321 272.58665 565.832857 271.452874 564.145575 C 270.317559 562.443193 269.223618 560.583256 268.14421 558.58414 C 267.078992 556.583386 266.042496 554.441816 265.048912 552.157792 C 264.053789 549.858667 263.104656 547.447289 262.198434 544.893458 C 261.292212 542.339626 260.431979 539.673542 259.617736 536.895205 C 258.801953 534.101767 258.033698 531.211178 257.311432 528.208335 C 256.604894 525.218956 255.945883 522.132425 255.3344 518.948741 C 254.737106 515.763421 254.176226 512.512786 253.692792 509.176826 C 253.196707 505.857603 252.763877 502.454692 252.398917 499.013394 C 252.01823 495.558632 251.705414 492.065484 251.460468 488.533948 C 251.201333 485.00405 251.010068 481.435765 250.888213 477.844193 C 250.766357 474.252621 250.702798 470.669602 250.708649 467.063296 C 250.70031 463.458627 250.764457 459.860873 250.8869 456.271671 C 251.023533 452.680831 251.205812 449.115282 251.463654 445.586849 C 251.705767 442.044952 252.024983 438.555271 252.391382 435.105981 C 252.771971 431.655054 253.201282 428.259618 253.695044 424.933136 C 254.188805 421.606655 254.732828 418.350764 255.341301 415.163829 C 255.937123 411.99363 256.597395 408.892387 257.312544 405.907036 C 258.026154 402.906585 258.793103 400.006927 259.614927 397.223162 C 260.422562 394.441034 261.285073 391.774799 262.202461 389.224458 C 263.105659 386.675753 264.063733 384.242943 265.051381 381.959501 C 266.053219 379.674421 267.083093 377.52361 268.142541 375.522168 C 269.216178 373.519089 270.320928 371.680478 271.453714 369.976137 C 272.5865 368.271795 273.750398 366.731922 274.93122 365.358156 C 276.126231 363.982753 277.336627 362.758356 278.565484 361.715166 C 279.794341 360.671976 281.040121 359.794893 282.302825 359.083916 C 283.552877 358.389676 284.834042 357.859906 286.103751 357.499517 C 287.389188 357.152592 288.677359 356.97341 289.955612 356.97871 C 291.248055 356.982372 292.529041 357.155415 293.80011 357.51294 C 295.083831 357.853727 296.359172 358.394096 297.621519 359.088745 C 298.871214 359.800132 300.122105 360.664162 301.348889 361.71431 C 302.575673 362.764459 303.789462 363.968888 304.979144 365.359435 C 306.167288 366.734882 307.329787 368.281346 308.463563 369.968628 C 309.598877 371.67101 310.692818 373.530947 311.772226 375.530063 C 312.837444 377.530817 313.859751 379.674024 314.853335 381.958048 C 315.848457 384.257173 316.811781 386.666914 317.718002 389.220745 C 318.624224 391.774577 319.484457 394.440661 320.298701 397.218998 C 321.114483 400.012436 321.882738 402.903025 322.589276 405.892404 C 323.311543 408.895247 323.970553 411.981778 324.582037 415.165462 C 325.179331 418.350782 325.72602 421.603054 326.223644 424.937377 C 326.71973 428.2566 327.151021 431.64441 327.517519 435.100809 C 327.898206 438.555571 328.211023 442.048719 328.455968 445.580255 C 328.700914 449.11179 328.892179 452.680076 329.028224 456.27001 C 329.150079 459.861582 329.213638 463.444602 329.207788 467.050908 Z M 329.207788 467.050908 " transform="matrix(0.272093,0.0294993,-0.0277211,0.255676,-27.936434,-90.633128)"/><path style="fill:none;stroke-width:4.02;stroke-linecap:round;stroke-linejoin:round;stroke:#6dabfb;stroke-opacity:1;stroke-miterlimit:1.5;" d="M 329.204936 467.058695 C 329.211065 470.660639 329.141837 474.254166 329.014368 477.844821 C 328.886899 481.435477 328.714979 484.99573 328.457483 488.528254 C 328.217101 492.066324 327.898038 495.5629 327.524304 499.009762 C 327.150569 502.456624 326.722163 505.853771 326.228865 509.181893 C 325.735567 512.510015 325.177378 515.769112 324.578307 518.950963 C 323.96212 522.127268 323.311947 525.212561 322.603777 528.215064 C 321.878492 531.212021 321.126115 534.1042 320.305521 536.894278 C 319.484927 539.684355 318.627021 542.350343 317.707793 544.900463 C 316.812575 547.442363 315.856035 549.868395 314.851962 552.151027 C 313.865005 554.439204 312.830515 556.583982 311.765609 558.590906 C 310.700702 560.597829 309.595158 562.447587 308.466092 564.145725 C 307.319911 565.838317 306.167323 567.384835 304.980993 568.760422 C 303.794663 570.136009 302.58481 571.359976 301.348111 572.399246 C 300.128526 573.444061 298.875199 574.317946 297.605246 575.026444 C 296.359302 575.726723 295.079616 576.25607 293.807314 576.611812 C 292.517896 576.962008 291.235861 577.138599 289.96121 577.141583 C 288.669443 577.139022 287.385059 576.962856 286.108059 576.613084 C 284.837954 576.249546 283.568337 575.726168 282.288988 575.023639 C 281.033649 574.312889 279.795914 573.447846 278.572457 572.395431 C 277.32499 571.351236 276.119137 570.144527 274.944677 568.755993 C 273.746207 567.375678 272.589352 565.832849 271.450099 564.135726 C 270.310847 562.438602 269.206314 560.592731 268.143394 558.584345 C 267.080475 556.575959 266.04538 554.43259 265.062119 552.146018 C 264.054848 549.867666 263.099411 547.446112 262.206029 544.900666 C 261.295531 542.349674 260.423078 539.683011 259.61268 536.892456 C 258.802281 534.101902 258.040148 531.214987 257.316058 528.212401 C 256.609085 525.215361 255.943481 522.135726 255.333036 518.945966 C 254.732812 515.775517 254.180853 512.508707 253.6976 509.184161 C 253.197231 505.854069 252.765567 502.46624 252.385494 499.015128 C 252.022536 495.569562 251.704274 492.074478 251.447822 488.535423 C 251.208485 485.001914 251.024064 481.438198 250.894558 477.844278 C 250.758158 474.264122 250.693788 470.659307 250.704775 467.062909 C 250.705542 463.447199 250.774769 459.853672 250.902238 456.263016 C 251.022812 452.686127 251.201627 449.112108 251.459124 445.579584 C 251.699505 442.041513 252.018568 438.544938 252.392303 435.098076 C 252.766037 431.651214 253.194443 428.254066 253.687741 424.925944 C 254.181039 421.597822 254.732334 418.352492 255.331405 415.170641 C 255.947591 411.994336 256.604659 408.895276 257.312829 405.892774 C 258.038114 402.895817 258.790491 400.003637 259.60419 397.227326 C 260.424784 394.437249 261.28269 391.77126 262.201919 389.22114 C 263.104032 386.665474 264.053677 384.253209 265.057749 381.970577 C 266.044707 379.682399 267.079196 377.537622 268.144103 375.530698 C 269.209009 373.523775 270.314553 371.674017 271.443619 369.975879 C 272.5898 368.283286 273.742388 366.736768 274.928718 365.361181 C 276.121944 363.971829 277.324901 362.761628 278.561601 361.722358 C 279.78808 360.663776 281.041407 359.789892 282.304466 359.095159 C 283.557304 358.381115 284.830095 357.865533 286.102398 357.509791 C 287.391816 357.159595 288.67385 356.983005 289.948502 356.98002 C 291.240269 356.982581 292.524652 357.158748 293.801652 357.50852 C 295.078653 357.858292 296.34827 358.38167 297.620724 359.097965 C 298.882957 359.794948 300.113797 360.673758 301.344149 361.712407 C 302.584721 362.770367 303.790574 363.977076 304.971929 365.351845 C 306.170399 366.73216 307.327255 368.274989 308.466507 369.972112 C 309.605759 371.669235 310.703398 373.528873 311.773212 375.523493 C 312.836131 377.531879 313.871226 379.675248 314.854487 381.96182 C 315.854864 384.253937 316.810301 386.675492 317.703683 389.220938 C 318.61418 391.77193 319.486633 394.438593 320.303927 397.215382 C 321.114325 400.005936 321.893574 402.898396 322.600548 405.895437 C 323.307522 408.892477 323.966231 411.985878 324.58357 415.161872 C 325.176899 418.346087 325.735753 421.59913 326.219007 424.923677 C 326.712481 428.267534 327.144144 431.655363 327.524217 435.106476 C 327.887175 438.552042 328.205438 442.047125 328.46189 445.586181 C 328.701226 449.11969 328.885648 452.683405 329.022048 456.26356 C 329.151554 459.857481 329.222818 463.448531 329.204936 467.058695 Z M 329.204936 467.058695 " transform="matrix(0.079107,0.196362,-0.244143,0.0983539,129.467393,-64.818797)"/><path style="fill:none;stroke-width:3.67;stroke-linecap:round;stroke-linejoin:round;stroke:#6dabfb;stroke-opacity:1;stroke-miterlimit:1.5;" d="M 329.211379 467.063731 C 329.204766 470.662662 329.154105 474.261524 329.02638 477.850099 C 328.898655 481.438674 328.715927 484.996664 328.456172 488.524033 C 328.20741 492.061586 327.892651 495.55837 327.522927 499.004236 C 327.142172 502.46025 326.717483 505.855197 326.226834 509.189042 C 325.725191 512.512703 325.179614 515.775296 324.579146 518.946305 C 323.967646 522.127463 323.301256 525.217037 322.601999 528.215061 C 321.880718 531.21305 321.115576 534.109306 320.29558 536.893644 C 319.475585 539.677983 318.622759 542.350438 317.715117 544.890643 C 316.807438 547.451182 315.855973 549.86932 314.860722 552.145059 C 313.865433 554.441131 312.83739 556.584655 311.76556 558.585778 C 310.693731 560.586902 309.600139 562.445661 308.462799 564.141687 C 307.325459 565.837714 306.166394 567.371042 304.985567 568.762005 C 303.793747 570.142784 302.591232 571.350717 301.34497 572.395916 C 300.12073 573.441151 298.874766 574.323687 297.607115 575.023192 C 296.361487 575.722732 295.083141 576.24939 293.805095 576.613384 C 292.527085 576.957046 291.249375 577.138044 289.949977 577.136011 C 288.672603 577.134012 287.384534 576.959167 286.107795 576.611508 C 284.820063 576.253666 283.565684 575.723045 282.300611 575.019577 C 281.035537 574.316109 279.792787 573.450013 278.561403 572.39077 C 277.329982 571.35186 276.12092 570.129988 274.934144 568.76582 C 273.747405 567.38132 272.582989 565.83419 271.451889 564.134614 C 270.320789 562.435039 269.211974 560.593167 268.147505 558.588701 C 267.083036 556.584235 266.040853 554.437473 265.053971 552.158632 C 264.056097 549.869609 263.113524 547.448507 262.20423 544.895292 C 261.294936 542.342078 260.418883 539.677084 259.609125 536.890196 C 258.799367 534.103307 258.033844 531.214823 257.323585 528.214594 C 256.602296 525.224514 255.947264 522.132873 255.336467 518.939636 C 254.725632 515.766732 254.181018 512.5126 253.691594 509.187388 C 253.191177 505.851993 252.767936 502.465886 252.399885 499.0087 C 252.020804 495.561663 251.707868 492.074063 251.450085 488.535717 C 251.214326 484.997406 251.022651 481.438831 250.886092 477.849842 C 250.771556 474.260888 250.712099 470.661854 250.707719 467.052739 C 250.703339 463.443624 250.764993 459.854946 250.892718 456.266371 C 251.020443 452.677796 251.203172 449.119806 251.451934 445.582253 C 251.700696 442.0447 252.015454 438.547916 252.385178 435.102051 C 252.765933 431.646036 253.201616 428.261273 253.692265 424.927428 C 254.182914 421.593583 254.728454 418.351323 255.339953 415.170165 C 255.940459 411.978823 256.595818 408.899398 257.3171 405.901409 C 258.038381 402.90342 258.803523 400.007164 259.612525 397.212642 C 260.42149 394.438453 261.296339 391.766032 262.192988 389.215643 C 263.11166 386.665288 264.063126 384.24715 265.047383 381.961227 C 266.053665 379.675339 267.081708 377.531815 268.153538 375.530691 C 269.214374 373.519384 270.318959 371.670809 271.456299 369.974783 C 272.582646 368.268573 273.741711 366.735244 274.933531 365.354465 C 276.125351 363.973685 277.327866 362.765753 278.563136 361.71037 C 279.787375 360.665136 281.044332 359.792783 282.28996 359.093243 C 283.557611 358.393738 284.824964 357.856896 286.114004 357.503086 C 287.392013 357.159424 288.669724 356.978426 289.958128 356.970275 C 291.246496 356.982458 292.523571 357.14712 293.811303 357.504962 C 295.077012 357.86277 296.353414 358.393425 297.618488 359.096893 C 298.872568 359.790177 300.126312 360.666457 301.346702 361.715516 C 302.589117 362.76461 303.787185 363.976298 304.984954 365.35065 C 306.171693 366.73515 307.325116 368.272097 308.456216 369.971672 C 309.587316 371.671247 310.696094 373.533452 311.771593 375.527769 C 312.836062 377.532235 313.867253 379.668813 314.865127 381.957837 C 315.851971 384.257011 316.805574 386.667963 317.714868 389.221178 C 318.624162 391.774392 319.489222 394.429202 320.29898 397.216091 C 321.119731 400.013163 321.885255 402.901647 322.595513 405.901876 C 323.305772 408.902105 323.971834 411.983597 324.571638 415.16665 C 325.182473 418.339554 325.73808 421.60387 326.227504 424.929082 C 326.716928 428.254293 327.151162 431.650584 327.519213 435.10777 C 327.898295 438.554807 328.21123 442.042407 328.457983 445.590902 C 328.704773 449.119064 328.896447 452.677639 329.033006 456.266628 C 329.147542 459.855582 329.207 463.454616 329.211379 467.063731 Z M 329.211379 467.063731 " transform="matrix(0.177065,-0.177666,0.19244,0.191788,-104.907705,-0.806277)"/><path style="fill-rule:nonzero;fill:#b3deaa;fill-opacity:1;stroke-width:3.35;stroke-linecap:round;stroke-linejoin:round;stroke:#6dabfb;stroke-opacity:1;stroke-miterlimit:1.5;" d="M 358.548659 470.422026 C 358.548659 471.876603 358.414112 473.317327 358.131563 474.744198 C 357.862469 476.184921 357.458828 477.570233 356.934095 478.913985 C 356.395907 480.257737 355.736626 481.546076 354.969708 482.751297 C 354.189336 483.970371 353.31478 485.092473 352.319132 486.117603 C 351.336939 487.156587 350.260563 488.070892 349.103459 488.888226 C 347.946354 489.691706 346.721976 490.384362 345.430325 490.938487 C 344.152129 491.492611 342.820113 491.922058 341.447734 492.19912 C 340.088809 492.490035 338.702974 492.628566 337.303686 492.628566 C 335.917851 492.628566 334.532017 492.490035 333.159637 492.19912 C 331.800713 491.922058 330.468697 491.492611 329.177046 490.938487 C 327.898849 490.384362 326.674471 489.691706 325.503912 488.888226 C 324.346808 488.070892 323.270432 487.156587 322.288239 486.117603 C 321.306046 485.092473 320.418035 483.970371 319.651117 482.751297 C 318.870745 481.546076 318.224919 480.257737 317.686731 478.913985 C 317.148543 477.570233 316.744902 476.184921 316.475808 474.744198 C 316.206714 473.317327 316.072167 471.876603 316.072167 470.422026 C 316.072167 468.953596 316.206714 467.512873 316.475808 466.086002 C 316.744902 464.659131 317.148543 463.259967 317.686731 461.916215 C 318.224919 460.572463 318.870745 459.284124 319.651117 458.078903 C 320.418035 456.859829 321.306046 455.737727 322.288239 454.712596 C 323.270432 453.673613 324.346808 452.759307 325.503912 451.955827 C 326.674471 451.138493 327.898849 450.459691 329.177046 449.891713 C 330.468697 449.337589 331.800713 448.921995 333.159637 448.63108 C 334.532017 448.354018 335.917851 448.201633 337.303686 448.201633 C 338.702974 448.201633 340.088809 448.354018 341.447734 448.63108 C 342.820113 448.921995 344.152129 449.337589 345.430325 449.891713 C 346.721976 450.459691 347.946354 451.138493 349.103459 451.955827 C 350.260563 452.759307 351.336939 453.673613 352.319132 454.712596 C 353.31478 455.737727 354.189336 456.859829 354.969708 458.078903 C 355.736626 459.284124 356.395907 460.572463 356.934095 461.916215 C 357.458828 463.259967 357.862469 464.659131 358.131563 466.086002 C 358.414112 467.512873 358.548659 468.953596 358.548659 470.422026 Z M 358.548659 470.422026 " transform="matrix(0.290326,0,0,0.281976,-60.342102,-94.163504)"/><path style="fill-rule:nonzero;fill:#ff3131;fill-opacity:1;stroke-width:4.17;stroke-linecap:round;stroke-linejoin:round;stroke:#6dabfb;stroke-opacity:1;stroke-miterlimit:1.5;" d="M 449.995259 458.460895 C 449.995259 460.648586 449.588247 462.768441 448.757264 464.786543 C 447.94324 466.804645 446.77308 468.585323 445.263743 470.128578 C 443.754406 471.688791 442.007645 472.87591 440.023461 473.706894 C 438.039276 474.554836 435.987256 474.961848 433.850442 474.961848 C 431.696669 474.961848 429.64465 474.554836 427.660465 473.706894 C 425.693239 472.87591 423.946479 471.688791 422.420183 470.128578 C 420.910846 468.585323 419.740686 466.804645 418.926662 464.786543 C 418.112637 462.768441 417.705625 460.648586 417.705625 458.460895 C 417.705625 456.273204 418.112637 454.170308 418.926662 452.152206 C 419.740686 450.134104 420.910846 448.353425 422.420183 446.793212 C 423.946479 445.249957 425.693239 444.062839 427.660465 443.214896 C 429.64465 442.383913 431.696669 441.959942 433.850442 441.959942 C 435.987256 441.959942 438.039276 442.383913 440.023461 443.214896 C 442.007645 444.062839 443.754406 445.249957 445.263743 446.793212 C 446.77308 448.353425 447.94324 450.134104 448.757264 452.152206 C 449.588247 454.170308 449.995259 456.273204 449.995259 458.460895 Z M 449.995259 458.460895 " transform="matrix(0.230337,0,0,0.230337,-40.275593,-69.581011)"/><path style="fill-rule:nonzero;fill:#165efc;fill-opacity:1;stroke-width:4.17;stroke-linecap:round;stroke-linejoin:round;stroke:#6dabfb;stroke-opacity:1;stroke-miterlimit:1.5;" d="M 449.993934 458.467242 C 449.993934 460.654932 449.586922 462.757829 448.755939 464.775931 C 447.941915 466.810992 446.771754 468.59167 445.262418 470.134925 C 443.753081 471.678179 442.00632 472.882257 440.022136 473.71324 C 438.05491 474.544223 435.985931 474.968194 433.849117 474.968194 C 431.712303 474.968194 429.643325 474.544223 427.65914 473.71324 C 425.691914 472.882257 423.945154 471.678179 422.435817 470.134925 C 420.909521 468.59167 419.739361 466.810992 418.925337 464.775931 C 418.111312 462.757829 417.7043 460.654932 417.7043 458.467242 C 417.7043 456.279551 418.111312 454.176655 418.925337 452.158553 C 419.739361 450.123492 420.909521 448.342813 422.435817 446.799559 C 423.945154 445.256304 425.691914 444.052226 427.65914 443.221243 C 429.643325 442.39026 431.712303 441.966289 433.849117 441.966289 C 435.985931 441.966289 438.05491 442.39026 440.022136 443.221243 C 442.00632 444.052226 443.753081 445.256304 445.262418 446.799559 C 446.771754 448.342813 447.941915 450.123492 448.755939 452.158553 C 449.586922 454.176655 449.993934 456.279551 449.993934 458.467242 Z M 449.993934 458.467242 " transform="matrix(0.230337,0,0,0.230337,-72.228413,-47.500442)"/><path style="fill-rule:nonzero;fill:#ff3131;fill-opacity:1;stroke-width:4.17;stroke-linecap:round;stroke-linejoin:round;stroke:#6dabfb;stroke-opacity:1;stroke-miterlimit:1.5;" d="M 449.995944 458.467137 C 449.995944 460.654828 449.588931 462.757724 448.757948 464.775826 C 447.943924 466.810887 446.773764 468.591566 445.264427 470.13482 C 443.75509 471.678075 442.008329 472.882152 440.024145 473.713136 C 438.03996 474.544119 435.98794 474.96809 433.851126 474.96809 C 431.697354 474.96809 429.645334 474.544119 427.661149 473.713136 C 425.693924 472.882152 423.947163 471.678075 422.420867 470.13482 C 420.91153 468.591566 419.74137 466.810887 418.927346 464.775826 C 418.113321 462.757724 417.706309 460.654828 417.706309 458.467137 C 417.706309 456.279447 418.113321 454.17655 418.927346 452.158448 C 419.74137 450.123387 420.91153 448.342709 422.420867 446.799454 C 423.947163 445.2562 425.693924 444.052122 427.661149 443.221139 C 429.645334 442.390155 431.697354 441.966184 433.851126 441.966184 C 435.98794 441.966184 438.03996 442.390155 440.024145 443.221139 C 442.008329 444.052122 443.75509 445.2562 445.264427 446.799454 C 446.773764 448.342709 447.943924 450.123387 448.757948 452.158448 C 449.588931 454.17655 449.995944 456.279447 449.995944 458.467137 Z M 449.995944 458.467137 " transform="matrix(0.230337,0,0,0.230337,-82.197625,-75.871512)"/></g></svg>