<svg xmlns="http://www.w3.org/2000/svg" xmlns:xlink="http://www.w3.org/1999/xlink" width="100" zoomAndPan="magnify" viewBox="0 0 75 74.999997" height="100" preserveAspectRatio="xMidYMid meet" version="1.2"><defs><clipPath id="bb3fe726e2"><path d="M 19 7.5 L 22 7.5 L 22 17 L 19 17 Z M 19 7.5 "/></clipPath><clipPath id="5d59bb9600"><path d="M 26 7.5 L 30 7.5 L 30 17 L 26 17 Z M 26 7.5 "/></clipPath><clipPath id="8ed8824030"><path d="M 7.5 7.5 L 67.5 7.5 L 67.5 67.5 L 7.5 67.5 Z M 7.5 7.5 "/></clipPath></defs><g id="06f978fe8c"><path style=" stroke:none;fill-rule:nonzero;fill:#165efc;fill-opacity:1;" d="M 44.523438 24.859375 L 46.21875 24.859375 L 46.21875 25.566406 L 44.523438 25.566406 Z M 44.523438 24.859375 "/><path style=" stroke:none;fill-rule:nonzero;fill:#165efc;fill-opacity:1;" d="M 46.964844 29.695312 L 49.058594 29.695312 L 49.058594 30.402344 L 46.964844 30.402344 Z M 46.964844 29.695312 "/><path style=" stroke:none;fill-rule:nonzero;fill:#165efc;fill-opacity:1;" d="M 57.542969 24.859375 L 60.003906 24.859375 L 60.003906 25.566406 L 57.542969 25.566406 Z M 57.542969 24.859375 "/><path style=" stroke:none;fill-rule:nonzero;fill:#165efc;fill-opacity:1;" d="M 55.734375 31.316406 L 57.828125 31.316406 L 57.828125 32.023438 L 55.734375 32.023438 Z M 55.734375 31.316406 "/><path style=" stroke:none;fill-rule:nonzero;fill:#165efc;fill-opacity:1;" d="M 24.726562 52.457031 L 12.878906 52.457031 L 12.878906 58.808594 L 24.726562 58.808594 Z M 24.011719 58.101562 L 13.589844 58.101562 L 13.589844 53.171875 L 24.011719 53.171875 Z M 24.011719 58.101562 "/><path style=" stroke:none;fill-rule:nonzero;fill:#165efc;fill-opacity:1;" d="M 62.121094 52.457031 L 50.273438 52.457031 L 50.273438 58.808594 L 62.121094 58.808594 Z M 61.410156 58.101562 L 50.988281 58.101562 L 50.988281 53.171875 L 61.410156 53.171875 Z M 61.410156 58.101562 "/><path style=" stroke:none;fill-rule:nonzero;fill:#165efc;fill-opacity:1;" d="M 24.726562 45.078125 L 12.878906 45.078125 L 12.878906 49.335938 L 24.726562 49.335938 Z M 24.011719 48.628906 L 13.589844 48.628906 L 13.589844 45.792969 L 24.011719 45.792969 Z M 24.011719 48.628906 "/><path style=" stroke:none;fill-rule:nonzero;fill:#165efc;fill-opacity:1;" d="M 62.121094 45.078125 L 50.273438 45.078125 L 50.273438 49.335938 L 62.121094 49.335938 Z M 61.410156 48.628906 L 50.988281 48.628906 L 50.988281 45.792969 L 61.410156 45.792969 Z M 61.410156 48.628906 "/><path style=" stroke:none;fill-rule:nonzero;fill:#165efc;fill-opacity:1;" d="M 12.878906 41.523438 L 24.726562 41.523438 L 24.726562 42.230469 L 12.878906 42.230469 Z M 12.878906 41.523438 "/><path style=" stroke:none;fill-rule:nonzero;fill:#165efc;fill-opacity:1;" d="M 50.273438 41.523438 L 62.121094 41.523438 L 62.121094 42.230469 L 50.273438 42.230469 Z M 50.273438 41.523438 "/><path style=" stroke:none;fill-rule:nonzero;fill:#165efc;fill-opacity:1;" d="M 35.097656 35.183594 L 35.945312 35.121094 L 36.800781 35.054688 L 38.488281 34.921875 L 37.144531 37.382812 L 36.953125 37.742188 L 36.761719 38.097656 L 36.410156 38.738281 L 36.328125 38.097656 L 36.292969 37.742188 L 36.261719 37.53125 L 35.5625 37.609375 L 35.574219 37.742188 L 35.613281 38.097656 L 35.746094 39.160156 L 35.78125 39.511719 L 35.820312 39.820312 L 35.796875 39.867188 L 35.707031 40.027344 L 35.855469 40.109375 L 35.894531 40.402344 L 36.171875 40.285156 L 36.328125 40.367188 L 36.4375 40.167969 L 37.117188 39.867188 L 37.925781 39.511719 L 38.546875 39.238281 L 38.511719 39.160156 L 38.257812 38.589844 L 37 39.144531 L 37.566406 38.097656 L 37.757812 37.742188 L 37.957031 37.382812 L 38.515625 36.359375 L 38.929688 35.589844 L 39.351562 34.824219 L 39.742188 34.109375 L 39.402344 34.132812 L 39.046875 34.160156 L 38.6875 34.191406 L 38.289062 34.21875 L 37.433594 34.285156 L 36.585938 34.351562 L 36.292969 34.382812 L 37.980469 31.160156 L 37.351562 30.828125 L 35.058594 35.183594 Z M 35.097656 35.183594 "/><g clip-rule="nonzero" clip-path="url(#bb3fe726e2)"><path style=" stroke:none;fill-rule:nonzero;fill:#165efc;fill-opacity:1;" d="M 20.496094 16.019531 L 21.085938 15.621094 L 20.199219 14.332031 C 19.683594 13.582031 19.855469 12.5625 20.582031 12.011719 C 21.542969 11.289062 21.820312 9.945312 21.230469 8.902344 L 20.4375 7.484375 L 19.816406 7.832031 L 20.613281 9.246094 C 21.027344 9.984375 20.835938 10.925781 20.15625 11.445312 C 19.132812 12.21875 18.886719 13.664062 19.617188 14.730469 Z M 20.496094 16.019531 "/></g><g clip-rule="nonzero" clip-path="url(#5d59bb9600)"><path style=" stroke:none;fill-rule:nonzero;fill:#165efc;fill-opacity:1;" d="M 28.191406 16.019531 L 28.78125 15.621094 L 27.894531 14.332031 C 27.378906 13.582031 27.550781 12.5625 28.277344 12.011719 C 29.238281 11.289062 29.515625 9.945312 28.925781 8.902344 L 28.132812 7.484375 L 27.511719 7.832031 L 28.308594 9.246094 C 28.722656 9.984375 28.53125 10.925781 27.851562 11.445312 C 26.828125 12.21875 26.582031 13.664062 27.3125 14.730469 Z M 28.191406 16.019531 "/></g><g clip-rule="nonzero" clip-path="url(#8ed8824030)"><path style=" stroke:none;fill-rule:nonzero;fill:#165efc;fill-opacity:1;" d="M 65.820312 63.246094 L 65.820312 39.867188 L 65.914062 39.867188 L 65.820312 39.46875 L 65.820312 37.382812 L 65.316406 37.382812 L 63.917969 31.597656 L 61.882812 32.730469 L 60.667969 17.511719 L 60.246094 12.164062 L 59.886719 7.617188 L 52.382812 7.617188 L 50.382812 32.703125 L 50.296875 32.746094 L 49.078125 17.503906 L 48.660156 12.160156 L 48.296875 7.609375 L 40.800781 7.609375 L 39.246094 27.160156 C 38.8125 26.664062 38.183594 26.371094 37.5 26.371094 C 36.660156 26.371094 35.90625 26.804688 35.488281 27.535156 L 31.335938 34.722656 L 30.886719 32.847656 L 30.886719 19.011719 L 25.800781 19.011719 L 25.800781 34.257812 L 23.304688 35.648438 L 23.304688 19.011719 L 18.21875 19.011719 L 18.21875 32.324219 L 8.929688 37.492188 L 9.179688 37.722656 L 9.179688 63.246094 L 7.558594 63.246094 L 7.558594 67.507812 L 15.371094 67.507812 L 15.371094 66.800781 L 8.273438 66.800781 L 8.273438 63.960938 L 23.082031 63.960938 L 23.511719 63.609375 L 23.9375 63.253906 L 24.503906 62.78125 L 27.71875 62.78125 L 27.71875 66.800781 L 19.390625 66.800781 L 19.390625 67.507812 L 67.441406 67.507812 L 67.441406 63.246094 Z M 66.734375 66.800781 L 47.289062 66.800781 L 47.289062 62.78125 L 50.511719 62.78125 L 51.078125 63.253906 L 51.503906 63.609375 L 51.933594 63.960938 L 66.742188 63.960938 L 66.742188 66.800781 Z M 37.855469 66.800781 L 37.855469 46.757812 C 42.695312 46.941406 46.574219 50.9375 46.574219 55.824219 L 46.574219 66.792969 L 37.855469 66.792969 Z M 28.425781 63.960938 L 28.425781 55.832031 C 28.425781 50.945312 32.3125 46.949219 37.144531 46.765625 L 37.144531 66.800781 L 28.425781 66.800781 Z M 9.886719 63.246094 L 9.886719 38.097656 L 29.398438 38.097656 L 28.789062 39.160156 L 28.582031 39.511719 L 28.457031 39.710938 C 28.425781 39.761719 28.402344 39.816406 28.375 39.875 C 28.042969 40.566406 28.066406 41.363281 28.457031 42.039062 C 28.875 42.769531 29.628906 43.207031 30.46875 43.207031 L 44.53125 43.207031 C 45.371094 43.207031 46.125 42.769531 46.542969 42.039062 C 46.933594 41.363281 46.957031 40.566406 46.625 39.875 C 46.601562 39.820312 46.574219 39.769531 46.542969 39.71875 L 46.433594 39.519531 L 46.226562 39.164062 L 45.617188 38.105469 L 65.125 38.105469 L 65.125 63.253906 L 52.183594 63.253906 L 50.761719 62.066406 L 47.289062 62.066406 L 47.289062 55.824219 C 47.289062 50.546875 43.085938 46.234375 37.859375 46.050781 L 37.859375 46.042969 L 37.144531 46.042969 L 37.144531 46.050781 C 31.914062 46.234375 27.710938 50.554688 27.710938 55.824219 L 27.710938 62.066406 L 24.238281 62.066406 L 22.816406 63.253906 L 9.886719 63.253906 Z M 18.21875 33.144531 L 18.570312 32.945312 L 18.925781 32.746094 L 19.058594 32.671875 L 20.191406 37.375 L 20.171875 37.382812 L 10.589844 37.382812 Z M 18.925781 19.722656 L 22.589844 19.722656 L 22.589844 36.039062 L 20.839844 37.011719 L 19.53125 31.597656 L 18.925781 31.933594 Z M 38.902344 27.886719 L 39.160156 28.332031 L 39.476562 28.875 L 39.621094 29.125 L 39.703125 29.265625 L 39.785156 29.414062 L 41.171875 31.808594 L 41.914062 33.105469 L 43.800781 36.371094 L 43.980469 36.683594 L 44.15625 36.992188 L 44.382812 37.398438 L 44.589844 37.75 L 44.796875 38.105469 L 45.410156 39.164062 L 45.609375 39.511719 L 45.816406 39.867188 L 45.925781 40.066406 C 46.21875 40.574219 46.21875 41.171875 45.925781 41.679688 C 45.628906 42.1875 45.113281 42.488281 44.523438 42.488281 L 30.46875 42.488281 C 29.886719 42.488281 29.363281 42.1875 29.066406 41.6875 C 28.773438 41.179688 28.773438 40.582031 29.066406 40.074219 L 29.179688 39.875 L 29.390625 39.511719 L 29.597656 39.160156 L 30.210938 38.097656 L 30.417969 37.742188 L 30.535156 37.542969 L 30.621094 37.390625 L 30.886719 36.925781 L 31.066406 36.617188 L 31.324219 36.171875 L 31.582031 35.730469 L 36.105469 27.894531 C 36.402344 27.386719 36.917969 27.09375 37.507812 27.09375 C 38.082031 27.078125 38.605469 27.378906 38.902344 27.886719 Z M 41.457031 8.324219 L 47.648438 8.324219 L 47.953125 12.160156 L 41.148438 12.160156 Z M 48.320312 16.792969 L 40.789062 16.792969 L 41.097656 12.875 L 48.011719 12.875 Z M 40.433594 21.1875 L 43.550781 21.1875 L 43.550781 20.472656 L 40.492188 20.472656 L 40.726562 17.503906 L 48.378906 17.503906 L 49.625 33.121094 L 44.414062 36.027344 L 40.515625 29.273438 L 41.15625 29.273438 L 41.15625 28.566406 L 40.109375 28.566406 L 39.878906 28.175781 Z M 50.363281 33.527344 L 50.695312 33.34375 L 51.0625 33.136719 L 51.902344 32.671875 L 53.039062 37.390625 L 45.203125 37.390625 L 44.769531 36.644531 L 49.675781 33.910156 L 50.015625 33.71875 L 50.3125 33.554688 Z M 51.519531 27.417969 L 51.519531 27.984375 L 54.277344 27.984375 L 54.277344 27.277344 L 51.535156 27.277344 L 51.894531 22.699219 L 54.902344 22.699219 L 54.902344 21.992188 L 51.945312 21.992188 L 52.300781 17.511719 L 59.953125 17.511719 L 61.191406 33.113281 L 53.730469 37.265625 L 52.359375 31.601562 L 51.121094 32.296875 Z M 53.039062 8.324219 L 59.230469 8.324219 L 59.53125 12.160156 L 52.726562 12.160156 Z M 59.902344 16.792969 L 52.367188 16.792969 L 52.675781 12.875 L 59.589844 12.875 Z M 63.445312 32.671875 L 64.582031 37.390625 L 54.96875 37.390625 L 61.257812 33.886719 L 61.597656 33.695312 L 61.933594 33.503906 Z M 26.511719 19.722656 L 30.171875 19.722656 L 30.171875 31.824219 L 26.511719 33.867188 Z M 26.511719 34.675781 L 30.113281 32.671875 L 30.171875 32.929688 L 30.527344 34.398438 L 30.820312 35.613281 L 30.527344 36.121094 L 30.171875 36.734375 L 29.796875 37.382812 L 21.644531 37.382812 L 22.597656 36.851562 L 22.949219 36.652344 L 23.304688 36.453125 L 25.800781 35.058594 L 26.15625 34.859375 Z M 26.511719 34.675781 "/></g></g></svg>