<svg xmlns="http://www.w3.org/2000/svg" xmlns:xlink="http://www.w3.org/1999/xlink" width="100" zoomAndPan="magnify" viewBox="0 0 75 74.999997" height="100" preserveAspectRatio="xMidYMid meet" version="1.2"><defs><clipPath id="0a51b7d6f6"><path d="M 7.5 33 L 14 33 L 14 37 L 7.5 37 Z M 7.5 33 "/></clipPath><clipPath id="08a9b20920"><path d="M 7.5 25 L 42 25 L 42 34 L 7.5 34 Z M 7.5 25 "/></clipPath><clipPath id="37bb69e869"><path d="M 30 7.5 L 64 7.5 L 64 62 L 30 62 Z M 30 7.5 "/></clipPath><clipPath id="add6e7909b"><path d="M 30 7.5 L 64 7.5 L 64 16 L 30 16 Z M 30 7.5 "/></clipPath></defs><g id="addf8a5d07"><path style=" stroke:none;fill-rule:nonzero;fill:#165efc;fill-opacity:1;" d="M 64.652344 35.878906 L 53.277344 35.878906 C 53.058594 35.878906 52.882812 35.703125 52.882812 35.484375 L 52.882812 24.140625 L 51.648438 25.863281 C 51.582031 25.960938 51.476562 26.019531 51.359375 26.027344 C 51.242188 26.039062 51.128906 25.996094 51.046875 25.914062 L 49.109375 23.976562 C 48.964844 23.832031 48.953125 23.601562 49.085938 23.441406 L 52.972656 18.777344 C 53.058594 18.671875 53.1875 18.621094 53.316406 18.636719 L 64.632812 18.636719 C 64.757812 18.628906 64.875 18.679688 64.957031 18.777344 L 68.847656 23.441406 C 68.976562 23.601562 68.96875 23.832031 68.824219 23.976562 L 66.882812 25.914062 C 66.800781 25.996094 66.6875 26.039062 66.570312 26.027344 C 66.457031 26.019531 66.351562 25.960938 66.28125 25.863281 L 65.050781 24.140625 L 65.050781 35.484375 C 65.050781 35.703125 64.871094 35.878906 64.652344 35.878906 Z M 53.671875 35.089844 L 64.257812 35.089844 L 64.257812 22.90625 C 64.257812 22.734375 64.371094 22.582031 64.535156 22.53125 C 64.695312 22.476562 64.875 22.539062 64.976562 22.675781 L 66.65625 25.027344 L 68.007812 23.671875 L 64.46875 19.425781 L 53.460938 19.425781 L 49.921875 23.671875 L 51.277344 25.027344 L 52.957031 22.675781 C 53.054688 22.539062 53.234375 22.476562 53.398438 22.53125 C 53.5625 22.582031 53.671875 22.734375 53.671875 22.90625 Z M 53.671875 35.089844 "/><path style=" stroke:none;fill-rule:nonzero;fill:#165efc;fill-opacity:1;" d="M 58.964844 21.558594 C 57.628906 21.558594 56.539062 20.46875 56.539062 19.132812 C 56.539062 19.128906 56.539062 19.121094 56.539062 19.117188 L 56.542969 19.015625 C 56.550781 18.804688 56.726562 18.636719 56.9375 18.636719 L 60.992188 18.636719 C 61.207031 18.636719 61.378906 18.804688 61.386719 19.015625 L 61.390625 19.117188 C 61.390625 19.121094 61.390625 19.128906 61.390625 19.132812 C 61.390625 20.46875 60.304688 21.558594 58.964844 21.558594 Z M 57.355469 19.425781 C 57.496094 20.1875 58.164062 20.769531 58.964844 20.769531 C 59.765625 20.769531 60.4375 20.1875 60.574219 19.425781 Z M 57.355469 19.425781 "/><path style=" stroke:none;fill-rule:nonzero;fill:#165efc;fill-opacity:1;" d="M 38.988281 48.46875 L 9.859375 48.46875 C 9.644531 48.46875 9.464844 48.292969 9.464844 48.074219 L 9.464844 35.804688 C 9.464844 35.6875 9.515625 35.578125 9.605469 35.503906 C 9.695312 35.429688 9.8125 35.394531 9.925781 35.414062 C 10.046875 35.433594 10.15625 35.445312 10.261719 35.445312 C 11.34375 35.445312 12.226562 34.5625 12.226562 33.480469 C 12.226562 33.261719 12.402344 33.085938 12.621094 33.085938 C 12.839844 33.085938 13.015625 33.261719 13.015625 33.480469 C 13.015625 34.5625 13.898438 35.445312 14.980469 35.445312 C 16.0625 35.445312 16.941406 34.5625 16.941406 33.480469 C 16.941406 33.261719 17.117188 33.085938 17.335938 33.085938 C 17.554688 33.085938 17.730469 33.261719 17.730469 33.480469 C 17.730469 34.5625 18.613281 35.445312 19.695312 35.445312 C 20.78125 35.445312 21.660156 34.5625 21.660156 33.480469 C 21.660156 33.261719 21.835938 33.085938 22.054688 33.085938 C 22.273438 33.085938 22.453125 33.261719 22.453125 33.480469 C 22.453125 34.5625 23.332031 35.445312 24.410156 35.445312 C 25.496094 35.445312 26.375 34.5625 26.375 33.480469 C 26.375 33.261719 26.550781 33.085938 26.769531 33.085938 C 26.988281 33.085938 27.167969 33.261719 27.167969 33.480469 C 27.167969 34.5625 28.046875 35.445312 29.128906 35.445312 C 30.214844 35.445312 31.09375 34.5625 31.09375 33.480469 C 31.09375 33.261719 31.269531 33.085938 31.488281 33.085938 C 31.707031 33.085938 31.882812 33.261719 31.882812 33.480469 C 31.882812 34.5625 32.765625 35.445312 33.84375 35.445312 C 34.929688 35.445312 35.808594 34.5625 35.808594 33.480469 C 35.808594 33.261719 35.988281 33.085938 36.203125 33.085938 C 36.421875 33.085938 36.601562 33.261719 36.601562 33.480469 C 36.601562 34.511719 38.015625 35.445312 38.5625 35.445312 C 38.671875 35.445312 38.75 35.445312 38.808594 35.441406 C 38.839844 35.429688 38.875 35.417969 38.914062 35.410156 C 39.03125 35.386719 39.148438 35.417969 39.242188 35.496094 C 39.3125 35.554688 39.359375 35.636719 39.378906 35.730469 C 39.390625 35.773438 39.394531 35.820312 39.390625 35.863281 C 39.386719 35.878906 39.386719 35.894531 39.382812 35.90625 L 39.382812 48.074219 C 39.382812 48.292969 39.207031 48.46875 38.988281 48.46875 Z M 10.257812 47.679688 L 38.59375 47.679688 L 38.59375 36.234375 C 38.582031 36.234375 38.574219 36.234375 38.5625 36.234375 C 37.929688 36.234375 36.863281 35.667969 36.257812 34.804688 C 35.789062 35.65625 34.882812 36.234375 33.847656 36.234375 C 32.847656 36.234375 31.972656 35.699219 31.488281 34.902344 C 31.007812 35.699219 30.128906 36.234375 29.128906 36.234375 C 28.132812 36.234375 27.253906 35.699219 26.769531 34.902344 C 26.289062 35.699219 25.410156 36.234375 24.410156 36.234375 C 23.414062 36.234375 22.539062 35.699219 22.054688 34.902344 C 21.574219 35.699219 20.695312 36.234375 19.695312 36.234375 C 18.699219 36.234375 17.820312 35.699219 17.335938 34.902344 C 16.855469 35.699219 15.980469 36.234375 14.980469 36.234375 C 13.980469 36.234375 13.105469 35.699219 12.621094 34.902344 C 12.140625 35.699219 11.261719 36.234375 10.261719 36.234375 C 10.261719 36.234375 10.257812 36.234375 10.257812 36.234375 Z M 10.257812 47.679688 "/><path style=" stroke:none;fill-rule:nonzero;fill:#165efc;fill-opacity:1;" d="M 38.5625 36.234375 C 37.046875 36.234375 35.808594 35 35.808594 33.480469 C 35.808594 33.261719 35.988281 33.085938 36.207031 33.085938 L 40.921875 33.085938 C 41.136719 33.085938 41.316406 33.261719 41.316406 33.480469 C 41.316406 35 40.082031 36.234375 38.5625 36.234375 Z M 36.640625 33.875 C 36.824219 34.769531 37.617188 35.445312 38.5625 35.445312 C 39.511719 35.445312 40.300781 34.769531 40.484375 33.875 Z M 36.640625 33.875 "/><path style=" stroke:none;fill-rule:nonzero;fill:#165efc;fill-opacity:1;" d="M 33.847656 36.234375 C 32.328125 36.234375 31.09375 35 31.09375 33.480469 C 31.09375 33.261719 31.269531 33.085938 31.488281 33.085938 L 36.207031 33.085938 C 36.421875 33.085938 36.601562 33.261719 36.601562 33.480469 C 36.601562 35 35.363281 36.234375 33.847656 36.234375 Z M 31.925781 33.875 C 32.109375 34.769531 32.898438 35.445312 33.847656 35.445312 C 34.792969 35.445312 35.585938 34.769531 35.769531 33.875 Z M 31.925781 33.875 "/><path style=" stroke:none;fill-rule:nonzero;fill:#165efc;fill-opacity:1;" d="M 29.128906 36.234375 C 27.613281 36.234375 26.375 35 26.375 33.480469 C 26.375 33.261719 26.554688 33.085938 26.769531 33.085938 L 31.488281 33.085938 C 31.707031 33.085938 31.886719 33.261719 31.886719 33.480469 C 31.886719 35 30.648438 36.234375 29.128906 36.234375 Z M 27.207031 33.875 C 27.390625 34.769531 28.183594 35.445312 29.128906 35.445312 C 30.078125 35.445312 30.871094 34.769531 31.054688 33.875 Z M 27.207031 33.875 "/><path style=" stroke:none;fill-rule:nonzero;fill:#165efc;fill-opacity:1;" d="M 24.410156 36.234375 C 22.894531 36.234375 21.660156 35 21.660156 33.480469 C 21.660156 33.261719 21.835938 33.085938 22.054688 33.085938 L 26.769531 33.085938 C 26.988281 33.085938 27.167969 33.261719 27.167969 33.480469 C 27.167969 35 25.929688 36.234375 24.410156 36.234375 Z M 22.492188 33.875 C 22.675781 34.769531 23.464844 35.445312 24.410156 35.445312 C 25.359375 35.445312 26.152344 34.769531 26.335938 33.875 Z M 22.492188 33.875 "/><path style=" stroke:none;fill-rule:nonzero;fill:#165efc;fill-opacity:1;" d="M 19.695312 36.234375 C 18.175781 36.234375 16.941406 35 16.941406 33.480469 C 16.941406 33.261719 17.117188 33.085938 17.335938 33.085938 L 22.054688 33.085938 C 22.273438 33.085938 22.453125 33.261719 22.453125 33.480469 C 22.453125 35 21.214844 36.234375 19.695312 36.234375 Z M 17.773438 33.875 C 17.957031 34.769531 18.75 35.445312 19.695312 35.445312 C 20.644531 35.445312 21.4375 34.769531 21.621094 33.875 Z M 17.773438 33.875 "/><path style=" stroke:none;fill-rule:nonzero;fill:#165efc;fill-opacity:1;" d="M 14.980469 36.234375 C 13.460938 36.234375 12.226562 35 12.226562 33.480469 C 12.226562 33.261719 12.402344 33.085938 12.621094 33.085938 L 17.335938 33.085938 C 17.554688 33.085938 17.730469 33.261719 17.730469 33.480469 C 17.730469 35 16.5 36.234375 14.980469 36.234375 Z M 13.058594 33.875 C 13.242188 34.769531 14.035156 35.445312 14.980469 35.445312 C 15.925781 35.445312 16.71875 34.769531 16.902344 33.875 Z M 13.058594 33.875 "/><g clip-rule="nonzero" clip-path="url(#0a51b7d6f6)"><path style=" stroke:none;fill-rule:nonzero;fill:#165efc;fill-opacity:1;" d="M 10.261719 36.234375 C 8.757812 36.234375 7.535156 35 7.535156 33.480469 C 7.535156 33.261719 7.710938 33.085938 7.929688 33.085938 L 12.621094 33.085938 C 12.839844 33.085938 13.015625 33.261719 13.015625 33.480469 C 13.015625 35 11.78125 36.234375 10.261719 36.234375 Z M 8.363281 33.875 C 8.542969 34.769531 9.328125 35.445312 10.261719 35.445312 C 11.210938 35.445312 12.003906 34.769531 12.1875 33.875 Z M 8.363281 33.875 "/></g><path style=" stroke:none;fill-rule:nonzero;fill:#165efc;fill-opacity:1;" d="M 40.441406 26.480469 L 8.410156 26.480469 C 8.191406 26.480469 8.011719 26.304688 8.011719 26.085938 L 8.011719 24.421875 C 8.011719 24.203125 8.191406 24.027344 8.410156 24.027344 L 40.441406 24.027344 C 40.660156 24.027344 40.835938 24.203125 40.835938 24.421875 L 40.835938 26.085938 C 40.835938 26.304688 40.660156 26.480469 40.441406 26.480469 Z M 8.804688 25.6875 L 40.046875 25.6875 L 40.046875 24.816406 L 8.804688 24.816406 Z M 8.804688 25.6875 "/><path style=" stroke:none;fill-rule:nonzero;fill:#165efc;fill-opacity:1;" d="M 39.324219 24.816406 L 9.523438 24.816406 C 9.308594 24.816406 9.128906 24.640625 9.128906 24.421875 L 9.128906 22.753906 C 9.128906 22.539062 9.308594 22.359375 9.523438 22.359375 L 39.324219 22.359375 C 39.542969 22.359375 39.71875 22.539062 39.71875 22.753906 L 39.71875 24.421875 C 39.71875 24.640625 39.542969 24.816406 39.324219 24.816406 Z M 9.921875 24.027344 L 38.929688 24.027344 L 38.929688 23.152344 L 9.921875 23.152344 Z M 9.921875 24.027344 "/><path style=" stroke:none;fill-rule:nonzero;fill:#165efc;fill-opacity:1;" d="M 40.402344 49.769531 L 8.445312 49.769531 C 8.226562 49.769531 8.050781 49.59375 8.050781 49.375 L 8.050781 48.074219 C 8.050781 47.855469 8.226562 47.679688 8.445312 47.679688 L 40.402344 47.679688 C 40.621094 47.679688 40.800781 47.855469 40.800781 48.074219 L 40.800781 49.375 C 40.800781 49.59375 40.621094 49.769531 40.402344 49.769531 Z M 8.839844 48.980469 L 40.007812 48.980469 L 40.007812 48.46875 L 8.839844 48.46875 Z M 8.839844 48.980469 "/><g clip-rule="nonzero" clip-path="url(#08a9b20920)"><path style=" stroke:none;fill-rule:nonzero;fill:#165efc;fill-opacity:1;" d="M 40.921875 33.875 L 7.929688 33.875 C 7.804688 33.875 7.691406 33.816406 7.617188 33.722656 C 7.539062 33.625 7.515625 33.496094 7.546875 33.378906 L 9.503906 25.984375 C 9.550781 25.808594 9.707031 25.6875 9.886719 25.6875 L 38.960938 25.6875 C 39.140625 25.6875 39.300781 25.808594 39.34375 25.984375 L 41.289062 33.335938 C 41.308594 33.378906 41.316406 33.429688 41.316406 33.480469 C 41.316406 33.699219 41.140625 33.875 40.921875 33.875 Z M 8.441406 33.085938 L 40.40625 33.085938 L 38.65625 26.480469 L 10.191406 26.480469 Z M 8.441406 33.085938 "/></g><path style=" stroke:none;fill-rule:nonzero;fill:#165efc;fill-opacity:1;" d="M 17.335938 33.875 L 12.621094 33.875 C 12.402344 33.875 12.226562 33.699219 12.226562 33.480469 L 12.226562 26.085938 C 12.226562 25.867188 12.402344 25.6875 12.621094 25.6875 L 17.335938 25.6875 C 17.554688 25.6875 17.730469 25.867188 17.730469 26.085938 L 17.730469 33.480469 C 17.730469 33.699219 17.554688 33.875 17.335938 33.875 Z M 13.015625 33.085938 L 16.941406 33.085938 L 16.941406 26.480469 L 13.015625 26.480469 Z M 13.015625 33.085938 "/><path style=" stroke:none;fill-rule:nonzero;fill:#165efc;fill-opacity:1;" d="M 22.054688 33.875 L 17.335938 33.875 C 17.117188 33.875 16.941406 33.699219 16.941406 33.480469 L 16.941406 26.085938 C 16.941406 25.867188 17.117188 25.6875 17.335938 25.6875 L 22.054688 25.6875 C 22.273438 25.6875 22.453125 25.867188 22.453125 26.085938 L 22.453125 33.480469 C 22.453125 33.699219 22.273438 33.875 22.054688 33.875 Z M 17.730469 33.085938 L 21.660156 33.085938 L 21.660156 26.480469 L 17.730469 26.480469 Z M 17.730469 33.085938 "/><path style=" stroke:none;fill-rule:nonzero;fill:#165efc;fill-opacity:1;" d="M 26.769531 33.875 L 22.054688 33.875 C 21.835938 33.875 21.660156 33.699219 21.660156 33.480469 L 21.660156 26.085938 C 21.660156 25.867188 21.835938 25.6875 22.054688 25.6875 L 26.769531 25.6875 C 26.988281 25.6875 27.167969 25.867188 27.167969 26.085938 L 27.167969 33.480469 C 27.167969 33.699219 26.988281 33.875 26.769531 33.875 Z M 22.453125 33.085938 L 26.375 33.085938 L 26.375 26.480469 L 22.453125 26.480469 Z M 22.453125 33.085938 "/><path style=" stroke:none;fill-rule:nonzero;fill:#165efc;fill-opacity:1;" d="M 31.484375 33.875 L 26.769531 33.875 C 26.554688 33.875 26.375 33.699219 26.375 33.480469 L 26.375 26.085938 C 26.375 25.867188 26.554688 25.6875 26.769531 25.6875 L 31.484375 25.6875 C 31.703125 25.6875 31.882812 25.867188 31.882812 26.085938 L 31.882812 33.480469 C 31.882812 33.699219 31.703125 33.875 31.484375 33.875 Z M 27.167969 33.085938 L 31.089844 33.085938 L 31.089844 26.480469 L 27.167969 26.480469 Z M 27.167969 33.085938 "/><path style=" stroke:none;fill-rule:nonzero;fill:#165efc;fill-opacity:1;" d="M 36.207031 33.875 L 31.484375 33.875 C 31.269531 33.875 31.089844 33.699219 31.089844 33.480469 L 31.089844 26.085938 C 31.089844 25.867188 31.269531 25.6875 31.484375 25.6875 L 36.207031 25.6875 C 36.421875 25.6875 36.601562 25.867188 36.601562 26.085938 L 36.601562 33.480469 C 36.601562 33.699219 36.421875 33.875 36.207031 33.875 Z M 31.882812 33.085938 L 35.808594 33.085938 L 35.808594 26.480469 L 31.882812 26.480469 Z M 31.882812 33.085938 "/><g clip-rule="nonzero" clip-path="url(#37bb69e869)"><path style=" stroke:none;fill-rule:nonzero;fill:#165efc;fill-opacity:1;" d="M 33.488281 61.046875 C 31.949219 61.046875 30.683594 59.796875 30.667969 58.261719 L 30.558594 49.378906 C 30.558594 49.273438 30.601562 49.171875 30.675781 49.097656 C 30.75 49.023438 30.851562 48.980469 30.957031 48.980469 L 40.007812 48.980469 L 40.007812 48.46875 L 38.988281 48.46875 C 38.769531 48.46875 38.59375 48.292969 38.59375 48.074219 L 38.59375 36.234375 C 38.582031 36.234375 38.574219 36.234375 38.5625 36.234375 C 38.347656 36.234375 38.167969 36.058594 38.167969 35.839844 C 38.167969 35.621094 38.347656 35.445312 38.5625 35.445312 C 38.664062 35.445312 38.773438 35.433594 38.894531 35.414062 C 38.902344 35.414062 38.910156 35.410156 38.917969 35.410156 C 39.832031 35.242188 40.5 34.457031 40.523438 33.527344 L 38.582031 26.1875 C 38.546875 26.066406 38.574219 25.941406 38.648438 25.84375 C 38.722656 25.746094 38.839844 25.6875 38.960938 25.6875 L 40.046875 25.6875 L 40.046875 24.816406 L 39.324219 24.816406 C 39.105469 24.816406 38.929688 24.640625 38.929688 24.421875 L 38.929688 23.152344 L 30.628906 23.152344 C 30.414062 23.152344 30.238281 22.976562 30.234375 22.761719 L 30.089844 10.679688 C 30.074219 9.128906 31.324219 7.847656 32.875 7.828125 L 60.363281 7.5 C 61.894531 7.5 63.15625 8.746094 63.175781 10.28125 L 63.28125 19.027344 C 63.28125 19.132812 63.238281 19.234375 63.164062 19.308594 C 63.089844 19.382812 62.988281 19.425781 62.882812 19.425781 L 53.460938 19.425781 L 49.921875 23.671875 L 51.277344 25.027344 L 52.953125 22.675781 C 53.054688 22.539062 53.234375 22.476562 53.398438 22.53125 C 53.5625 22.582031 53.671875 22.734375 53.671875 22.90625 L 53.671875 35.089844 L 63.082031 35.089844 C 63.300781 35.089844 63.476562 35.265625 63.476562 35.480469 L 63.75 57.863281 C 63.757812 58.613281 63.472656 59.324219 62.945312 59.863281 C 62.417969 60.402344 61.714844 60.707031 60.964844 60.714844 Z M 31.355469 49.769531 L 31.457031 58.253906 C 31.46875 59.355469 32.378906 60.253906 33.488281 60.253906 L 33.507812 60.253906 L 60.957031 59.921875 C 61.496094 59.917969 62 59.699219 62.382812 59.308594 C 62.761719 58.921875 62.96875 58.410156 62.960938 57.871094 L 62.691406 35.878906 L 53.277344 35.878906 C 53.058594 35.878906 52.882812 35.703125 52.882812 35.484375 L 52.882812 24.140625 L 51.648438 25.863281 C 51.582031 25.960938 51.476562 26.019531 51.359375 26.027344 C 51.242188 26.039062 51.128906 25.996094 51.046875 25.914062 L 49.109375 23.976562 C 48.964844 23.832031 48.953125 23.601562 49.085938 23.441406 L 52.972656 18.773438 C 53.058594 18.671875 53.1875 18.621094 53.316406 18.636719 L 62.484375 18.636719 L 62.386719 10.292969 C 62.371094 9.1875 61.464844 8.289062 60.363281 8.289062 L 60.335938 8.289062 L 32.882812 8.621094 C 31.769531 8.632812 30.871094 9.554688 30.882812 10.671875 L 31.023438 22.359375 L 39.324219 22.359375 C 39.542969 22.359375 39.71875 22.535156 39.71875 22.753906 L 39.71875 24.027344 L 40.441406 24.027344 C 40.660156 24.027344 40.835938 24.203125 40.835938 24.421875 L 40.835938 26.085938 C 40.835938 26.300781 40.660156 26.480469 40.441406 26.480469 L 39.476562 26.480469 L 41.300781 33.378906 C 41.3125 33.410156 41.316406 33.445312 41.316406 33.480469 C 41.316406 34.699219 40.519531 35.753906 39.382812 36.109375 L 39.382812 47.679688 L 40.402344 47.679688 C 40.621094 47.679688 40.800781 47.855469 40.800781 48.074219 L 40.800781 49.375 C 40.800781 49.59375 40.621094 49.769531 40.402344 49.769531 Z M 31.355469 49.769531 "/></g><path style=" stroke:none;fill-rule:nonzero;fill:#165efc;fill-opacity:1;" d="M 33.488281 61.046875 C 31.949219 61.046875 30.683594 59.796875 30.667969 58.261719 L 30.589844 51.886719 C 30.589844 51.78125 30.628906 51.679688 30.703125 51.605469 C 30.777344 51.53125 30.878906 51.488281 30.984375 51.488281 L 63.28125 51.488281 C 63.5 51.488281 63.675781 51.660156 63.679688 51.878906 L 63.75 57.863281 C 63.761719 58.613281 63.472656 59.324219 62.945312 59.863281 C 62.417969 60.402344 61.714844 60.707031 60.964844 60.714844 Z M 31.386719 52.277344 L 31.457031 58.253906 C 31.46875 59.355469 32.378906 60.253906 33.488281 60.253906 L 33.507812 60.253906 L 60.957031 59.921875 C 61.496094 59.917969 62 59.699219 62.382812 59.308594 C 62.761719 58.921875 62.96875 58.410156 62.960938 57.871094 L 62.890625 52.277344 Z M 31.386719 52.277344 "/><g clip-rule="nonzero" clip-path="url(#add6e7909b)"><path style=" stroke:none;fill-rule:nonzero;fill:#165efc;fill-opacity:1;" d="M 62.835938 15.058594 C 62.835938 15.058594 62.832031 15.058594 62.832031 15.058594 L 30.535156 15.058594 C 30.320312 15.058594 30.144531 14.886719 30.140625 14.667969 L 30.09375 10.679688 C 30.074219 9.128906 31.324219 7.847656 32.875 7.828125 L 60.363281 7.5 C 61.894531 7.5 63.15625 8.746094 63.175781 10.28125 L 63.226562 14.613281 C 63.230469 14.628906 63.230469 14.648438 63.230469 14.664062 C 63.230469 14.882812 63.054688 15.058594 62.835938 15.058594 Z M 30.925781 14.269531 L 62.433594 14.269531 L 62.386719 10.292969 C 62.371094 9.1875 61.464844 8.289062 60.363281 8.289062 L 60.335938 8.289062 L 32.882812 8.621094 C 31.769531 8.632812 30.871094 9.554688 30.882812 10.671875 Z M 30.925781 14.269531 "/></g><path style=" stroke:none;fill-rule:nonzero;fill:#165efc;fill-opacity:1;" d="M 47.179688 58.378906 C 45.78125 58.378906 44.628906 57.242188 44.613281 55.84375 C 44.597656 54.425781 45.734375 53.261719 47.148438 53.242188 L 47.183594 53.242188 C 48.582031 53.242188 49.734375 54.378906 49.75 55.777344 C 49.757812 56.464844 49.5 57.117188 49.019531 57.605469 C 48.539062 58.097656 47.894531 58.371094 47.210938 58.378906 Z M 47.183594 54.035156 L 47.160156 54.035156 C 46.179688 54.046875 45.390625 54.851562 45.402344 55.835938 C 45.414062 56.800781 46.210938 57.589844 47.179688 57.589844 L 47.199219 57.589844 C 47.675781 57.585938 48.121094 57.394531 48.453125 57.054688 C 48.785156 56.714844 48.964844 56.265625 48.960938 55.789062 C 48.949219 54.820312 48.152344 54.035156 47.183594 54.035156 Z M 47.183594 54.035156 "/><path style=" stroke:none;fill-rule:nonzero;fill:#165efc;fill-opacity:1;" d="M 50.011719 11.558594 L 43.832031 11.558594 C 43.613281 11.558594 43.4375 11.382812 43.4375 11.164062 C 43.4375 10.945312 43.613281 10.769531 43.832031 10.769531 L 50.011719 10.769531 C 50.230469 10.769531 50.40625 10.945312 50.40625 11.164062 C 50.40625 11.382812 50.230469 11.558594 50.011719 11.558594 Z M 50.011719 11.558594 "/><path style=" stroke:none;fill-rule:nonzero;fill:#165efc;fill-opacity:1;" d="M 18.558594 44.550781 L 13.367188 44.550781 C 13.148438 44.550781 12.972656 44.375 12.972656 44.15625 L 12.972656 39.730469 C 12.972656 39.515625 13.148438 39.335938 13.367188 39.335938 L 18.558594 39.335938 C 18.777344 39.335938 18.953125 39.515625 18.953125 39.730469 L 18.953125 44.15625 C 18.953125 44.375 18.777344 44.550781 18.558594 44.550781 Z M 13.761719 43.761719 L 18.164062 43.761719 L 18.164062 40.128906 L 13.761719 40.128906 Z M 13.761719 43.761719 "/><path style=" stroke:none;fill-rule:nonzero;fill:#165efc;fill-opacity:1;" d="M 35.484375 44.550781 L 30.296875 44.550781 C 30.078125 44.550781 29.898438 44.375 29.898438 44.15625 L 29.898438 39.730469 C 29.898438 39.515625 30.078125 39.335938 30.296875 39.335938 L 35.484375 39.335938 C 35.703125 39.335938 35.882812 39.515625 35.882812 39.730469 L 35.882812 44.15625 C 35.882812 44.375 35.703125 44.550781 35.484375 44.550781 Z M 30.691406 43.761719 L 35.089844 43.761719 L 35.089844 40.128906 L 30.691406 40.128906 Z M 30.691406 43.761719 "/><path style=" stroke:none;fill-rule:nonzero;fill:#165efc;fill-opacity:1;" d="M 38.746094 63.25 L 15.683594 63.25 C 15.464844 63.25 15.285156 63.074219 15.285156 62.855469 C 15.285156 62.636719 15.464844 62.460938 15.683594 62.460938 L 38.746094 62.460938 C 38.964844 62.460938 39.140625 62.636719 39.140625 62.855469 C 39.140625 63.074219 38.964844 63.25 38.746094 63.25 Z M 38.746094 63.25 "/><path style=" stroke:none;fill-rule:nonzero;fill:#165efc;fill-opacity:1;" d="M 57.914062 64.988281 L 29.484375 64.988281 C 29.265625 64.988281 29.089844 64.8125 29.089844 64.59375 C 29.089844 64.375 29.265625 64.199219 29.484375 64.199219 L 57.914062 64.199219 C 58.132812 64.199219 58.3125 64.375 58.3125 64.59375 C 58.3125 64.8125 58.132812 64.988281 57.914062 64.988281 Z M 57.914062 64.988281 "/></g></svg>