<svg xmlns="http://www.w3.org/2000/svg" xmlns:xlink="http://www.w3.org/1999/xlink" width="100" zoomAndPan="magnify" viewBox="0 0 75 74.999997" height="100" preserveAspectRatio="xMidYMid meet" version="1.2"><defs><clipPath id="9243838fb8"><path d="M 12.976562 7.5 L 61.726562 7.5 L 61.726562 67.5 L 12.976562 67.5 Z M 12.976562 7.5 "/></clipPath></defs><g id="66b34d64be"><g clip-rule="nonzero" clip-path="url(#9243838fb8)"><path style=" stroke:none;fill-rule:nonzero;fill:#165efc;fill-opacity:1;" d="M 41.957031 7.507812 L 32.75 7.507812 L 32.488281 8.46875 C 31.839844 10.835938 30.105469 12.832031 27.847656 13.804688 L 27.828125 13.816406 L 27.820312 13.820312 L 27.808594 13.824219 C 26.792969 14.253906 25.71875 14.472656 24.605469 14.472656 C 23.496094 14.472656 22.417969 14.253906 21.402344 13.824219 L 21.15625 13.71875 L 20.214844 13.71875 L 19.820312 14.214844 L 13.773438 21.894531 L 12.976562 22.910156 L 13.980469 23.722656 C 13.996094 23.734375 15.683594 25.117188 17.390625 27.476562 C 18.933594 29.613281 20.816406 33.019531 21.027344 37.128906 C 21.296875 42.316406 18.890625 47.488281 13.878906 52.5 L 13.113281 53.265625 L 13.722656 54.160156 L 19.277344 62.332031 L 20.058594 63.480469 L 21.160156 62.628906 C 21.1875 62.609375 24.078125 60.425781 27.707031 60.425781 C 30.960938 60.425781 33.847656 62.171875 36.285156 65.621094 L 37.351562 67.128906 L 38.421875 65.621094 C 40.859375 62.171875 43.746094 60.425781 47 60.425781 C 50.628906 60.425781 53.519531 62.609375 53.546875 62.632812 L 54.648438 63.484375 L 55.429688 62.332031 L 60.984375 54.160156 L 61.59375 53.265625 L 60.828125 52.5 C 55.808594 47.480469 53.402344 42.300781 53.679688 37.105469 C 54.101562 29.160156 60.660156 23.777344 60.722656 23.722656 L 61.730469 22.910156 L 60.929688 21.894531 L 54.882812 14.214844 L 54.492188 13.71875 L 53.546875 13.71875 L 53.300781 13.824219 C 52.289062 14.253906 51.210938 14.472656 50.097656 14.472656 C 48.988281 14.472656 47.910156 14.253906 46.898438 13.824219 L 46.886719 13.820312 L 46.878906 13.816406 L 46.859375 13.804688 C 44.601562 12.832031 42.867188 10.835938 42.21875 8.46875 Z M 40.957031 8.816406 C 41.722656 11.601562 43.726562 13.875 46.339844 15.007812 C 46.355469 15.011719 46.367188 15.019531 46.382812 15.023438 C 47.523438 15.511719 48.78125 15.78125 50.097656 15.78125 C 51.417969 15.78125 52.671875 15.511719 53.816406 15.023438 L 53.855469 15.023438 L 59.902344 22.707031 C 59.902344 22.707031 42.910156 36.429688 59.902344 53.425781 L 54.347656 61.597656 C 54.347656 61.597656 51.152344 59.117188 47 59.117188 C 44.003906 59.117188 40.503906 60.410156 37.351562 64.863281 C 34.199219 60.410156 30.703125 59.117188 27.707031 59.117188 C 23.554688 59.117188 20.359375 61.597656 20.359375 61.597656 L 14.800781 53.425781 C 31.796875 36.429688 14.800781 22.707031 14.800781 22.707031 L 20.847656 15.023438 L 20.890625 15.023438 C 22.03125 15.511719 23.289062 15.78125 24.605469 15.78125 C 25.925781 15.78125 27.183594 15.511719 28.324219 15.023438 C 28.335938 15.019531 28.351562 15.011719 28.367188 15.007812 C 30.980469 13.875 32.984375 11.601562 33.746094 8.816406 L 40.957031 8.816406 "/></g><path style=" stroke:none;fill-rule:nonzero;fill:#165efc;fill-opacity:1;" d="M 56.257812 54.707031 C 56.148438 54.707031 56.035156 54.675781 55.9375 54.609375 C 55.675781 54.429688 55.609375 54.074219 55.785156 53.8125 L 55.835938 53.742188 C 55.816406 53.71875 55.796875 53.695312 55.773438 53.671875 C 55.566406 53.4375 55.59375 53.074219 55.832031 52.867188 C 56.066406 52.660156 56.429688 52.683594 56.636719 52.921875 C 56.75 53.054688 56.867188 53.183594 56.984375 53.3125 L 57.28125 53.648438 L 56.730469 54.457031 C 56.621094 54.621094 56.441406 54.707031 56.257812 54.707031 "/><path style=" stroke:none;fill-rule:nonzero;fill:#165efc;fill-opacity:1;" d="M 55.9375 54.609375 C 55.675781 54.429688 55.609375 54.074219 55.785156 53.8125 C 55.964844 53.550781 56.320312 53.484375 56.582031 53.664062 C 56.84375 53.839844 56.910156 54.195312 56.730469 54.457031 C 56.621094 54.621094 56.441406 54.707031 56.257812 54.707031 C 56.148438 54.707031 56.035156 54.675781 55.9375 54.609375 "/><path style=" stroke:none;fill-rule:nonzero;fill:#165efc;fill-opacity:1;" d="M 54.8125 56.832031 C 54.699219 56.832031 54.589844 56.796875 54.492188 56.730469 C 54.335938 56.625 54.242188 56.449219 54.242188 56.257812 C 54.242188 56.144531 54.277344 56.03125 54.339844 55.9375 L 54.835938 55.210938 C 54.941406 55.054688 55.117188 54.960938 55.308594 54.960938 C 55.425781 54.960938 55.535156 54.996094 55.628906 55.058594 C 55.757812 55.144531 55.84375 55.277344 55.871094 55.425781 C 55.898438 55.574219 55.867188 55.726562 55.78125 55.855469 L 55.289062 56.582031 C 55.179688 56.738281 55.003906 56.832031 54.8125 56.832031 "/><path style=" stroke:none;fill-rule:nonzero;fill:#165efc;fill-opacity:1;" d="M 53.761719 58.828125 L 53.316406 58.613281 C 53.25 58.578125 53.179688 58.546875 53.113281 58.511719 L 53.097656 58.507812 C 53.015625 58.46875 52.933594 58.429688 52.851562 58.394531 C 52.5625 58.261719 52.433594 57.925781 52.5625 57.636719 C 52.691406 57.347656 53.03125 57.21875 53.316406 57.347656 C 53.335938 57.355469 53.351562 57.363281 53.367188 57.371094 L 53.390625 57.335938 C 53.570312 57.074219 53.925781 57.007812 54.183594 57.183594 C 54.445312 57.363281 54.515625 57.71875 54.335938 57.980469 L 53.761719 58.828125 "/><path style=" stroke:none;fill-rule:nonzero;fill:#165efc;fill-opacity:1;" d="M 52.851562 58.390625 C 52.851562 58.390625 52.851562 58.390625 52.851562 58.394531 C 52.5625 58.261719 52.433594 57.925781 52.5625 57.636719 C 52.691406 57.347656 53.03125 57.21875 53.316406 57.351562 C 53.605469 57.480469 53.734375 57.816406 53.605469 58.105469 C 53.511719 58.316406 53.300781 58.445312 53.082031 58.445312 C 53.003906 58.445312 52.925781 58.425781 52.851562 58.390625 "/><path style=" stroke:none;fill-rule:nonzero;fill:#165efc;fill-opacity:1;" d="M 48.414062 57.152344 C 48.394531 57.152344 48.375 57.152344 48.355469 57.148438 C 48.035156 57.113281 47.710938 57.089844 47.394531 57.082031 C 47.085938 57.070312 46.84375 56.820312 46.84375 56.511719 C 46.84375 56.503906 46.84375 56.5 46.84375 56.492188 C 46.851562 56.175781 47.113281 55.925781 47.433594 55.9375 C 47.777344 55.949219 48.128906 55.972656 48.476562 56.011719 C 48.789062 56.042969 49.019531 56.328125 48.984375 56.640625 C 48.953125 56.933594 48.707031 57.152344 48.414062 57.152344 Z M 44.496094 57.324219 C 44.226562 57.324219 43.992188 57.132812 43.9375 56.867188 C 43.929688 56.832031 43.925781 56.792969 43.925781 56.753906 C 43.925781 56.480469 44.121094 56.246094 44.382812 56.195312 C 44.726562 56.125 45.074219 56.066406 45.417969 56.027344 C 45.441406 56.023438 45.464844 56.019531 45.488281 56.019531 C 45.777344 56.019531 46.023438 56.238281 46.054688 56.523438 C 46.074219 56.675781 46.03125 56.824219 45.9375 56.945312 C 45.84375 57.066406 45.707031 57.144531 45.558594 57.160156 C 45.242188 57.199219 44.921875 57.25 44.613281 57.316406 C 44.574219 57.320312 44.535156 57.324219 44.496094 57.324219 Z M 51.28125 57.757812 C 51.222656 57.757812 51.164062 57.746094 51.109375 57.730469 C 50.800781 57.632812 50.488281 57.546875 50.179688 57.472656 C 49.921875 57.40625 49.742188 57.179688 49.742188 56.914062 C 49.742188 56.871094 49.75 56.824219 49.757812 56.777344 C 49.820312 56.523438 50.050781 56.34375 50.3125 56.34375 C 50.359375 56.34375 50.40625 56.347656 50.449219 56.359375 C 50.785156 56.441406 51.121094 56.535156 51.453125 56.640625 C 51.597656 56.683594 51.71875 56.785156 51.789062 56.921875 C 51.859375 57.054688 51.871094 57.210938 51.828125 57.355469 C 51.75 57.59375 51.53125 57.757812 51.28125 57.757812 Z M 41.71875 58.238281 C 41.496094 58.238281 41.289062 58.105469 41.199219 57.90625 C 41.164062 57.828125 41.144531 57.746094 41.144531 57.664062 C 41.144531 57.449219 41.269531 57.25 41.460938 57.15625 L 41.476562 57.144531 C 41.480469 57.144531 41.484375 57.144531 41.488281 57.144531 C 41.800781 56.996094 42.125 56.863281 42.445312 56.746094 C 42.511719 56.722656 42.578125 56.710938 42.644531 56.710938 C 42.882812 56.710938 43.097656 56.859375 43.179688 57.085938 C 43.289062 57.378906 43.136719 57.710938 42.84375 57.820312 C 42.546875 57.929688 42.246094 58.050781 41.957031 58.1875 C 41.878906 58.21875 41.800781 58.238281 41.71875 58.238281 Z M 39.207031 59.742188 L 39.203125 59.742188 C 39.023438 59.742188 38.855469 59.65625 38.746094 59.511719 C 38.671875 59.410156 38.632812 59.292969 38.632812 59.167969 C 38.632812 58.984375 38.714844 58.820312 38.863281 58.710938 C 39.144531 58.5 39.429688 58.300781 39.71875 58.117188 C 39.8125 58.054688 39.917969 58.023438 40.027344 58.023438 C 40.222656 58.023438 40.402344 58.121094 40.507812 58.285156 C 40.679688 58.550781 40.605469 58.90625 40.339844 59.078125 C 40.078125 59.246094 39.816406 59.425781 39.558594 59.617188 C 39.554688 59.621094 39.550781 59.625 39.546875 59.625 L 39.542969 59.628906 C 39.445312 59.703125 39.328125 59.742188 39.207031 59.742188 "/><path style=" stroke:none;fill-rule:nonzero;fill:#165efc;fill-opacity:1;" d="M 37.351562 61.601562 L 36.945312 61.191406 C 36.824219 61.070312 36.703125 60.949219 36.578125 60.832031 C 36.351562 60.613281 36.339844 60.25 36.558594 60.023438 C 36.773438 59.796875 37.125 59.785156 37.351562 59.988281 C 37.582031 59.785156 37.933594 59.796875 38.144531 60.023438 C 38.363281 60.25 38.355469 60.613281 38.125 60.832031 C 38.003906 60.949219 37.878906 61.070312 37.757812 61.191406 L 37.351562 61.601562 "/><path style=" stroke:none;fill-rule:nonzero;fill:#165efc;fill-opacity:1;" d="M 36.578125 60.832031 C 36.351562 60.613281 36.34375 60.25 36.558594 60.023438 C 36.777344 59.792969 37.140625 59.785156 37.367188 60.003906 C 37.597656 60.21875 37.605469 60.582031 37.386719 60.8125 C 37.273438 60.929688 37.125 60.988281 36.972656 60.988281 C 36.832031 60.988281 36.691406 60.9375 36.578125 60.832031 "/><path style=" stroke:none;fill-rule:nonzero;fill:#165efc;fill-opacity:1;" d="M 26.292969 57.152344 C 26 57.152344 25.753906 56.929688 25.722656 56.640625 C 25.722656 56.621094 25.71875 56.601562 25.71875 56.582031 C 25.71875 56.289062 25.9375 56.042969 26.230469 56.011719 C 26.578125 55.972656 26.929688 55.949219 27.273438 55.9375 C 27.59375 55.925781 27.855469 56.175781 27.863281 56.492188 C 27.875 56.804688 27.625 57.070312 27.3125 57.082031 C 26.996094 57.089844 26.675781 57.113281 26.355469 57.148438 C 26.332031 57.152344 26.3125 57.152344 26.292969 57.152344 Z M 30.210938 57.324219 C 30.171875 57.324219 30.132812 57.320312 30.09375 57.316406 C 29.785156 57.25 29.46875 57.199219 29.148438 57.160156 C 28.863281 57.125 28.648438 56.886719 28.648438 56.597656 C 28.648438 56.574219 28.648438 56.550781 28.652344 56.523438 C 28.683594 56.238281 28.929688 56.019531 29.21875 56.019531 C 29.242188 56.019531 29.265625 56.023438 29.289062 56.027344 C 29.632812 56.066406 29.980469 56.125 30.324219 56.195312 C 30.632812 56.257812 30.832031 56.558594 30.769531 56.867188 C 30.714844 57.132812 30.480469 57.324219 30.210938 57.324219 Z M 23.425781 57.753906 C 23.175781 57.753906 22.957031 57.59375 22.882812 57.355469 C 22.863281 57.300781 22.855469 57.242188 22.855469 57.1875 C 22.855469 56.933594 23.015625 56.714844 23.253906 56.636719 C 23.589844 56.535156 23.925781 56.441406 24.257812 56.359375 C 24.300781 56.347656 24.347656 56.34375 24.394531 56.34375 C 24.65625 56.34375 24.886719 56.523438 24.949219 56.777344 C 25.023438 57.085938 24.835938 57.394531 24.527344 57.46875 C 24.21875 57.546875 23.90625 57.632812 23.597656 57.730469 C 23.542969 57.746094 23.484375 57.753906 23.425781 57.753906 Z M 32.988281 58.238281 C 32.90625 58.238281 32.824219 58.21875 32.75 58.1875 C 32.464844 58.054688 32.171875 57.933594 31.875 57.824219 C 31.871094 57.820312 31.867188 57.820312 31.863281 57.820312 L 31.863281 57.816406 C 31.640625 57.734375 31.492188 57.519531 31.492188 57.28125 C 31.492188 57.214844 31.503906 57.148438 31.527344 57.085938 C 31.609375 56.859375 31.824219 56.710938 32.0625 56.710938 C 32.128906 56.710938 32.195312 56.722656 32.261719 56.746094 L 32.269531 56.75 C 32.589844 56.867188 32.914062 57.003906 33.230469 57.148438 C 33.515625 57.28125 33.640625 57.621094 33.507812 57.90625 C 33.417969 58.109375 33.210938 58.238281 32.988281 58.238281 Z M 35.5 59.742188 C 35.378906 59.742188 35.257812 59.703125 35.160156 59.628906 C 34.90625 59.4375 34.640625 59.253906 34.375 59.082031 C 34.375 59.082031 34.371094 59.078125 34.367188 59.078125 L 34.355469 59.070312 C 34.199219 58.960938 34.105469 58.785156 34.105469 58.59375 C 34.105469 58.484375 34.136719 58.378906 34.199219 58.285156 C 34.304688 58.125 34.484375 58.023438 34.679688 58.023438 C 34.789062 58.023438 34.894531 58.058594 34.988281 58.117188 C 35.277344 58.304688 35.566406 58.503906 35.84375 58.710938 L 35.847656 58.710938 C 36.097656 58.902344 36.148438 59.261719 35.960938 59.511719 C 35.851562 59.65625 35.683594 59.742188 35.5 59.742188 "/><path style=" stroke:none;fill-rule:nonzero;fill:#165efc;fill-opacity:1;" d="M 20.945312 58.828125 L 20.371094 57.980469 C 20.191406 57.71875 20.257812 57.363281 20.519531 57.183594 C 20.78125 57.007812 21.136719 57.074219 21.316406 57.335938 L 21.339844 57.371094 C 21.355469 57.363281 21.371094 57.355469 21.386719 57.347656 C 21.675781 57.21875 22.015625 57.347656 22.144531 57.636719 C 22.273438 57.925781 22.144531 58.261719 21.855469 58.394531 C 21.773438 58.429688 21.6875 58.46875 21.605469 58.507812 L 21.59375 58.511719 C 21.523438 58.546875 21.457031 58.578125 21.390625 58.613281 L 20.945312 58.828125 "/><path style=" stroke:none;fill-rule:nonzero;fill:#165efc;fill-opacity:1;" d="M 20.371094 57.980469 C 20.191406 57.71875 20.257812 57.363281 20.519531 57.183594 C 20.78125 57.007812 21.136719 57.074219 21.316406 57.335938 C 21.492188 57.597656 21.425781 57.953125 21.164062 58.128906 C 21.066406 58.195312 20.953125 58.230469 20.84375 58.230469 C 20.660156 58.230469 20.480469 58.140625 20.371094 57.980469 "/><path style=" stroke:none;fill-rule:nonzero;fill:#165efc;fill-opacity:1;" d="M 19.890625 56.832031 C 19.703125 56.832031 19.527344 56.738281 19.417969 56.582031 L 18.925781 55.855469 C 18.859375 55.761719 18.824219 55.648438 18.824219 55.535156 C 18.824219 55.34375 18.917969 55.167969 19.074219 55.058594 C 19.171875 54.996094 19.28125 54.960938 19.398438 54.960938 C 19.585938 54.960938 19.761719 55.054688 19.871094 55.210938 L 20.363281 55.9375 C 20.449219 56.066406 20.484375 56.21875 20.453125 56.367188 C 20.425781 56.515625 20.339844 56.648438 20.214844 56.730469 C 20.117188 56.796875 20.007812 56.832031 19.890625 56.832031 "/><path style=" stroke:none;fill-rule:nonzero;fill:#165efc;fill-opacity:1;" d="M 18.445312 54.707031 C 18.265625 54.707031 18.085938 54.621094 17.972656 54.457031 L 17.421875 53.648438 L 17.722656 53.3125 C 17.839844 53.183594 17.953125 53.054688 18.070312 52.921875 C 18.277344 52.683594 18.636719 52.660156 18.875 52.867188 C 19.113281 53.074219 19.136719 53.4375 18.929688 53.671875 C 18.910156 53.695312 18.890625 53.71875 18.871094 53.742188 L 18.917969 53.8125 C 19.097656 54.074219 19.03125 54.429688 18.769531 54.609375 C 18.671875 54.675781 18.558594 54.707031 18.445312 54.707031 "/><path style=" stroke:none;fill-rule:nonzero;fill:#165efc;fill-opacity:1;" d="M 18.125 53.730469 C 17.886719 53.523438 17.863281 53.160156 18.070312 52.921875 C 18.277344 52.683594 18.636719 52.660156 18.875 52.867188 C 19.113281 53.074219 19.136719 53.433594 18.929688 53.671875 C 18.816406 53.804688 18.660156 53.871094 18.5 53.871094 C 18.367188 53.871094 18.230469 53.824219 18.125 53.730469 "/><path style=" stroke:none;fill-rule:nonzero;fill:#165efc;fill-opacity:1;" d="M 20.667969 25.890625 C 20.484375 25.890625 20.308594 25.800781 20.203125 25.652344 C 20 25.367188 19.785156 25.078125 19.570312 24.800781 C 19.492188 24.699219 19.449219 24.578125 19.449219 24.453125 C 19.449219 24.273438 19.53125 24.105469 19.671875 23.996094 C 19.773438 23.917969 19.894531 23.878906 20.023438 23.878906 C 20.195312 23.878906 20.355469 23.957031 20.46875 24.089844 L 20.472656 24.097656 C 20.476562 24.101562 20.476562 24.105469 20.480469 24.109375 C 20.707031 24.398438 20.925781 24.695312 21.132812 24.988281 C 21.316406 25.246094 21.257812 25.601562 21 25.785156 C 20.902344 25.855469 20.789062 25.890625 20.667969 25.890625 Z M 22.347656 28.574219 C 22.136719 28.574219 21.945312 28.460938 21.84375 28.277344 C 21.679688 27.96875 21.503906 27.660156 21.320312 27.355469 C 21.265625 27.265625 21.238281 27.164062 21.238281 27.058594 C 21.242188 26.855469 21.34375 26.675781 21.515625 26.574219 C 21.605469 26.519531 21.707031 26.492188 21.8125 26.492188 C 22.011719 26.492188 22.195312 26.59375 22.300781 26.769531 C 22.492188 27.085938 22.675781 27.410156 22.851562 27.730469 L 22.851562 27.734375 C 23 28.007812 22.898438 28.355469 22.621094 28.503906 C 22.539062 28.550781 22.441406 28.574219 22.347656 28.574219 Z M 23.664062 31.453125 C 23.429688 31.453125 23.210938 31.304688 23.128906 31.082031 C 23.007812 30.753906 22.871094 30.425781 22.734375 30.105469 C 22.703125 30.03125 22.6875 29.953125 22.6875 29.875 C 22.6875 29.648438 22.824219 29.441406 23.03125 29.351562 C 23.105469 29.320312 23.179688 29.304688 23.257812 29.304688 C 23.488281 29.304688 23.695312 29.441406 23.785156 29.648438 C 23.929688 29.988281 24.070312 30.335938 24.199219 30.679688 C 24.3125 30.976562 24.160156 31.308594 23.867188 31.417969 C 23.800781 31.441406 23.734375 31.453125 23.664062 31.453125 Z M 24.550781 34.492188 C 24.285156 34.492188 24.046875 34.300781 23.992188 34.035156 C 23.921875 33.695312 23.839844 33.351562 23.75 33.011719 C 23.734375 32.964844 23.730469 32.914062 23.730469 32.863281 C 23.730469 32.605469 23.90625 32.378906 24.152344 32.3125 C 24.203125 32.300781 24.253906 32.292969 24.300781 32.292969 C 24.558594 32.292969 24.789062 32.46875 24.851562 32.71875 C 24.949219 33.074219 25.035156 33.441406 25.113281 33.800781 C 25.175781 34.109375 24.980469 34.414062 24.667969 34.480469 C 24.628906 34.488281 24.589844 34.492188 24.550781 34.492188 Z M 24.949219 37.628906 C 24.644531 37.628906 24.394531 37.390625 24.378906 37.082031 C 24.378906 37.03125 24.375 36.980469 24.371094 36.925781 C 24.355469 36.632812 24.332031 36.332031 24.304688 36.035156 C 24.300781 36.015625 24.300781 35.996094 24.300781 35.976562 C 24.300781 35.683594 24.523438 35.4375 24.816406 35.410156 C 24.832031 35.40625 24.851562 35.40625 24.875 35.40625 C 25.167969 35.40625 25.410156 35.625 25.441406 35.917969 L 25.441406 35.921875 C 25.472656 36.234375 25.5 36.554688 25.515625 36.867188 C 25.519531 36.929688 25.519531 36.984375 25.523438 37.03125 C 25.527344 37.183594 25.476562 37.332031 25.375 37.445312 C 25.269531 37.554688 25.128906 37.621094 24.976562 37.628906 C 24.96875 37.628906 24.960938 37.628906 24.949219 37.628906 Z M 24.832031 40.789062 C 24.8125 40.789062 24.789062 40.789062 24.765625 40.785156 C 24.613281 40.769531 24.476562 40.691406 24.382812 40.570312 C 24.289062 40.453125 24.246094 40.300781 24.265625 40.148438 C 24.308594 39.800781 24.339844 39.449219 24.363281 39.105469 C 24.382812 38.792969 24.65625 38.546875 24.96875 38.570312 C 25.269531 38.589844 25.503906 38.839844 25.503906 39.140625 C 25.503906 39.152344 25.503906 39.164062 25.503906 39.175781 C 25.480469 39.542969 25.445312 39.917969 25.402344 40.285156 C 25.367188 40.574219 25.121094 40.789062 24.832031 40.789062 Z M 24.203125 43.890625 C 24.152344 43.890625 24.097656 43.882812 24.046875 43.871094 C 23.898438 43.828125 23.777344 43.730469 23.703125 43.597656 C 23.628906 43.464844 23.613281 43.308594 23.652344 43.160156 C 23.75 42.820312 23.839844 42.480469 23.917969 42.140625 C 23.976562 41.878906 24.207031 41.699219 24.472656 41.699219 C 24.515625 41.699219 24.558594 41.703125 24.601562 41.714844 C 24.863281 41.773438 25.046875 42 25.046875 42.269531 C 25.046875 42.3125 25.042969 42.355469 25.03125 42.398438 C 24.949219 42.757812 24.855469 43.121094 24.753906 43.476562 L 24.753906 43.484375 L 24.75 43.484375 C 24.679688 43.722656 24.457031 43.890625 24.203125 43.890625 Z M 23.109375 46.863281 C 23.027344 46.863281 22.949219 46.84375 22.875 46.8125 C 22.585938 46.679688 22.457031 46.339844 22.589844 46.054688 C 22.734375 45.730469 22.871094 45.40625 23 45.082031 C 23.085938 44.859375 23.296875 44.71875 23.53125 44.71875 C 23.601562 44.71875 23.675781 44.734375 23.742188 44.761719 C 23.960938 44.847656 24.101562 45.054688 24.101562 45.292969 C 24.101562 45.363281 24.089844 45.433594 24.0625 45.503906 C 23.929688 45.84375 23.785156 46.1875 23.628906 46.523438 C 23.539062 46.730469 23.332031 46.863281 23.109375 46.863281 Z M 21.621094 49.65625 C 21.515625 49.65625 21.414062 49.625 21.324219 49.570312 C 21.054688 49.40625 20.96875 49.054688 21.132812 48.785156 C 21.320312 48.484375 21.5 48.175781 21.671875 47.871094 C 21.773438 47.6875 21.960938 47.578125 22.171875 47.578125 C 22.269531 47.578125 22.363281 47.601562 22.449219 47.648438 C 22.628906 47.75 22.742188 47.941406 22.742188 48.148438 C 22.742188 48.246094 22.71875 48.34375 22.667969 48.429688 C 22.492188 48.746094 22.304688 49.066406 22.109375 49.382812 C 22.003906 49.554688 21.824219 49.65625 21.621094 49.65625 Z M 19.820312 52.257812 C 19.695312 52.257812 19.574219 52.21875 19.472656 52.140625 C 19.351562 52.046875 19.273438 51.914062 19.253906 51.761719 C 19.234375 51.609375 19.277344 51.460938 19.367188 51.339844 C 19.585938 51.054688 19.800781 50.765625 20.003906 50.484375 C 20.113281 50.335938 20.285156 50.246094 20.46875 50.246094 C 20.589844 50.246094 20.703125 50.285156 20.800781 50.351562 C 20.953125 50.460938 21.042969 50.636719 21.039062 50.820312 C 21.039062 50.941406 21.003906 51.054688 20.933594 51.152344 C 20.722656 51.445312 20.503906 51.742188 20.28125 52.03125 L 20.273438 52.035156 C 20.167969 52.179688 20 52.257812 19.820312 52.257812 "/><path style=" stroke:none;fill-rule:nonzero;fill:#165efc;fill-opacity:1;" d="M 18.683594 23.421875 C 18.527344 23.421875 18.371094 23.359375 18.257812 23.234375 C 18.136719 23.101562 18.019531 22.972656 17.90625 22.851562 L 17.570312 22.492188 L 18.203125 21.6875 C 18.398438 21.441406 18.757812 21.398438 19.003906 21.59375 C 19.253906 21.789062 19.296875 22.148438 19.101562 22.398438 L 19.074219 22.429688 C 19.085938 22.441406 19.097656 22.453125 19.105469 22.46875 C 19.320312 22.699219 19.300781 23.0625 19.066406 23.273438 C 18.957031 23.375 18.820312 23.421875 18.683594 23.421875 "/><path style=" stroke:none;fill-rule:nonzero;fill:#165efc;fill-opacity:1;" d="M 18.296875 22.492188 C 18.050781 22.296875 18.007812 21.9375 18.203125 21.6875 C 18.398438 21.441406 18.757812 21.398438 19.003906 21.59375 C 19.253906 21.789062 19.296875 22.148438 19.101562 22.394531 C 18.988281 22.539062 18.820312 22.613281 18.652344 22.613281 C 18.527344 22.613281 18.402344 22.574219 18.296875 22.492188 "/><path style=" stroke:none;fill-rule:nonzero;fill:#165efc;fill-opacity:1;" d="M 19.765625 21.203125 C 19.632812 21.203125 19.511719 21.160156 19.410156 21.078125 C 19.289062 20.984375 19.214844 20.847656 19.195312 20.695312 C 19.179688 20.546875 19.21875 20.394531 19.316406 20.277344 L 19.894531 19.539062 C 20.003906 19.402344 20.167969 19.320312 20.34375 19.320312 C 20.472656 19.320312 20.59375 19.363281 20.695312 19.445312 C 20.835938 19.554688 20.914062 19.71875 20.914062 19.894531 C 20.914062 20.023438 20.871094 20.148438 20.792969 20.25 L 20.214844 20.984375 C 20.105469 21.121094 19.941406 21.203125 19.765625 21.203125 "/><path style=" stroke:none;fill-rule:nonzero;fill:#165efc;fill-opacity:1;" d="M 21.453125 19.054688 C 21.332031 19.054688 21.207031 19.011719 21.101562 18.929688 C 20.851562 18.734375 20.808594 18.375 21.007812 18.128906 L 21.5625 17.421875 L 21.917969 17.507812 C 22.082031 17.546875 22.246094 17.582031 22.410156 17.613281 C 22.722656 17.675781 22.925781 17.972656 22.863281 18.285156 C 22.804688 18.59375 22.503906 18.796875 22.195312 18.738281 C 22.132812 18.726562 22.070312 18.714844 22.011719 18.699219 L 21.90625 18.835938 C 21.792969 18.980469 21.625 19.054688 21.453125 19.054688 "/><path style=" stroke:none;fill-rule:nonzero;fill:#165efc;fill-opacity:1;" d="M 22.195312 18.738281 C 21.882812 18.675781 21.683594 18.378906 21.742188 18.070312 C 21.800781 17.757812 22.101562 17.554688 22.410156 17.613281 C 22.722656 17.675781 22.925781 17.972656 22.863281 18.285156 C 22.8125 18.558594 22.574219 18.746094 22.304688 18.746094 C 22.269531 18.746094 22.230469 18.746094 22.195312 18.738281 "/><path style=" stroke:none;fill-rule:nonzero;fill:#165efc;fill-opacity:1;" d="M 33.40625 15.179688 C 33.261719 15.179688 33.121094 15.125 33.015625 15.023438 C 32.902344 14.921875 32.839844 14.777344 32.835938 14.625 C 32.832031 14.472656 32.886719 14.328125 32.992188 14.214844 C 33.238281 13.957031 33.476562 13.679688 33.695312 13.394531 C 33.804688 13.253906 33.972656 13.175781 34.148438 13.175781 C 34.277344 13.175781 34.398438 13.21875 34.5 13.296875 C 34.640625 13.402344 34.71875 13.566406 34.71875 13.746094 C 34.722656 13.875 34.679688 13.996094 34.597656 14.097656 C 34.355469 14.410156 34.09375 14.714844 33.824219 15.003906 C 33.714844 15.117188 33.566406 15.179688 33.40625 15.179688 Z M 30.820312 17.253906 C 30.617188 17.253906 30.429688 17.148438 30.328125 16.976562 C 30.167969 16.703125 30.253906 16.351562 30.527344 16.191406 C 30.835938 16.003906 31.140625 15.804688 31.429688 15.59375 C 31.527344 15.519531 31.644531 15.480469 31.765625 15.480469 C 31.949219 15.480469 32.121094 15.570312 32.230469 15.71875 C 32.300781 15.816406 32.339844 15.929688 32.339844 16.050781 C 32.339844 16.234375 32.253906 16.410156 32.105469 16.515625 C 31.785156 16.75 31.453125 16.96875 31.113281 17.171875 C 31.023438 17.226562 30.921875 17.253906 30.820312 17.253906 Z M 27.765625 18.550781 C 27.507812 18.550781 27.28125 18.375 27.214844 18.128906 C 27.132812 17.824219 27.3125 17.507812 27.617188 17.425781 C 27.964844 17.332031 28.3125 17.222656 28.648438 17.09375 C 28.714844 17.070312 28.78125 17.058594 28.851562 17.058594 C 29.085938 17.058594 29.300781 17.207031 29.386719 17.429688 C 29.410156 17.496094 29.421875 17.5625 29.421875 17.632812 C 29.421875 17.867188 29.269531 18.082031 29.050781 18.164062 C 28.679688 18.304688 28.296875 18.425781 27.917969 18.53125 C 27.867188 18.542969 27.816406 18.550781 27.765625 18.550781 Z M 24.605469 18.96875 C 24.566406 18.96875 24.523438 18.96875 24.476562 18.964844 L 24.472656 18.964844 C 24.316406 18.964844 24.175781 18.902344 24.070312 18.792969 C 23.960938 18.683594 23.902344 18.539062 23.90625 18.386719 C 23.910156 18.078125 24.164062 17.824219 24.476562 17.824219 L 24.484375 17.824219 C 24.523438 17.824219 24.5625 17.824219 24.605469 17.824219 C 24.929688 17.824219 25.25 17.808594 25.566406 17.785156 C 25.878906 17.757812 26.160156 17.996094 26.183594 18.308594 C 26.183594 18.320312 26.1875 18.335938 26.1875 18.351562 C 26.1875 18.648438 25.957031 18.898438 25.660156 18.921875 C 25.3125 18.953125 24.957031 18.96875 24.605469 18.96875 "/><path style=" stroke:none;fill-rule:nonzero;fill:#165efc;fill-opacity:1;" d="M 35.328125 12.476562 C 35.238281 12.476562 35.148438 12.457031 35.066406 12.414062 C 34.785156 12.269531 34.675781 11.921875 34.820312 11.640625 C 34.898438 11.492188 34.976562 11.339844 35.046875 11.1875 L 35.199219 10.859375 L 36.09375 10.859375 C 36.410156 10.859375 36.667969 11.113281 36.667969 11.429688 C 36.667969 11.746094 36.410156 12.003906 36.09375 12.003906 L 35.921875 12.003906 C 35.894531 12.058594 35.867188 12.113281 35.835938 12.171875 C 35.734375 12.367188 35.535156 12.476562 35.328125 12.476562 "/><path style=" stroke:none;fill-rule:nonzero;fill:#165efc;fill-opacity:1;" d="M 35.523438 11.429688 C 35.523438 11.113281 35.777344 10.859375 36.09375 10.859375 C 36.410156 10.859375 36.667969 11.113281 36.667969 11.429688 C 36.667969 11.746094 36.410156 12.003906 36.09375 12.003906 C 35.777344 12.003906 35.523438 11.746094 35.523438 11.429688 "/><path style=" stroke:none;fill-rule:nonzero;fill:#165efc;fill-opacity:1;" d="M 39.375 12.480469 C 39.171875 12.480469 38.972656 12.367188 38.867188 12.171875 C 38.839844 12.113281 38.8125 12.058594 38.78125 12.003906 L 38.609375 12.003906 C 38.292969 12.003906 38.039062 11.746094 38.039062 11.429688 C 38.039062 11.113281 38.292969 10.859375 38.609375 10.859375 L 39.507812 10.859375 L 39.660156 11.1875 C 39.730469 11.339844 39.808594 11.492188 39.882812 11.640625 C 40.027344 11.921875 39.921875 12.269531 39.640625 12.414062 C 39.554688 12.457031 39.464844 12.480469 39.375 12.480469 "/><path style=" stroke:none;fill-rule:nonzero;fill:#165efc;fill-opacity:1;" d="M 38.867188 12.171875 C 38.722656 11.890625 38.832031 11.542969 39.113281 11.398438 C 39.394531 11.253906 39.738281 11.363281 39.882812 11.640625 C 40.03125 11.921875 39.921875 12.269531 39.640625 12.414062 C 39.554688 12.457031 39.464844 12.476562 39.378906 12.476562 C 39.171875 12.476562 38.972656 12.367188 38.867188 12.171875 "/><path style=" stroke:none;fill-rule:nonzero;fill:#165efc;fill-opacity:1;" d="M 41.296875 15.179688 C 41.136719 15.179688 40.992188 15.117188 40.882812 15 C 40.613281 14.714844 40.351562 14.414062 40.113281 14.105469 L 40.105469 14.097656 C 39.910156 13.847656 39.957031 13.488281 40.207031 13.292969 C 40.304688 13.214844 40.429688 13.171875 40.554688 13.171875 C 40.734375 13.171875 40.898438 13.253906 41.007812 13.394531 C 41.230469 13.679688 41.464844 13.953125 41.714844 14.214844 C 41.816406 14.324219 41.871094 14.464844 41.871094 14.613281 C 41.871094 14.769531 41.804688 14.914062 41.691406 15.023438 C 41.582031 15.125 41.445312 15.179688 41.296875 15.179688 Z M 43.882812 17.253906 C 43.78125 17.253906 43.679688 17.226562 43.59375 17.171875 C 43.253906 16.96875 42.917969 16.75 42.597656 16.515625 C 42.34375 16.328125 42.289062 15.96875 42.476562 15.714844 C 42.582031 15.570312 42.753906 15.480469 42.9375 15.480469 C 43.058594 15.480469 43.175781 15.519531 43.273438 15.59375 C 43.5625 15.800781 43.863281 16 44.171875 16.1875 L 44.191406 16.199219 C 44.355469 16.300781 44.457031 16.488281 44.457031 16.683594 C 44.457031 16.785156 44.429688 16.886719 44.375 16.972656 C 44.273438 17.148438 44.085938 17.253906 43.882812 17.253906 Z M 46.9375 18.550781 L 46.9375 18.546875 L 46.9375 18.550781 C 46.886719 18.550781 46.835938 18.542969 46.789062 18.53125 C 46.40625 18.425781 46.023438 18.304688 45.652344 18.164062 C 45.511719 18.109375 45.398438 18.003906 45.335938 17.867188 C 45.269531 17.726562 45.265625 17.570312 45.320312 17.429688 C 45.402344 17.207031 45.617188 17.058594 45.855469 17.058594 C 45.921875 17.058594 45.992188 17.070312 46.054688 17.09375 C 46.394531 17.21875 46.742188 17.332031 47.085938 17.425781 C 47.335938 17.492188 47.507812 17.71875 47.507812 17.976562 C 47.507812 18.027344 47.503906 18.078125 47.488281 18.128906 C 47.421875 18.375 47.195312 18.550781 46.9375 18.550781 Z M 50.097656 18.96875 C 49.746094 18.96875 49.390625 18.953125 49.042969 18.921875 C 48.890625 18.910156 48.753906 18.839844 48.652344 18.722656 C 48.554688 18.609375 48.507812 18.460938 48.519531 18.308594 C 48.542969 17.996094 48.824219 17.757812 49.136719 17.785156 C 49.492188 17.8125 49.859375 17.824219 50.222656 17.824219 L 50.226562 17.824219 C 50.539062 17.824219 50.792969 18.078125 50.796875 18.390625 C 50.796875 18.390625 50.796875 18.394531 50.796875 18.394531 C 50.796875 18.707031 50.542969 18.964844 50.230469 18.964844 C 50.191406 18.96875 50.148438 18.96875 50.097656 18.96875 "/><path style=" stroke:none;fill-rule:nonzero;fill:#165efc;fill-opacity:1;" d="M 53.25 19.054688 C 53.082031 19.054688 52.914062 18.980469 52.800781 18.835938 L 52.695312 18.699219 C 52.632812 18.714844 52.574219 18.726562 52.511719 18.738281 C 52.199219 18.796875 51.902344 18.59375 51.839844 18.285156 C 51.78125 17.972656 51.984375 17.675781 52.292969 17.613281 C 52.460938 17.582031 52.625 17.546875 52.789062 17.507812 L 53.144531 17.421875 L 53.699219 18.128906 C 53.894531 18.375 53.851562 18.734375 53.605469 18.929688 C 53.5 19.011719 53.375 19.054688 53.25 19.054688 "/><path style=" stroke:none;fill-rule:nonzero;fill:#165efc;fill-opacity:1;" d="M 52.800781 18.835938 C 52.605469 18.585938 52.648438 18.226562 52.898438 18.03125 C 53.144531 17.835938 53.503906 17.878906 53.699219 18.128906 C 53.894531 18.375 53.851562 18.734375 53.605469 18.929688 C 53.5 19.011719 53.375 19.054688 53.25 19.054688 C 53.082031 19.054688 52.914062 18.980469 52.800781 18.835938 "/><path style=" stroke:none;fill-rule:nonzero;fill:#165efc;fill-opacity:1;" d="M 54.941406 21.203125 C 54.765625 21.203125 54.601562 21.121094 54.492188 20.984375 L 53.914062 20.25 C 53.71875 20 53.761719 19.640625 54.007812 19.445312 C 54.109375 19.363281 54.234375 19.320312 54.363281 19.320312 C 54.539062 19.320312 54.703125 19.402344 54.8125 19.539062 L 55.390625 20.277344 C 55.46875 20.378906 55.511719 20.5 55.511719 20.628906 C 55.511719 20.804688 55.433594 20.96875 55.292969 21.078125 C 55.191406 21.160156 55.070312 21.203125 54.941406 21.203125 "/><path style=" stroke:none;fill-rule:nonzero;fill:#165efc;fill-opacity:1;" d="M 56.023438 23.421875 C 55.886719 23.421875 55.75 23.375 55.640625 23.273438 C 55.40625 23.0625 55.386719 22.699219 55.597656 22.46875 C 55.609375 22.453125 55.621094 22.441406 55.632812 22.429688 L 55.605469 22.398438 C 55.410156 22.148438 55.453125 21.789062 55.699219 21.59375 C 55.949219 21.398438 56.308594 21.441406 56.503906 21.6875 L 57.136719 22.492188 L 56.796875 22.851562 C 56.683594 22.972656 56.566406 23.101562 56.445312 23.234375 C 56.332031 23.359375 56.179688 23.421875 56.023438 23.421875 "/><path style=" stroke:none;fill-rule:nonzero;fill:#165efc;fill-opacity:1;" d="M 55.636719 23.273438 C 55.402344 23.0625 55.386719 22.699219 55.597656 22.464844 L 55.597656 22.46875 C 55.808594 22.234375 56.171875 22.214844 56.40625 22.425781 C 56.640625 22.636719 56.65625 23 56.445312 23.234375 C 56.332031 23.359375 56.179688 23.421875 56.023438 23.421875 C 55.886719 23.421875 55.75 23.375 55.636719 23.273438 "/><path style=" stroke:none;fill-rule:nonzero;fill:#165efc;fill-opacity:1;" d="M 54.035156 25.890625 C 53.917969 25.890625 53.804688 25.851562 53.707031 25.78125 C 53.554688 25.675781 53.464844 25.5 53.464844 25.316406 C 53.464844 25.195312 53.503906 25.082031 53.574219 24.984375 C 53.785156 24.683594 54.007812 24.386719 54.230469 24.097656 C 54.34375 23.957031 54.507812 23.875 54.683594 23.875 C 54.8125 23.875 54.933594 23.917969 55.035156 23.996094 C 55.285156 24.1875 55.328125 24.546875 55.136719 24.796875 C 54.917969 25.078125 54.707031 25.367188 54.503906 25.648438 C 54.398438 25.800781 54.222656 25.890625 54.035156 25.890625 Z M 52.359375 28.574219 C 52.261719 28.574219 52.167969 28.550781 52.085938 28.503906 C 51.902344 28.402344 51.785156 28.210938 51.785156 28 C 51.785156 27.90625 51.808594 27.8125 51.855469 27.726562 C 52.03125 27.40625 52.214844 27.082031 52.40625 26.765625 C 52.507812 26.59375 52.695312 26.488281 52.894531 26.488281 C 53 26.488281 53.101562 26.515625 53.1875 26.570312 C 53.460938 26.730469 53.546875 27.082031 53.386719 27.355469 C 53.203125 27.65625 53.027344 27.964844 52.863281 28.273438 C 52.761719 28.457031 52.566406 28.574219 52.359375 28.574219 Z M 51.042969 31.449219 C 50.972656 31.449219 50.90625 31.4375 50.839844 31.414062 C 50.621094 31.332031 50.46875 31.117188 50.46875 30.882812 C 50.46875 30.8125 50.480469 30.746094 50.503906 30.683594 L 50.507812 30.679688 C 50.507812 30.671875 50.507812 30.667969 50.511719 30.664062 C 50.636719 30.328125 50.777344 29.984375 50.921875 29.648438 C 51.011719 29.4375 51.21875 29.304688 51.449219 29.304688 C 51.527344 29.304688 51.601562 29.316406 51.671875 29.347656 C 51.964844 29.472656 52.097656 29.8125 51.972656 30.101562 C 51.832031 30.421875 51.699219 30.75 51.578125 31.078125 C 51.492188 31.300781 51.277344 31.449219 51.042969 31.449219 Z M 50.152344 34.488281 C 50.113281 34.488281 50.074219 34.484375 50.035156 34.476562 C 49.769531 34.421875 49.582031 34.183594 49.582031 33.914062 C 49.582031 33.875 49.585938 33.835938 49.59375 33.796875 C 49.667969 33.4375 49.757812 33.074219 49.851562 32.714844 C 49.917969 32.464844 50.144531 32.289062 50.40625 32.289062 C 50.453125 32.289062 50.503906 32.296875 50.550781 32.308594 C 50.855469 32.390625 51.039062 32.707031 50.957031 33.007812 C 50.867188 33.347656 50.785156 33.691406 50.714844 34.035156 C 50.65625 34.296875 50.421875 34.488281 50.152344 34.488281 Z M 49.753906 37.625 L 49.753906 37.621094 L 49.753906 37.625 C 49.746094 37.625 49.738281 37.625 49.730469 37.625 C 49.425781 37.613281 49.183594 37.363281 49.183594 37.058594 C 49.183594 37.050781 49.183594 37.042969 49.183594 37.035156 L 49.183594 37.015625 C 49.1875 36.972656 49.1875 36.925781 49.191406 36.867188 C 49.207031 36.550781 49.230469 36.230469 49.265625 35.917969 C 49.292969 35.625 49.539062 35.402344 49.832031 35.402344 C 49.851562 35.402344 49.871094 35.402344 49.890625 35.40625 C 50.207031 35.4375 50.433594 35.71875 50.402344 36.03125 C 50.371094 36.324219 50.347656 36.628906 50.332031 36.925781 C 50.332031 36.976562 50.328125 37.023438 50.324219 37.070312 L 50.324219 37.082031 C 50.308594 37.386719 50.058594 37.625 49.753906 37.625 Z M 49.871094 40.789062 C 49.582031 40.789062 49.339844 40.570312 49.304688 40.285156 C 49.261719 39.914062 49.226562 39.539062 49.203125 39.171875 C 49.191406 39.019531 49.242188 38.875 49.34375 38.757812 C 49.445312 38.644531 49.585938 38.574219 49.738281 38.566406 C 50.050781 38.546875 50.324219 38.789062 50.34375 39.101562 C 50.367188 39.449219 50.398438 39.804688 50.441406 40.148438 C 50.441406 40.167969 50.445312 40.191406 50.445312 40.214844 C 50.445312 40.503906 50.230469 40.75 49.941406 40.785156 C 49.917969 40.785156 49.894531 40.789062 49.871094 40.789062 Z M 50.5 43.886719 C 50.246094 43.886719 50.019531 43.714844 49.949219 43.472656 C 49.847656 43.117188 49.753906 42.753906 49.671875 42.394531 C 49.636719 42.246094 49.664062 42.09375 49.746094 41.960938 C 49.824219 41.832031 49.953125 41.742188 50.101562 41.710938 C 50.144531 41.699219 50.1875 41.695312 50.230469 41.695312 C 50.5 41.695312 50.726562 41.875 50.785156 42.136719 C 50.863281 42.472656 50.953125 42.8125 51.046875 43.144531 L 51.050781 43.164062 C 51.066406 43.210938 51.074219 43.261719 51.074219 43.316406 C 51.074219 43.570312 50.902344 43.796875 50.65625 43.867188 C 50.605469 43.878906 50.554688 43.886719 50.5 43.886719 Z M 51.59375 46.855469 C 51.371094 46.855469 51.164062 46.722656 51.074219 46.519531 C 50.921875 46.1875 50.78125 45.851562 50.648438 45.515625 L 50.640625 45.496094 C 50.585938 45.355469 50.585938 45.199219 50.648438 45.058594 C 50.707031 44.917969 50.820312 44.8125 50.960938 44.753906 C 51.03125 44.726562 51.101562 44.714844 51.171875 44.714844 C 51.40625 44.714844 51.617188 44.855469 51.703125 45.078125 C 51.832031 45.402344 51.972656 45.726562 52.117188 46.050781 C 52.148438 46.125 52.167969 46.203125 52.167969 46.285156 C 52.167969 46.507812 52.035156 46.714844 51.828125 46.804688 C 51.753906 46.839844 51.675781 46.855469 51.59375 46.855469 Z M 53.082031 49.652344 C 52.878906 49.652344 52.699219 49.550781 52.59375 49.378906 C 52.402344 49.0625 52.214844 48.742188 52.035156 48.421875 C 51.878906 48.148438 51.980469 47.796875 52.253906 47.644531 C 52.339844 47.597656 52.4375 47.570312 52.53125 47.570312 C 52.738281 47.570312 52.933594 47.683594 53.03125 47.863281 C 53.203125 48.167969 53.382812 48.476562 53.570312 48.78125 C 53.625 48.867188 53.652344 48.972656 53.652344 49.074219 C 53.652344 49.277344 53.550781 49.460938 53.378906 49.566406 C 53.289062 49.621094 53.1875 49.652344 53.082031 49.652344 Z M 54.878906 52.253906 C 54.703125 52.253906 54.535156 52.175781 54.425781 52.03125 C 54.199219 51.738281 53.976562 51.4375 53.769531 51.148438 C 53.679688 51.023438 53.644531 50.871094 53.667969 50.722656 C 53.695312 50.570312 53.777344 50.4375 53.902344 50.347656 C 53.996094 50.277344 54.113281 50.242188 54.234375 50.242188 C 54.417969 50.242188 54.589844 50.332031 54.699219 50.480469 C 54.902344 50.765625 55.117188 51.054688 55.332031 51.332031 C 55.410156 51.433594 55.453125 51.554688 55.453125 51.679688 C 55.453125 51.859375 55.371094 52.027344 55.230469 52.136719 C 55.128906 52.214844 55.007812 52.253906 54.878906 52.253906 "/><path style=" stroke:none;fill-rule:nonzero;fill:#165efc;fill-opacity:1;" d="M 37.351562 18.117188 C 35.742188 18.117188 34.433594 19.429688 34.433594 21.039062 C 34.433594 22.648438 35.742188 23.960938 37.351562 23.960938 C 38.964844 23.960938 40.273438 22.648438 40.273438 21.039062 C 40.273438 19.429688 38.964844 18.117188 37.351562 18.117188 Z M 37.351562 25.347656 C 34.976562 25.347656 33.042969 23.414062 33.042969 21.039062 C 33.042969 18.660156 34.976562 16.730469 37.351562 16.730469 C 39.730469 16.730469 41.664062 18.660156 41.664062 21.039062 C 41.664062 23.414062 39.730469 25.347656 37.351562 25.347656 "/></g></svg>