<svg xmlns="http://www.w3.org/2000/svg" xmlns:xlink="http://www.w3.org/1999/xlink" width="100" zoomAndPan="magnify" viewBox="0 0 75 74.999997" height="100" preserveAspectRatio="xMidYMid meet" version="1.2"><defs><clipPath id="e4f50dfa4e"><path d="M 7.5 11.863281 L 67.5 11.863281 L 67.5 62.863281 L 7.5 62.863281 Z M 7.5 11.863281 "/></clipPath></defs><g id="8b62fcd72c"><g clip-rule="nonzero" clip-path="url(#e4f50dfa4e)"><path style=" stroke:none;fill-rule:evenodd;fill:#165efc;fill-opacity:1;" d="M 30.875 11.847656 C 28.148438 12.773438 25.800781 14.535156 23.328125 16.011719 C 20.835938 17.347656 18.96875 19.347656 16.734375 20.332031 C 13.035156 21.570312 10.332031 24.71875 7.550781 27.277344 L 7.851562 27.339844 C 10.5625 24.636719 13.335938 22.316406 16.890625 20.808594 C 19.460938 19.804688 21.605469 18.023438 23.773438 16.359375 C 25.726562 14.878906 27.609375 13.457031 29.730469 12.878906 C 28.09375 14.589844 27.183594 16.652344 25.550781 18.472656 C 22.609375 20.609375 21.429688 23.691406 20.324219 27.054688 C 19.847656 28.765625 19.558594 30.535156 19.257812 32.3125 C 17.820312 33.171875 16.894531 34.402344 15.542969 35.378906 C 13.042969 36.101562 11.492188 38.0625 10.105469 40.148438 L 10.21875 40.226562 C 11.507812 38.078125 13.21875 36.863281 15.699219 36.113281 C 16.8125 35.246094 17.921875 34.359375 19.054688 33.503906 C 18.871094 34.53125 18.671875 35.550781 18.417969 36.574219 C 17.539062 38.523438 16.871094 40.5625 16.160156 42.578125 C 15.316406 44.96875 14.417969 47.351562 13.714844 48.457031 L 13.824219 48.664062 C 14.601562 47.445312 15.855469 45.257812 16.703125 42.863281 C 17.546875 40.472656 18.304688 37.9375 18.878906 36.792969 C 19.574219 33.605469 20.042969 30.882812 20.753906 27.691406 C 21.597656 24.664062 23.070312 21.371094 26.234375 19 L 26.25 18.980469 L 26.265625 18.964844 C 28.308594 16.707031 28.921875 14.621094 31.144531 12.863281 C 34.027344 13.875 35.511719 15.097656 38.421875 16.550781 C 40.601562 17.9375 43.011719 18.589844 44.792969 20.554688 C 46.167969 22.84375 48.613281 24.230469 50.515625 26.054688 C 51.730469 27.945312 53.273438 29.570312 54.980469 30.996094 C 56.578125 32.320312 58.023438 33.585938 58.761719 35.191406 C 57.984375 33.453125 56.902344 31.917969 55.3125 30.597656 C 53.675781 29.234375 51.941406 27.839844 50.753906 25.957031 L 50.722656 25.925781 C 48.992188 24.421875 47.335938 22.957031 46.082031 21.078125 C 47.519531 20.222656 48.097656 19.742188 48.640625 19.238281 C 49.117188 18.789062 49.664062 18.277344 50.707031 17.488281 C 50.796875 19.167969 52.128906 20.164062 53.28125 21.175781 C 54.3125 22.4375 55.300781 23.707031 55.839844 25.257812 L 55.902344 25.164062 C 55.605469 23.683594 54.574219 22.035156 53.691406 20.855469 C 52.542969 20.019531 51.898438 18.957031 51.53125 17.664062 C 52.59375 18.378906 54.015625 18.855469 55.519531 19.316406 C 57.371094 19.882812 59.292969 20.449219 60.667969 21.414062 C 61.390625 23.382812 63.277344 26.121094 64.5625 27.707031 L 64.753906 27.625 C 63.472656 26.046875 61.980469 22.851562 61.335938 21.015625 C 59.78125 19.8125 57.535156 19.398438 55.664062 18.824219 L 50.832031 16.359375 C 49.394531 17.402344 48.84375 18.351562 48.304688 18.855469 C 47.796875 19.332031 47.21875 19.996094 45.90625 20.808594 C 45.757812 20.574219 45.613281 20.34375 45.476562 20.09375 L 45.476562 20.078125 L 45.460938 20.046875 C 43.722656 17.984375 40.941406 17.496094 38.726562 16.121094 L 38.707031 16.121094 L 38.691406 16.105469 C 36.371094 14.6875 33.871094 13.265625 30.875 11.847656 Z M 37.484375 21.859375 L 37.515625 21.890625 C 39.324219 22.496094 40.03125 24.015625 40.742188 25.304688 C 41.367188 26.441406 41.824219 27.742188 42.585938 28.976562 L 42.0625 28.914062 L 28.207031 32.011719 C 26.164062 32.199219 25.027344 31.164062 24.804688 29.3125 L 24.710938 29.261719 C 24.769531 31.515625 26.023438 32.5 28.125 32.519531 L 28.175781 35.109375 L 28.269531 46.027344 C 27.691406 47.128906 26.410156 47.664062 25.378906 48.332031 C 24.425781 49.027344 23.425781 49.6875 23.105469 50.808594 L 23.246094 50.792969 C 23.503906 49.894531 24.59375 49.253906 25.550781 48.554688 C 26.484375 47.871094 28.085938 47.429688 28.554688 46.203125 L 28.96875 46.441406 L 32.464844 45.707031 L 35.261719 44.945312 L 35.53125 44.882812 L 35.929688 44.804688 C 35.980469 44.867188 36.019531 44.945312 36.070312 45.011719 L 35.148438 45.199219 L 36.246094 46.472656 L 37.054688 46.28125 C 37.191406 46.464844 37.324219 46.65625 37.453125 46.835938 L 36.613281 47.074219 L 37.515625 48.21875 L 38.246094 48.011719 L 38.4375 48.332031 L 37.5 48.570312 L 38.246094 49.648438 L 39.027344 49.441406 C 39.039062 49.46875 39.046875 49.496094 39.058594 49.523438 C 39.09375 49.601562 39.121094 49.695312 39.152344 49.777344 L 38.488281 49.917969 L 38.691406 51.332031 L 39.566406 51.160156 C 39.617188 51.460938 39.640625 51.753906 39.613281 52 C 39.542969 52.664062 38.640625 54.207031 37.960938 54.878906 L 37.660156 54.273438 L 35.738281 54.335938 L 36.132812 55.289062 C 35.769531 55.375 35.40625 55.460938 35.039062 55.542969 L 34.671875 54.8125 L 32.925781 54.894531 L 33.339844 55.925781 C 32.890625 56.027344 32.429688 56.128906 31.972656 56.226562 L 31.558594 55.433594 L 29.808594 55.496094 L 30.269531 56.59375 C 29.589844 56.734375 29.246094 56.785156 28.539062 56.925781 L 28.539062 57.339844 C 32.332031 56.566406 35.402344 55.8125 38.757812 55.003906 C 38.472656 55.445312 38.214844 55.808594 38.007812 56.019531 C 34.882812 56.777344 32.03125 57.472656 28.808594 58.023438 L 28.792969 58.277344 C 29.535156 58.128906 30.054688 58.019531 30.796875 57.863281 L 32.035156 60.867188 L 29.828125 61.265625 L 29.792969 61.566406 L 41.679688 59.453125 C 41.386719 59.714844 41.066406 59.96875 40.726562 60.230469 L 29.828125 62.1875 L 29.777344 62.472656 L 32.496094 61.996094 L 32.863281 62.871094 L 35.132812 62.394531 L 34.71875 61.597656 L 35.484375 61.472656 L 35.738281 62.105469 L 38.007812 61.628906 L 37.738281 61.074219 L 38.488281 60.949219 L 38.789062 61.695312 L 41.078125 61.234375 L 40.742188 60.550781 L 43.078125 60.136719 L 43.332031 60.773438 L 45.621094 60.296875 L 45.351562 59.738281 L 48.765625 59.136719 L 48.957031 59.660156 L 51.277344 59.328125 L 51.007812 58.753906 L 52.230469 58.53125 L 52.484375 59.121094 L 54.773438 58.644531 L 54.519531 58.136719 L 55.378906 57.976562 L 55.664062 58.675781 L 57.953125 58.199219 L 57.648438 57.578125 L 58.378906 57.453125 L 58.585938 57.976562 L 60.558594 57.5625 L 60.875 57.5 L 60.652344 57.054688 L 61.414062 56.925781 L 61.703125 57.59375 L 63.988281 57.117188 L 63.6875 56.515625 L 64.417969 56.386719 L 64.6875 57.023438 L 66.738281 56.53125 L 66.515625 56.019531 L 66.929688 55.878906 L 66.722656 55.59375 L 65.132812 55.878906 C 65.425781 55.691406 65.6875 55.460938 65.914062 55.210938 L 66.546875 55.101562 L 66.453125 54.8125 L 66.183594 54.863281 C 66.722656 54.109375 67.039062 53.179688 67.105469 52.207031 C 67.089844 51.207031 66.742188 50.5 66.167969 50.0625 C 66.472656 48.507812 66.335938 46.828125 66.546875 45.25 L 62.273438 42.546875 C 61.945312 41.796875 61.628906 41.195312 61.113281 40.78125 C 60.273438 40.144531 59.1875 39.839844 58.222656 39.734375 C 56.382812 40.378906 54.394531 40.980469 53.421875 42.65625 L 47.941406 44.582031 L 48.117188 44.644531 C 48.269531 45.523438 48.515625 47.445312 48.609375 48.648438 C 48.269531 49.285156 48.054688 50 48.003906 50.746094 C 48.015625 51.445312 48.183594 52.003906 48.480469 52.429688 C 48.320312 52.464844 48.175781 52.507812 48.019531 52.542969 L 47.863281 52.191406 L 46.160156 52.351562 L 46.367188 52.90625 C 46.285156 52.925781 46.199219 52.949219 46.113281 52.96875 C 46.007812 51.929688 45.652344 50.929688 45.097656 49.953125 L 46.003906 49.761719 L 45.144531 48.570312 L 44.285156 48.742188 C 44.152344 48.566406 44.007812 48.382812 43.855469 48.203125 L 44.667969 47.980469 L 43.984375 46.851562 L 42.902344 47.140625 C 42.800781 47.03125 42.695312 46.929688 42.585938 46.820312 L 43.269531 46.628906 L 42.1875 45.453125 L 41.394531 45.691406 C 41.269531 45.582031 41.140625 45.472656 41.011719 45.359375 L 41.679688 45.199219 L 40.679688 43.992188 L 39.695312 44.214844 C 39.640625 44.167969 39.589844 44.117188 39.535156 44.074219 L 40.25 43.929688 L 40.1875 43.867188 L 43.839844 42.707031 L 43.761719 32.378906 L 43.492188 29.074219 C 42.605469 27.792969 41.910156 26.382812 41.1875 25.066406 C 40.445312 23.71875 39.417969 22.503906 37.484375 21.859375 Z M 41.902344 29.105469 L 42.714844 29.167969 C 42.730469 29.191406 42.742188 29.222656 42.761719 29.246094 L 28.9375 32.457031 L 28.730469 32.234375 Z M 43.347656 29.4375 L 43.394531 32.105469 L 29.078125 35.460938 L 29 32.824219 Z M 28.445312 32.425781 L 28.683594 32.632812 L 28.699219 35.140625 L 28.476562 34.917969 Z M 43.414062 32.535156 L 43.554688 42.578125 L 42.078125 43.054688 L 41.300781 43.292969 L 41.1875 33.027344 Z M 40.964844 33.078125 L 41.078125 43.152344 L 40.550781 42.230469 L 40.582031 33.15625 Z M 40.328125 33.21875 L 40.328125 42.007812 L 33.386719 38.128906 L 33.402344 34.730469 Z M 39.441406 33.808594 L 39.375 36.0625 L 37.789062 35.839844 L 37.835938 34.664062 L 37.707031 34.601562 L 37.644531 35.808594 L 36.070312 35.585938 L 36.070312 34.585938 L 35.929688 34.539062 L 35.929688 35.570312 L 35.578125 35.523438 L 35.578125 35.585938 L 35.945312 35.652344 L 35.945312 36.953125 L 35.101562 36.605469 L 35.054688 36.777344 L 35.945312 37.128906 L 35.960938 38.289062 C 35.433594 38.113281 34.914062 37.925781 34.402344 37.714844 L 34.464844 35.0625 L 34.386719 35 L 34.277344 37.667969 C 34.085938 37.589844 33.90625 37.503906 33.71875 37.414062 L 33.59375 37.511719 C 33.816406 37.625 34.042969 37.714844 34.277344 37.8125 L 34.257812 38.113281 L 34.386719 38.207031 L 34.402344 37.859375 C 34.910156 38.0625 35.433594 38.25 35.960938 38.414062 L 35.960938 38.6875 L 36.085938 38.6875 L 36.085938 38.464844 C 36.550781 38.609375 37.015625 38.742188 37.46875 38.90625 L 37.4375 39.464844 L 37.628906 39.511719 L 37.644531 38.972656 C 37.851562 39.050781 38.0625 39.132812 38.265625 39.226562 L 38.265625 39.128906 C 38.0625 39.039062 37.863281 38.957031 37.660156 38.875 L 37.707031 37.828125 L 38.566406 38.160156 L 38.566406 40.371094 L 38.742188 40.433594 C 38.742188 40.433594 38.703125 38.902344 38.691406 38.226562 L 39.882812 38.6875 L 39.902344 38.558594 L 38.691406 38.066406 C 38.691406 38 38.691406 37.800781 38.691406 37.78125 L 38.566406 37.78125 L 38.566406 38.019531 L 37.707031 37.667969 L 37.789062 35.953125 L 39.375 36.222656 L 39.359375 36.539062 L 39.488281 36.667969 L 39.503906 36.253906 L 39.917969 36.316406 L 39.933594 36.144531 L 39.503906 36.078125 L 39.582031 33.839844 Z M 33.117188 34.792969 L 33.082031 37.859375 L 32.402344 36.84375 L 32.382812 34.953125 Z M 32.128906 35.015625 L 32.230469 45.613281 L 29.351562 46.203125 L 29.144531 35.667969 Z M 28.539062 35.300781 L 28.953125 35.714844 L 28.96875 46.105469 L 28.476562 45.882812 Z M 36.070312 35.667969 L 37.628906 35.9375 L 37.550781 37.605469 L 36.085938 37 Z M 36.085938 37.175781 L 37.53125 37.75 L 37.46875 38.796875 C 37.015625 38.625 36.546875 38.472656 36.085938 38.320312 Z M 32.402344 37.207031 L 33.082031 38.273438 L 40.328125 42.230469 L 40.328125 42.261719 L 40.996094 43.40625 L 40.042969 43.722656 L 39.21875 42.914062 L 38.390625 43.117188 L 38.136719 42.914062 L 38.820312 42.769531 L 37.660156 41.847656 L 37.007812 41.992188 C 36.925781 41.921875 36.851562 41.851562 36.769531 41.785156 L 37.4375 41.640625 L 36.390625 40.640625 L 35.640625 40.863281 L 35.484375 40.734375 L 36.039062 40.5625 L 35.070312 39.796875 L 34.515625 39.910156 C 34.382812 39.792969 34.246094 39.6875 34.117188 39.574219 L 34.386719 39.496094 L 33.816406 38.828125 L 33.433594 38.957031 L 33.148438 38.6875 L 33.179688 38.667969 L 33.355469 38.605469 L 32.957031 38.273438 L 32.75 38.304688 C 32.632812 38.1875 32.507812 38.070312 32.402344 37.953125 Z M 32.417969 38.160156 C 35.484375 41.367188 41.570312 45.40625 44.128906 48.855469 C 45.105469 50.179688 45.703125 51.609375 45.828125 53.035156 C 45.589844 53.089844 45.347656 53.152344 45.113281 53.207031 C 45.0625 51.640625 44.511719 50.167969 43.445312 48.726562 C 40.796875 45.15625 35.445312 41.589844 32.449219 38.449219 L 32.433594 38.429688 L 32.417969 38.414062 Z M 32.925781 38.429688 L 33.132812 38.527344 L 33.019531 38.574219 C 32.976562 38.53125 32.9375 38.488281 32.894531 38.449219 Z M 32.417969 38.652344 L 32.574219 38.8125 L 32.417969 38.90625 Z M 32.640625 38.875 C 32.726562 38.964844 32.816406 39.054688 32.910156 39.144531 L 32.574219 39.257812 C 32.527344 39.15625 32.472656 39.050781 32.433594 38.957031 Z M 33.765625 38.957031 L 34.210938 39.417969 L 34.003906 39.464844 C 33.847656 39.324219 33.679688 39.1875 33.527344 39.050781 Z M 33.019531 39.257812 C 33.140625 39.375 33.261719 39.488281 33.386719 39.605469 L 32.84375 39.734375 C 32.78125 39.625 32.710938 39.523438 32.65625 39.417969 Z M 32.417969 39.402344 C 33.132812 40.988281 34.78125 42.683594 36.152344 44.359375 C 37.589844 46.121094 39.097656 47.992188 39.820312 49.601562 C 40.183594 50.40625 40.402344 51.164062 40.328125 51.859375 C 40.285156 52.285156 39.644531 53.574219 38.996094 54.640625 C 38.804688 54.683594 38.609375 54.722656 38.421875 54.765625 C 39.097656 53.992188 39.777344 52.710938 39.851562 52 C 39.941406 51.183594 39.730469 50.332031 39.34375 49.476562 C 38.574219 47.761719 37.097656 45.992188 35.65625 44.230469 C 34.367188 42.65625 33.097656 41.097656 32.417969 39.6875 Z M 33.511719 39.71875 C 33.632812 39.828125 33.757812 39.941406 33.878906 40.050781 L 33.132812 40.210938 C 33.054688 40.097656 32.992188 39.988281 32.925781 39.878906 Z M 35.023438 39.941406 L 35.785156 40.511719 L 35.355469 40.625 C 35.109375 40.417969 34.878906 40.222656 34.640625 40.019531 Z M 32.464844 40.003906 C 32.515625 40.113281 32.582031 40.214844 32.640625 40.324219 L 32.464844 40.355469 L 32.910156 41.53125 L 33.289062 41.402344 C 33.324219 41.453125 33.335938 41.511719 33.371094 41.5625 L 32.941406 41.6875 L 33.527344 42.53125 L 34.019531 42.417969 C 34.074219 42.492188 34.125 42.570312 34.179688 42.640625 L 33.511719 42.785156 L 34.355469 43.691406 L 34.925781 43.578125 C 35.007812 43.679688 35.082031 43.78125 35.164062 43.882812 L 34.308594 44.089844 L 35.117188 44.820312 L 32.464844 45.5625 L 32.417969 40.019531 Z M 58.394531 40.117188 C 59.394531 40.398438 60.390625 40.691406 60.921875 41.117188 C 61.511719 41.585938 62.007812 42.167969 62.449219 43.230469 C 62.613281 43.472656 62.804688 43.664062 63.019531 43.851562 L 64.386719 44.882812 L 54.3125 47.855469 L 54.25 47.804688 L 54.328125 47.804688 C 54.730469 47.34375 54.957031 46.640625 55.171875 45.914062 C 55.382812 45.191406 55.445312 44.28125 55.632812 43.832031 C 55.519531 42.933594 56.117188 42.394531 56.539062 41.640625 C 56.855469 41.144531 57.355469 40.714844 58.191406 40.226562 C 58.753906 40.875 58.773438 41.132812 58.652344 41.878906 C 58.679688 42.324219 58.898438 42.738281 59.078125 43.136719 L 59.238281 43.136719 C 59.082031 42.757812 58.988281 42.328125 58.871094 41.941406 C 59.066406 41.179688 58.832031 40.605469 58.394531 40.117188 Z M 33.988281 40.164062 C 34.230469 40.382812 34.46875 40.609375 34.71875 40.832031 L 33.765625 41.085938 C 33.574219 40.832031 33.394531 40.585938 33.226562 40.339844 Z M 57.839844 40.226562 C 57.355469 40.523438 56.484375 40.929688 56.109375 41.355469 C 55.699219 41.996094 55.507812 42.757812 55.28125 43.800781 C 55.042969 44.445312 54.875 45.113281 54.695312 45.773438 C 54.5 46.4375 54.414062 47.355469 54.167969 47.742188 L 50.484375 44.976562 C 51.59375 44.621094 52.476562 43.898438 53.46875 43.324219 C 54.308594 41.488281 56.027344 40.636719 57.839844 40.226562 Z M 32.71875 40.464844 C 32.863281 40.726562 33.011719 40.984375 33.179688 41.242188 L 32.988281 41.308594 L 32.621094 40.480469 Z M 36.324219 40.78125 L 37.136719 41.5625 L 36.628906 41.671875 C 36.339844 41.4375 36.046875 41.203125 35.769531 40.972656 Z M 34.832031 40.925781 C 34.882812 40.972656 34.921875 41.023438 34.976562 41.070312 L 33.972656 41.371094 L 33.863281 41.226562 Z M 35.117188 41.195312 C 35.363281 41.410156 35.628906 41.628906 35.878906 41.847656 L 34.578125 42.117188 C 34.414062 41.917969 34.242188 41.726562 34.085938 41.53125 Z M 33.496094 41.71875 C 33.628906 41.90625 33.769531 42.089844 33.910156 42.277344 L 33.609375 42.339844 L 33.195312 41.816406 Z M 36.023438 41.957031 C 36.101562 42.027344 36.183594 42.097656 36.261719 42.164062 L 34.878906 42.46875 L 34.703125 42.261719 Z M 37.644531 42.023438 L 38.4375 42.65625 L 37.945312 42.753906 C 37.6875 42.542969 37.441406 42.34375 37.183594 42.132812 Z M 36.421875 42.308594 C 36.660156 42.511719 36.894531 42.707031 37.136719 42.914062 L 35.515625 43.246094 C 35.339844 43.039062 35.167969 42.835938 34.992188 42.625 Z M 34.292969 42.769531 C 34.449219 42.972656 34.601562 43.183594 34.769531 43.390625 L 34.402344 43.46875 L 33.878906 42.863281 Z M 62.480469 43.023438 L 66.023438 45.105469 L 54.152344 48.792969 L 48.71875 44.707031 L 53.199219 43.070312 C 53.1875 43.097656 53.164062 43.121094 53.152344 43.152344 C 52.40625 43.609375 51.679688 43.996094 50.945312 44.40625 L 49.753906 44.851562 L 54.265625 48.15625 L 64.976562 44.960938 L 64.578125 44.738281 C 63.957031 44.191406 63.136719 43.902344 62.589844 43.277344 C 62.554688 43.1875 62.515625 43.109375 62.480469 43.023438 Z M 39.152344 43.039062 L 39.835938 43.851562 L 39.359375 43.945312 C 39.074219 43.703125 38.792969 43.453125 38.503906 43.214844 Z M 37.328125 43.070312 L 37.597656 43.308594 L 35.914062 43.707031 L 35.675781 43.421875 Z M 37.707031 43.40625 C 37.980469 43.640625 38.246094 43.867188 38.519531 44.105469 L 36.546875 44.46875 C 36.484375 44.394531 36.417969 44.324219 36.355469 44.246094 C 36.246094 44.109375 36.125 43.957031 36.007812 43.816406 Z M 35.261719 43.992188 C 35.367188 44.121094 35.46875 44.242188 35.578125 44.375 L 35.769531 44.613281 L 35.324219 44.707031 L 34.625 44.152344 Z M 38.675781 44.246094 L 38.835938 44.390625 L 36.832031 44.820312 C 36.789062 44.765625 36.734375 44.714844 36.691406 44.660156 Z M 40.488281 44.277344 L 41.316406 45.167969 L 40.886719 45.25 C 40.566406 44.964844 40.25 44.6875 39.917969 44.40625 Z M 39.058594 44.582031 C 39.367188 44.855469 39.664062 45.132812 39.964844 45.40625 L 37.660156 45.835938 C 37.4375 45.5625 37.222656 45.285156 36.992188 45.011719 Z M 48.320312 44.804688 L 53.929688 49.03125 L 53.929688 49.046875 L 53.964844 52.429688 C 53.609375 52.886719 53.351562 53.421875 53.183594 53.988281 C 51.652344 53.347656 50.382812 52.242188 49.515625 50.90625 C 48.789062 48.714844 48.609375 46.804688 48.320312 44.804688 Z M 36.214844 45.183594 C 36.433594 45.460938 36.644531 45.734375 36.851562 46.011719 L 36.308594 46.203125 L 35.5 45.328125 Z M 66.214844 45.359375 C 65.957031 46.851562 66.105469 48.402344 65.878906 49.871094 C 65.402344 49.617188 64.816406 49.5 64.132812 49.539062 C 62.417969 50.058594 61.4375 51.597656 61.207031 53.289062 C 60.433594 53.4375 59.742188 53.535156 58.984375 53.621094 L 58.890625 53.449219 C 58.75 51.753906 57.597656 50.96875 55.933594 51.0625 C 55.25 51.269531 54.683594 51.652344 54.234375 52.128906 L 54.28125 49.046875 Z M 40.140625 45.566406 C 40.269531 45.6875 40.40625 45.808594 40.535156 45.929688 L 38.265625 46.597656 C 38.132812 46.429688 38.003906 46.257812 37.867188 46.089844 Z M 42.0625 45.742188 L 42.839844 46.535156 L 42.410156 46.644531 C 42.15625 46.398438 41.886719 46.148438 41.617188 45.898438 Z M 40.726562 46.121094 C 40.992188 46.378906 41.257812 46.628906 41.503906 46.886719 L 38.980469 47.550781 C 38.796875 47.292969 38.605469 47.035156 38.40625 46.773438 Z M 37.582031 47.011719 C 37.761719 47.277344 37.941406 47.53125 38.105469 47.789062 L 37.550781 47.933594 L 36.976562 47.1875 Z M 41.679688 47.074219 C 41.777344 47.179688 41.886719 47.273438 41.980469 47.378906 L 39.34375 48.078125 C 39.28125 47.976562 39.207031 47.875 39.136719 47.773438 Z M 43.871094 47.140625 L 44.300781 47.804688 L 43.683594 47.980469 C 43.496094 47.765625 43.300781 47.550781 43.09375 47.328125 Z M 42.171875 47.582031 C 42.367188 47.800781 42.550781 48.003906 42.730469 48.21875 L 39.851562 48.980469 C 39.730469 48.746094 39.601562 48.503906 39.457031 48.265625 Z M 42.902344 48.441406 C 43.011719 48.578125 43.121094 48.71875 43.222656 48.855469 C 43.242188 48.882812 43.265625 48.90625 43.285156 48.933594 L 40.140625 49.585938 C 40.109375 49.523438 40.085938 49.457031 40.058594 49.394531 C 40.03125 49.332031 39.996094 49.269531 39.964844 49.203125 Z M 38.535156 48.503906 C 38.671875 48.75 38.800781 48.996094 38.914062 49.238281 L 38.421875 49.363281 L 37.867188 48.679688 Z M 45.113281 48.824219 L 45.542969 49.570312 L 44.9375 49.699219 C 44.785156 49.445312 44.621094 49.199219 44.445312 48.949219 Z M 48.703125 49.046875 C 48.847656 49.6875 49.015625 50.347656 49.242188 51.03125 C 49.738281 51.878906 50.359375 52.527344 51.070312 53.066406 C 51.039062 53.082031 51.007812 53.097656 50.976562 53.113281 C 49.34375 53.355469 48.457031 52.097656 48.257812 50.683594 C 48.289062 50.101562 48.457031 49.550781 48.703125 49.046875 Z M 43.429688 49.15625 C 43.601562 49.410156 43.765625 49.664062 43.90625 49.917969 L 40.535156 50.652344 C 40.457031 50.371094 40.347656 50.085938 40.234375 49.808594 Z M 64.355469 49.777344 C 65.808594 49.730469 66.691406 51.019531 66.882812 52.351562 C 66.800781 54.03125 65.644531 55.378906 64.132812 56.039062 C 62.503906 56.28125 61.613281 55.019531 61.414062 53.605469 C 61.496094 51.9375 62.570312 50.464844 64.070312 49.808594 C 64.171875 49.792969 64.257812 49.78125 64.355469 49.777344 Z M 39.25 50 C 39.355469 50.28125 39.453125 50.570312 39.519531 50.855469 L 38.835938 51 L 38.726562 50.109375 Z M 44.03125 50.191406 C 44.53125 51.191406 44.816406 52.226562 44.859375 53.257812 L 42.441406 53.828125 L 42.203125 53.335938 L 40.28125 53.398438 L 40.648438 54.242188 C 40.226562 54.339844 39.789062 54.445312 39.375 54.542969 C 40.027344 53.582031 40.644531 52.484375 40.695312 52 C 40.730469 51.65625 40.6875 51.292969 40.601562 50.921875 Z M 64.449219 50.191406 C 63.765625 50.230469 63.1875 50.746094 62.558594 51.445312 C 61.902344 52.921875 61.65625 53.878906 62.527344 55.132812 C 63.914062 56.15625 64.765625 55.535156 65.769531 54.433594 C 66.421875 53.015625 66.703125 51.988281 65.832031 50.714844 C 65.3125 50.328125 64.863281 50.167969 64.449219 50.191406 Z M 64.402344 50.476562 C 64.769531 50.457031 65.15625 50.5625 65.5625 50.808594 C 66.5 51.894531 66.179688 53.167969 65.5625 54.320312 C 64.804688 55.308594 63.84375 55.667969 62.765625 55.003906 C 61.832031 53.917969 62.148438 52.644531 62.765625 51.492188 C 63.238281 50.871094 63.792969 50.507812 64.402344 50.476562 Z M 44.046875 50.875 L 40.949219 51.589844 L 40.804688 52.875 L 44.589844 52.304688 Z M 43.96875 51.128906 L 44.269531 52.082031 L 41.058594 52.574219 L 41.140625 51.761719 Z M 56.15625 51.300781 C 57.609375 51.257812 58.492188 52.546875 58.683594 53.875 C 58.605469 55.507812 57.507812 56.820312 56.058594 57.5 L 55.550781 57.59375 C 54.683594 57.597656 54.066406 57.140625 53.675781 56.480469 C 53.597656 56.351562 53.53125 56.214844 53.46875 56.070312 C 53.351562 55.777344 53.261719 55.457031 53.214844 55.132812 C 53.296875 53.464844 54.371094 51.988281 55.871094 51.332031 C 55.972656 51.320312 56.058594 51.304688 56.15625 51.300781 Z M 56.25 51.714844 C 55.566406 51.753906 54.988281 52.273438 54.359375 52.96875 C 53.703125 54.445312 53.457031 55.40625 54.328125 56.65625 C 55.714844 57.683594 56.566406 57.0625 57.570312 55.957031 C 58.222656 54.539062 58.503906 53.511719 57.632812 52.238281 C 57.113281 51.851562 56.664062 51.691406 56.25 51.714844 Z M 64.257812 51.8125 C 63.957031 51.84375 63.707031 52.0625 63.417969 52.351562 C 63.039062 52.921875 63.148438 53.328125 63.417969 53.875 C 64.039062 54.246094 64.414062 53.96875 64.878906 53.511719 C 65.257812 52.9375 65.148438 52.535156 64.878906 51.984375 C 64.648438 51.847656 64.441406 51.792969 64.257812 51.8125 Z M 64.179688 51.9375 C 64.394531 51.945312 64.601562 52.0625 64.703125 52.097656 C 64.960938 52.449219 64.753906 53.035156 64.640625 53.398438 C 64.457031 53.769531 63.910156 53.75 63.6875 53.78125 C 63.433594 53.429688 63.511719 52.761719 63.625 52.398438 C 63.746094 52.027344 63.964844 51.933594 64.179688 51.9375 Z M 56.203125 52 C 56.570312 51.984375 56.957031 52.089844 57.363281 52.335938 C 58.300781 53.417969 57.980469 54.695312 57.363281 55.847656 C 56.605469 56.835938 55.644531 57.195312 54.566406 56.53125 C 53.632812 55.445312 53.949219 54.171875 54.566406 53.019531 C 55.039062 52.398438 55.59375 52.03125 56.203125 52 Z M 47.511719 52.445312 L 47.605469 52.636719 C 47.238281 52.722656 46.859375 52.792969 46.496094 52.875 L 46.382812 52.605469 Z M 48.625 52.605469 C 48.90625 52.933594 49.273438 53.160156 49.71875 53.289062 C 48.511719 53.53125 47.308594 53.792969 46.113281 54.066406 C 46.132812 53.777344 46.148438 53.492188 46.128906 53.207031 C 46.957031 53.007812 47.753906 52.8125 48.625 52.605469 Z M 45.84375 53.273438 C 45.859375 53.5625 45.851562 53.859375 45.828125 54.144531 C 45.574219 54.207031 45.320312 54.261719 45.066406 54.320312 C 45.101562 54.027344 45.128906 53.734375 45.128906 53.449219 Z M 51.355469 53.273438 C 51.535156 53.394531 51.710938 53.511719 51.898438 53.621094 L 53.058594 55.957031 C 53.160156 56.40625 53.339844 56.78125 53.597656 57.070312 L 52.152344 57.324219 L 50.417969 53.414062 C 50.597656 53.425781 50.78125 53.425781 50.976562 53.414062 C 51.109375 53.375 51.234375 53.320312 51.355469 53.273438 Z M 56.058594 53.335938 C 55.757812 53.367188 55.507812 53.589844 55.21875 53.875 C 54.839844 54.449219 54.949219 54.851562 55.21875 55.402344 C 55.839844 55.773438 56.214844 55.496094 56.679688 55.035156 C 57.058594 54.464844 56.949219 54.058594 56.679688 53.511719 C 56.449219 53.371094 56.242188 53.316406 56.058594 53.335938 Z M 55.980469 53.464844 C 56.195312 53.46875 56.402344 53.585938 56.503906 53.621094 C 56.761719 53.972656 56.554688 54.5625 56.441406 54.925781 C 56.257812 55.296875 55.710938 55.273438 55.488281 55.304688 C 55.234375 54.953125 55.3125 54.289062 55.425781 53.925781 C 55.546875 53.554688 55.765625 53.457031 55.980469 53.464844 Z M 50.148438 53.480469 L 51.769531 57.386719 L 50.46875 57.625 L 48.640625 53.828125 C 49.140625 53.710938 49.644531 53.597656 50.148438 53.480469 Z M 44.875 53.511719 C 44.875 53.789062 44.859375 54.078125 44.828125 54.351562 C 44.824219 54.363281 44.828125 54.375 44.828125 54.386719 C 42.636719 54.898438 40.457031 55.429688 38.28125 55.957031 C 38.519531 55.714844 38.8125 55.34375 39.121094 54.910156 C 41 54.457031 42.90625 53.988281 44.875 53.511719 Z M 42.078125 53.589844 L 42.203125 53.875 C 41.804688 53.96875 41.40625 54.070312 41.011719 54.164062 L 40.820312 53.703125 Z M 61.160156 53.667969 C 61.171875 54.523438 61.429688 55.164062 61.859375 55.609375 L 61.320312 55.703125 L 60.527344 53.78125 Z M 60.160156 53.84375 L 60.953125 55.765625 L 60.097656 55.925781 L 59.160156 53.988281 C 59.5 53.949219 59.835938 53.898438 60.160156 53.84375 Z M 52.34375 53.859375 C 52.597656 53.996094 52.851562 54.125 53.121094 54.242188 C 53.050781 54.523438 53.003906 54.808594 52.976562 55.101562 Z M 48.226562 53.925781 L 50.070312 57.691406 L 48.625 57.945312 L 47.050781 54.210938 C 47.441406 54.117188 47.835938 54.015625 48.226562 53.925781 Z M 58.855469 54.097656 L 59.761719 55.988281 L 58.175781 56.261719 L 58.125 56.148438 C 58.507812 55.542969 58.757812 54.839844 58.855469 54.097656 Z M 46.890625 54.242188 L 48.320312 58.007812 C 47.054688 58.25 45.792969 58.4375 44.808594 58.613281 L 44.539062 58.085938 C 45.855469 56.796875 45.894531 56.054688 46.097656 54.433594 C 46.363281 54.371094 46.628906 54.304688 46.890625 54.242188 Z M 45.796875 54.496094 C 45.636719 55.828125 45.574219 56.617188 44.445312 57.878906 L 44.046875 57.085938 C 44.546875 56.285156 44.859375 55.488281 45 54.6875 C 45.265625 54.625 45.53125 54.558594 45.796875 54.496094 Z M 37.582031 54.605469 L 37.738281 54.925781 L 36.5 55.210938 L 36.277344 54.6875 Z M 44.761719 54.75 C 44.628906 55.429688 44.355469 56.117188 43.921875 56.832031 L 43.09375 55.132812 C 43.648438 55 44.207031 54.882812 44.761719 54.75 Z M 33.257812 55.035156 L 34.402344 55.050781 L 34.6875 55.625 C 34.324219 55.707031 33.976562 55.796875 33.609375 55.878906 Z M 42.824219 55.195312 L 43.730469 57.117188 C 43.449219 57.542969 43.117188 57.980469 42.714844 58.421875 L 41.554688 55.496094 C 41.976562 55.398438 42.398438 55.292969 42.824219 55.195312 Z M 41.1875 55.578125 L 42.476562 58.675781 C 42.335938 58.816406 42.195312 58.960938 42.046875 59.105469 L 40.1875 59.4375 L 38.597656 56.179688 C 39.460938 55.984375 40.324219 55.777344 41.1875 55.578125 Z M 31.382812 55.640625 L 31.703125 56.292969 C 31.347656 56.367188 30.996094 56.453125 30.636719 56.53125 L 30.289062 55.703125 Z M 62.144531 55.863281 C 62.402344 56.046875 62.699219 56.183594 63.035156 56.261719 L 57.078125 57.324219 C 57.351562 57.128906 57.582031 56.894531 57.792969 56.640625 Z M 40.710938 56.039062 L 39.296875 56.402344 L 40.457031 59.152344 L 41.839844 58.867188 Z M 66.152344 56.085938 L 66.292969 56.417969 L 64.910156 56.703125 L 64.769531 56.339844 Z M 38.34375 56.226562 L 39.882812 59.484375 L 38.359375 59.753906 L 37.039062 56.53125 C 37.476562 56.433594 37.910156 56.328125 38.34375 56.226562 Z M 40.488281 56.417969 L 41.457031 58.675781 L 40.679688 58.929688 L 39.644531 56.59375 Z M 63.402344 56.578125 L 63.558594 56.847656 L 61.972656 57.230469 L 61.8125 56.847656 Z M 36.691406 56.609375 L 38.007812 59.820312 L 37.199219 59.960938 L 35.65625 56.832031 Z M 46.78125 56.832031 L 45.367188 57.199219 L 45.953125 58.292969 L 47.335938 58.007812 Z M 35.324219 56.910156 L 36.867188 60.027344 L 35.417969 60.28125 L 34.132812 57.164062 Z M 60.335938 57.117188 L 60.398438 57.261719 L 58.730469 57.609375 L 58.652344 57.402344 Z M 46.558594 57.214844 L 46.957031 57.816406 L 46.175781 58.070312 L 45.714844 57.386719 Z M 33.832031 57.230469 L 35.039062 60.34375 L 34.148438 60.503906 L 32.605469 57.484375 Z M 43.855469 57.386719 L 44.222656 58.136719 C 44.007812 58.359375 43.761719 58.59375 43.476562 58.851562 L 42.933594 58.945312 L 42.808594 58.660156 C 43.214844 58.230469 43.570312 57.808594 43.855469 57.386719 Z M 53.582031 57.402344 L 54.457031 57.847656 L 41.265625 60.105469 L 42.253906 59.3125 Z M 32.335938 57.546875 L 33.832031 60.550781 L 32.433594 60.804688 L 31.160156 57.785156 Z M 57.363281 57.625 L 57.523438 57.960938 L 55.804688 58.355469 L 55.632812 57.945312 Z M 54.167969 58.199219 L 54.296875 58.453125 L 52.804688 58.800781 L 52.644531 58.453125 Z M 44.300781 58.324219 L 44.476562 58.675781 L 43.761719 58.800781 C 43.964844 58.628906 44.136719 58.480469 44.300781 58.324219 Z M 50.609375 58.816406 L 50.753906 59.105469 L 49.210938 59.359375 L 49.101562 59.089844 Z M 42.570312 58.914062 L 42.601562 59.007812 L 42.441406 59.039062 Z M 45 59.804688 L 45.144531 60.105469 L 43.554688 60.503906 L 43.394531 60.089844 Z M 40.425781 60.613281 L 40.601562 60.980469 L 39.011719 61.328125 L 38.835938 60.882812 Z M 37.421875 61.136719 L 37.550781 61.390625 L 36.039062 61.789062 L 35.878906 61.40625 Z M 34.386719 61.664062 L 34.625 62.15625 L 33.164062 62.550781 L 32.894531 61.933594 Z M 34.386719 61.664062 "/></g></g></svg>