<svg xmlns="http://www.w3.org/2000/svg" xmlns:xlink="http://www.w3.org/1999/xlink" width="100" zoomAndPan="magnify" viewBox="0 0 75 74.999997" height="100" preserveAspectRatio="xMidYMid meet" version="1.2"><defs><clipPath id="3f71437830"><path d="M 7.605469 7.5 L 67 7.5 L 67 63.75 L 7.605469 63.75 Z M 7.605469 7.5 "/></clipPath></defs><g id="a508b0db9e"><g clip-rule="nonzero" clip-path="url(#3f71437830)"><path style=" stroke:none;fill-rule:evenodd;fill:#165efc;fill-opacity:1;" d="M 55.125 11.523438 C 55.410156 11.722656 55.484375 12.113281 55.289062 12.398438 C 55.09375 12.6875 54.699219 12.761719 54.414062 12.566406 C 52.675781 11.378906 50.59375 10.90625 48.582031 11.125 C 46.597656 11.34375 44.683594 12.234375 43.222656 13.789062 L 36.421875 21.035156 C 36.183594 21.289062 35.785156 21.300781 35.535156 21.0625 C 35.28125 20.824219 35.269531 20.425781 35.507812 20.171875 L 42.308594 12.925781 C 43.980469 11.144531 46.175781 10.121094 48.445312 9.875 C 50.75 9.621094 53.128906 10.167969 55.125 11.523438 Z M 31.171875 49.941406 C 31.15625 49.9375 31.140625 49.9375 31.125 49.933594 C 31.109375 49.933594 31.09375 49.929688 31.078125 49.925781 C 31.046875 49.921875 31.011719 49.921875 30.976562 49.921875 C 30.699219 49.921875 30.445312 50.035156 30.265625 50.214844 C 30.082031 50.398438 29.96875 50.652344 29.96875 50.929688 C 29.96875 51.210938 30.082031 51.460938 30.265625 51.644531 C 30.445312 51.828125 30.699219 51.941406 30.976562 51.941406 C 31.257812 51.941406 31.507812 51.828125 31.691406 51.644531 C 31.875 51.460938 31.988281 51.210938 31.988281 50.929688 C 31.988281 50.652344 31.875 50.398438 31.691406 50.214844 C 31.550781 50.078125 31.371094 49.976562 31.171875 49.941406 Z M 23.210938 52.761719 C 23.199219 52.753906 23.1875 52.742188 23.179688 52.734375 C 23.167969 52.722656 23.15625 52.710938 23.148438 52.703125 C 22.96875 52.550781 22.738281 52.457031 22.488281 52.457031 C 22.210938 52.457031 21.957031 52.570312 21.773438 52.753906 C 21.59375 52.9375 21.480469 53.1875 21.480469 53.46875 C 21.480469 53.746094 21.59375 54 21.773438 54.179688 C 21.957031 54.363281 22.210938 54.476562 22.488281 54.476562 C 22.769531 54.476562 23.019531 54.363281 23.203125 54.179688 C 23.386719 54 23.5 53.746094 23.5 53.46875 C 23.5 53.191406 23.390625 52.945312 23.210938 52.761719 Z M 20.605469 40.179688 C 20.601562 40.167969 20.601562 40.15625 20.597656 40.144531 C 20.5625 39.933594 20.460938 39.730469 20.292969 39.574219 C 20.089844 39.382812 19.828125 39.292969 19.574219 39.300781 C 19.316406 39.308594 19.0625 39.414062 18.871094 39.617188 C 18.679688 39.820312 18.589844 40.082031 18.597656 40.339844 C 18.605469 40.597656 18.710938 40.851562 18.914062 41.042969 C 19.117188 41.234375 19.378906 41.324219 19.636719 41.316406 C 19.894531 41.304688 20.148438 41.199219 20.339844 40.996094 C 20.53125 40.792969 20.621094 40.53125 20.613281 40.277344 C 20.609375 40.246094 20.609375 40.210938 20.605469 40.179688 Z M 40.957031 38.53125 L 40.992188 38.496094 L 40.988281 38.496094 L 41 38.484375 C 43.933594 35.3125 47.871094 33.617188 51.878906 33.449219 C 52.320312 33.429688 52.757812 33.429688 53.199219 33.449219 L 58.335938 27.976562 C 60.609375 25.558594 61.683594 22.425781 61.585938 19.335938 C 61.488281 16.253906 60.226562 13.210938 57.828125 10.941406 C 57.8125 10.925781 57.796875 10.914062 57.785156 10.898438 C 55.367188 8.636719 52.242188 7.566406 49.15625 7.664062 C 46.074219 7.757812 43.03125 9.019531 40.761719 11.421875 C 40.746094 11.4375 40.734375 11.453125 40.722656 11.464844 L 40.71875 11.464844 L 27.324219 25.734375 Z M 36.925781 50.863281 L 28.539062 59.796875 C 26.265625 62.21875 23.210938 63.492188 20.117188 63.589844 C 17.023438 63.683594 13.894531 62.609375 11.472656 60.339844 C 9.054688 58.066406 7.78125 55.007812 7.683594 51.914062 C 7.585938 48.824219 8.664062 45.691406 10.933594 43.273438 L 24.34375 28.988281 L 29.4375 33.773438 L 27.71875 35.605469 L 24.84375 38.667969 L 22.574219 39.144531 L 21.65625 39.339844 C 21.535156 39.089844 21.371094 38.859375 21.15625 38.65625 C 20.703125 38.230469 20.117188 38.027344 19.535156 38.042969 C 18.953125 38.0625 18.382812 38.300781 17.957031 38.757812 C 17.527344 39.210938 17.324219 39.800781 17.34375 40.378906 C 17.359375 40.960938 17.601562 41.53125 18.054688 41.960938 C 18.511719 42.390625 19.097656 42.589844 19.675781 42.574219 C 20.257812 42.554688 20.832031 42.316406 21.257812 41.859375 C 21.601562 41.496094 21.796875 41.046875 21.855469 40.582031 L 25.289062 39.859375 C 25.410156 39.835938 25.53125 39.773438 25.625 39.671875 L 30.359375 34.632812 L 31.480469 35.6875 L 23.257812 44.445312 C 22.910156 44.269531 22.53125 44.1875 22.152344 44.199219 C 21.574219 44.21875 21 44.457031 20.574219 44.914062 C 20.144531 45.367188 19.941406 45.957031 19.960938 46.535156 C 19.980469 47.117188 20.21875 47.6875 20.675781 48.113281 C 21.128906 48.542969 21.71875 48.746094 22.296875 48.726562 C 22.875 48.710938 23.449219 48.472656 23.878906 48.015625 C 24.304688 47.558594 24.507812 46.972656 24.488281 46.390625 C 24.476562 46.015625 24.371094 45.640625 24.175781 45.308594 L 32.398438 36.550781 L 33.40625 37.496094 L 28.785156 42.421875 C 28.691406 42.519531 28.636719 42.640625 28.617188 42.765625 L 28.617188 42.761719 L 28.144531 46.011719 L 28.054688 46.621094 L 26.519531 48.257812 L 23.523438 51.445312 C 23.214844 51.289062 22.863281 51.199219 22.488281 51.199219 C 21.863281 51.199219 21.292969 51.453125 20.882812 51.863281 C 20.472656 52.273438 20.21875 52.84375 20.21875 53.46875 C 20.21875 54.097656 20.472656 54.664062 20.882812 55.074219 C 21.292969 55.488281 21.863281 55.742188 22.488281 55.742188 C 23.117188 55.742188 23.683594 55.488281 24.097656 55.074219 C 24.507812 54.664062 24.761719 54.097656 24.761719 53.46875 C 24.761719 53.046875 24.644531 52.648438 24.445312 52.308594 L 29.097656 47.351562 C 29.191406 47.257812 29.257812 47.136719 29.277344 46.996094 L 29.738281 43.8125 L 29.835938 43.136719 L 31.542969 41.324219 L 34.324219 38.359375 L 35.96875 39.90625 L 31.347656 44.828125 C 31.253906 44.925781 31.199219 45.046875 31.183594 45.171875 L 30.671875 48.683594 C 30.167969 48.75 29.714844 48.984375 29.371094 49.328125 C 28.960938 49.738281 28.707031 50.304688 28.707031 50.933594 C 28.707031 51.5625 28.960938 52.128906 29.371094 52.539062 C 29.785156 52.953125 30.351562 53.207031 30.976562 53.207031 C 31.605469 53.207031 32.171875 52.953125 32.585938 52.539062 C 32.996094 52.128906 33.25 51.5625 33.25 50.933594 C 33.25 50.308594 32.996094 49.738281 32.585938 49.328125 C 32.394531 49.136719 32.167969 48.976562 31.917969 48.863281 L 32.054688 47.917969 L 32.402344 45.546875 L 35.417969 42.332031 L 36.886719 40.765625 L 38.4375 42.222656 C 37.265625 44.609375 36.738281 47.222656 36.847656 49.808594 C 36.863281 50.160156 36.886719 50.511719 36.925781 50.863281 Z M 63.660156 39.914062 L 44.285156 61.003906 C 46.941406 62.859375 50.070312 63.710938 53.152344 63.582031 C 56.835938 63.425781 60.460938 61.867188 63.15625 58.945312 C 63.171875 58.929688 63.183594 58.914062 63.199219 58.898438 C 65.886719 55.964844 67.132812 52.21875 66.976562 48.53125 C 66.847656 45.449219 65.734375 42.40625 63.660156 39.914062 Z M 41.421875 58.371094 C 39.628906 56.222656 38.558594 53.664062 38.210938 51.019531 C 38.210938 51.007812 38.207031 50.992188 38.207031 50.976562 C 38.15625 50.574219 38.121094 50.164062 38.101562 49.757812 C 37.949219 46.070312 39.195312 42.324219 41.882812 39.386719 C 41.898438 39.375 41.910156 39.355469 41.925781 39.34375 C 44.621094 36.421875 48.246094 34.863281 51.925781 34.707031 C 55.011719 34.578125 58.136719 35.429688 60.796875 37.285156 Z M 22.960938 47.152344 C 23.148438 46.949219 23.242188 46.6875 23.230469 46.429688 C 23.222656 46.175781 23.117188 45.921875 22.914062 45.730469 C 22.710938 45.539062 22.449219 45.449219 22.191406 45.457031 C 21.9375 45.464844 21.679688 45.570312 21.492188 45.773438 C 21.300781 45.976562 21.210938 46.238281 21.21875 46.496094 C 21.226562 46.753906 21.332031 47.007812 21.535156 47.199219 C 21.738281 47.386719 22 47.480469 22.257812 47.472656 C 22.515625 47.464844 22.769531 47.355469 22.960938 47.152344 Z M 58.660156 9.996094 Z M 23.34375 45.269531 L 32.261719 35.773438 Z M 63.167969 37.574219 Z M 39.816406 10.589844 Z M 39.816406 10.589844 "/></g></g></svg>