<svg xmlns="http://www.w3.org/2000/svg" xmlns:xlink="http://www.w3.org/1999/xlink" width="100" zoomAndPan="magnify" viewBox="0 0 75 74.999997" height="100" preserveAspectRatio="xMidYMid meet" version="1.2"><defs><clipPath id="cecc91ed6f"><path d="M 7.5 15.148438 L 67 15.148438 L 67 61 L 7.5 61 Z M 7.5 15.148438 "/></clipPath></defs><g id="3f753a8545"><g clip-rule="nonzero" clip-path="url(#cecc91ed6f)"><path style=" stroke:none;fill-rule:nonzero;fill:#165efc;fill-opacity:1;" d="M 37.421875 47.296875 C 37.207031 47.453125 37.015625 47.585938 36.828125 47.726562 C 31.472656 51.707031 26.121094 55.691406 20.769531 59.675781 C 19 60.992188 17.125 61.191406 15.136719 60.265625 C 13.847656 59.667969 12.785156 58.769531 11.875 57.695312 C 9.847656 55.3125 8.652344 52.546875 8.125 49.480469 C 7.808594 47.664062 7.808594 45.855469 8.253906 44.050781 C 8.652344 42.457031 9.480469 41.136719 10.765625 40.113281 C 10.929688 39.980469 11.128906 39.886719 11.320312 39.792969 C 14.234375 38.328125 17.148438 36.863281 20.058594 35.398438 C 20.308594 35.277344 20.550781 35.144531 20.863281 34.980469 C 20.625 34.792969 20.445312 34.648438 20.261719 34.511719 C 16.542969 31.746094 12.835938 28.960938 9.097656 26.222656 C 8.394531 25.707031 8.058594 25.117188 7.960938 24.265625 C 7.515625 20.390625 9.71875 16.761719 13.359375 15.394531 C 14.007812 15.152344 14.5625 15.167969 15.199219 15.488281 C 22.375 19.121094 29.566406 22.722656 36.746094 26.351562 C 37.242188 26.601562 37.613281 26.59375 38.105469 26.34375 C 45.285156 22.71875 52.476562 19.117188 59.652344 15.484375 C 60.292969 15.164062 60.847656 15.15625 61.492188 15.398438 C 65.261719 16.816406 67.484375 20.667969 66.832031 24.660156 C 66.730469 25.277344 66.4375 25.703125 65.941406 26.070312 C 62.164062 28.863281 58.390625 31.664062 54.628906 34.480469 C 54.441406 34.617188 54.257812 34.765625 53.992188 34.96875 C 54.234375 35.101562 54.425781 35.214844 54.621094 35.3125 C 57.457031 36.738281 60.289062 38.175781 63.132812 39.582031 C 64.589844 40.304688 65.585938 41.425781 66.203125 42.902344 C 66.792969 44.3125 66.996094 45.800781 66.9375 47.3125 C 66.792969 50.929688 65.640625 54.207031 63.457031 57.101562 C 62.59375 58.242188 61.574219 59.214844 60.328125 59.9375 C 59.578125 60.371094 58.785156 60.679688 57.921875 60.792969 C 56.496094 60.980469 55.25 60.542969 54.125 59.707031 C 48.769531 55.726562 43.414062 51.742188 38.0625 47.753906 C 37.855469 47.605469 37.648438 47.460938 37.421875 47.296875 Z M 60.039062 26.191406 C 60.03125 25.886719 60.292969 25.808594 60.46875 25.691406 C 61.984375 24.675781 63.503906 23.671875 65.027344 22.667969 C 65.484375 22.367188 65.507812 22.367188 65.386719 21.84375 C 64.859375 19.535156 63.523438 17.882812 61.378906 16.878906 C 60.902344 16.65625 60.496094 16.640625 59.992188 16.894531 C 51.4375 21.21875 42.875 25.53125 34.304688 29.824219 C 28.039062 32.972656 21.769531 36.125 15.503906 39.273438 C 15.292969 39.378906 15.085938 39.5 14.765625 39.675781 C 16.542969 40.285156 17.839844 41.320312 18.949219 42.601562 C 20.359375 44.230469 21.363281 46.09375 22.035156 48.128906 C 22.917969 50.804688 23.25 53.523438 22.570312 56.304688 C 22.558594 56.355469 22.589844 56.414062 22.609375 56.511719 C 22.808594 56.375 22.988281 56.257812 23.15625 56.132812 C 37.046875 45.796875 50.9375 35.457031 64.824219 25.117188 C 65.054688 24.945312 65.328125 24.71875 65.390625 24.472656 C 65.519531 23.976562 65.632812 23.445312 65.429688 22.855469 C 65.167969 23.011719 64.941406 23.132812 64.730469 23.273438 C 63.355469 24.1875 61.984375 25.109375 60.609375 26.019531 C 60.449219 26.125 60.308594 26.355469 60.039062 26.191406 Z M 18.6875 24.9375 C 19.027344 24.722656 19.210938 24.984375 19.398438 25.109375 C 22.316406 26.957031 25.226562 28.8125 28.136719 30.675781 C 28.332031 30.800781 28.535156 30.917969 28.734375 31.039062 C 31.082031 29.855469 33.410156 28.707031 35.796875 27.476562 C 35.605469 27.363281 35.519531 27.300781 35.425781 27.253906 C 28.492188 23.769531 21.554688 20.28125 14.621094 16.789062 C 14.296875 16.625 14.023438 16.644531 13.710938 16.777344 C 11.460938 17.734375 10.039062 19.394531 9.472656 21.773438 C 9.332031 22.371094 9.347656 22.359375 9.863281 22.699219 C 11.371094 23.6875 12.871094 24.683594 14.367188 25.6875 C 14.546875 25.804688 14.8125 25.882812 14.804688 26.199219 C 14.550781 26.34375 14.40625 26.136719 14.242188 26.027344 C 12.832031 25.089844 11.425781 24.144531 10.011719 23.210938 C 9.828125 23.085938 9.621094 22.992188 9.324219 22.832031 C 9.324219 23.179688 9.324219 23.410156 9.324219 23.636719 C 9.316406 24.347656 9.597656 24.84375 10.203125 25.285156 C 14.046875 28.097656 17.855469 30.957031 21.675781 33.800781 C 21.878906 33.953125 22.089844 34.097656 22.320312 34.265625 L 28.324219 31.242188 C 27.800781 30.894531 27.359375 30.601562 26.914062 30.308594 C 26.445312 30.003906 25.976562 29.703125 25.503906 29.402344 C 25.054688 29.113281 24.601562 28.828125 24.148438 28.539062 C 23.679688 28.238281 23.207031 27.941406 22.738281 27.640625 L 21.378906 26.78125 C 20.910156 26.480469 20.425781 26.199219 19.96875 25.878906 C 19.546875 25.582031 19.023438 25.40625 18.6875 24.9375 Z M 60.019531 39.613281 L 52.707031 35.941406 C 52.273438 36.246094 51.820312 36.476562 51.488281 36.921875 L 52.75 37.523438 L 53.972656 38.101562 C 54.359375 38.285156 54.75 38.46875 55.132812 38.65625 C 55.539062 38.851562 55.957031 39.03125 56.347656 39.25 C 56.714844 39.460938 57.195312 39.519531 57.484375 40.019531 C 57.289062 40.011719 57.160156 40.03125 57.0625 39.992188 C 56.804688 39.882812 56.5625 39.746094 56.308594 39.625 C 54.722656 38.867188 53.136719 38.109375 51.546875 37.355469 C 51.339844 37.257812 51.128906 37.09375 50.890625 37.269531 C 50.082031 37.859375 49.277344 38.460938 48.40625 39.105469 C 49.5 39.792969 50.523438 40.417969 51.527344 41.066406 C 52.519531 41.707031 53.578125 42.25 54.539062 43.023438 C 54.179688 43.257812 54.007812 43.023438 53.828125 42.910156 C 52.113281 41.847656 50.402344 40.78125 48.695312 39.707031 C 48.5 39.585938 48.296875 39.472656 48.082031 39.347656 L 40.425781 45.046875 C 40.664062 45.242188 40.84375 45.394531 41.023438 45.539062 C 44.363281 48.164062 47.703125 50.792969 51.039062 53.417969 C 51.210938 53.554688 51.453125 53.652344 51.480469 53.96875 C 51.152344 54.074219 50.992188 53.824219 50.808594 53.683594 C 47.433594 51.035156 44.058594 48.386719 40.6875 45.730469 C 40.503906 45.585938 40.316406 45.453125 40.105469 45.296875 C 39.835938 45.492188 39.59375 45.667969 39.355469 45.847656 C 39.125 46.019531 38.894531 46.199219 38.617188 46.410156 L 52.300781 56.59375 C 52.257812 56.320312 52.230469 56.175781 52.210938 56.03125 C 52.113281 55.308594 51.949219 54.589844 51.933594 53.867188 C 51.863281 49.714844 53.140625 46.011719 55.75 42.785156 C 56.828125 41.449219 58.136719 40.382812 59.78125 39.785156 C 59.832031 39.761719 59.878906 39.714844 60.019531 39.613281 Z M 21.515625 53.269531 C 21.507812 51.960938 21.296875 50.515625 20.859375 49.089844 C 20.140625 46.738281 19.015625 44.609375 17.253906 42.863281 C 16.421875 42.039062 15.484375 41.375 14.339844 41.042969 C 12.8125 40.601562 11.445312 41.042969 10.5625 42.359375 C 10.183594 42.921875 9.902344 43.566406 9.695312 44.210938 C 9.335938 45.300781 9.265625 46.441406 9.332031 47.582031 C 9.457031 49.839844 10.054688 51.976562 11.085938 53.988281 C 11.800781 55.390625 12.699219 56.667969 13.878906 57.726562 C 14.6875 58.453125 15.574219 59.046875 16.644531 59.304688 C 18.050781 59.640625 19.257812 59.289062 20.136719 58.125 C 20.503906 57.636719 20.789062 57.0625 21.011719 56.492188 C 21.414062 55.460938 21.515625 54.371094 21.515625 53.269531 Z M 53.324219 52.976562 C 53.339844 54.699219 53.523438 56.113281 54.222656 57.414062 C 55.230469 59.28125 56.949219 59.886719 58.90625 59.074219 C 59.789062 58.707031 60.546875 58.144531 61.226562 57.484375 C 62.367188 56.378906 63.242188 55.089844 63.917969 53.664062 C 65.132812 51.09375 65.761719 48.410156 65.429688 45.554688 C 65.292969 44.347656 64.953125 43.199219 64.191406 42.21875 C 63.371094 41.167969 62.292969 40.671875 60.96875 40.957031 C 60.332031 41.097656 59.703125 41.359375 59.128906 41.671875 C 58.175781 42.1875 57.410156 42.949219 56.738281 43.796875 C 54.542969 46.558594 53.457031 49.730469 53.324219 52.976562 Z M 53.324219 52.976562 "/></g><path style=" stroke:none;fill-rule:nonzero;fill:#165efc;fill-opacity:1;" d="M 48.292969 34.902344 C 48.222656 35.046875 48.207031 35.144531 48.148438 35.1875 C 39.832031 41.285156 31.683594 47.609375 23.582031 53.996094 C 23.550781 54.019531 23.46875 53.980469 23.386719 53.964844 C 23.355469 53.652344 23.617188 53.570312 23.78125 53.4375 C 25.441406 52.113281 27.082031 50.769531 28.769531 49.480469 C 34.886719 44.804688 41.011719 40.140625 47.144531 35.488281 C 47.382812 35.304688 47.628906 35.128906 47.882812 34.96875 C 47.972656 34.914062 48.105469 34.929688 48.292969 34.902344 Z M 48.292969 34.902344 "/><path style=" stroke:none;fill-rule:nonzero;fill:#165efc;fill-opacity:1;" d="M 56.121094 24.914062 C 56.082031 25.226562 55.792969 25.289062 55.597656 25.417969 C 53.230469 26.933594 50.855469 28.433594 48.492188 29.949219 C 43.984375 32.847656 39.511719 35.800781 35.242188 39.050781 C 35.089844 39.167969 34.949219 39.402344 34.613281 39.160156 C 34.792969 38.996094 34.945312 38.832031 35.121094 38.703125 C 37.316406 37.128906 39.46875 35.492188 41.71875 34 C 46.277344 30.984375 50.886719 28.046875 55.476562 25.078125 C 55.765625 24.890625 55.769531 24.894531 56.121094 24.914062 Z M 56.121094 24.914062 "/><path style=" stroke:none;fill-rule:nonzero;fill:#165efc;fill-opacity:1;" d="M 35.6875 31.378906 C 29.777344 34.351562 23.757812 37.082031 17.816406 39.976562 C 17.714844 40.023438 17.585938 40.019531 17.402344 39.9375 C 17.484375 39.847656 17.554688 39.722656 17.65625 39.667969 C 18.226562 39.371094 18.804688 39.085938 19.386719 38.808594 C 24.578125 36.347656 29.769531 33.894531 34.96875 31.441406 C 35.175781 31.339844 35.382812 31.125 35.6875 31.378906 Z M 35.6875 31.378906 "/><path style=" stroke:none;fill-rule:nonzero;fill:#165efc;fill-opacity:1;" d="M 53.765625 21.636719 C 50.0625 23.652344 46.421875 25.632812 42.785156 27.609375 C 42.660156 27.675781 42.511719 27.703125 42.371094 27.738281 C 42.347656 27.746094 42.308594 27.691406 42.292969 27.675781 C 42.285156 27.648438 42.28125 27.621094 42.277344 27.589844 C 42.277344 27.570312 42.28125 27.542969 42.296875 27.53125 C 42.414062 27.445312 42.53125 27.347656 42.660156 27.277344 C 46.203125 25.359375 49.746094 23.441406 53.289062 21.527344 C 53.347656 21.496094 53.40625 21.476562 53.472656 21.46875 C 53.507812 21.460938 53.550781 21.484375 53.589844 21.496094 C 53.609375 21.503906 53.625 21.523438 53.765625 21.636719 Z M 53.765625 21.636719 "/><path style=" stroke:none;fill-rule:nonzero;fill:#165efc;fill-opacity:1;" d="M 22.789062 48.019531 C 22.828125 47.859375 22.820312 47.75 22.867188 47.714844 C 25.324219 45.921875 27.78125 44.136719 30.25 42.355469 C 30.296875 42.324219 30.398438 42.367188 30.464844 42.375 C 30.476562 42.40625 30.484375 42.441406 30.492188 42.472656 C 30.496094 42.496094 30.492188 42.515625 30.480469 42.535156 C 30.429688 42.601562 30.371094 42.660156 30.304688 42.714844 C 27.898438 44.464844 25.488281 46.214844 23.074219 47.960938 C 23.027344 47.992188 22.957031 47.984375 22.789062 48.019531 Z M 22.789062 48.019531 "/><path style=" stroke:none;fill-rule:nonzero;fill:#165efc;fill-opacity:1;" d="M 26.859375 39.277344 C 24.75 40.582031 22.679688 41.863281 20.605469 43.136719 C 20.558594 43.164062 20.460938 43.101562 20.265625 43.054688 C 20.484375 42.875 20.613281 42.746094 20.761719 42.65625 C 22.730469 41.457031 24.699219 40.261719 26.671875 39.074219 C 26.675781 39.070312 26.726562 39.128906 26.859375 39.277344 Z M 26.859375 39.277344 "/><path style=" stroke:none;fill-rule:nonzero;fill:#165efc;fill-opacity:1;" d="M 34.242188 34.921875 C 34.175781 34.992188 34.128906 35.089844 34.046875 35.136719 C 33.324219 35.546875 32.59375 35.949219 31.859375 36.34375 C 31.824219 36.363281 31.75 36.308594 31.6875 36.289062 C 31.871094 35.949219 32.738281 35.367188 33.820312 34.867188 C 33.929688 34.816406 34.066406 34.828125 34.191406 34.808594 Z M 34.242188 34.921875 "/><path style=" stroke:none;fill-rule:nonzero;fill:#165efc;fill-opacity:1;" d="M 58.246094 18.769531 C 58.773438 18.273438 60.160156 17.65625 60.570312 17.710938 C 60.289062 18.128906 58.753906 18.859375 58.246094 18.769531 Z M 58.246094 18.769531 "/><path style=" stroke:none;fill-rule:nonzero;fill:#165efc;fill-opacity:1;" d="M 53.472656 31.394531 C 53.078125 31.910156 52.53125 32.203125 51.902344 32.621094 C 52.046875 32.042969 52.867188 31.429688 53.472656 31.394531 Z M 53.472656 31.394531 "/><path style=" stroke:none;fill-rule:nonzero;fill:#165efc;fill-opacity:1;" d="M 39.164062 29.398438 C 38.847656 29.726562 38.632812 29.929688 38.230469 29.8125 C 38.417969 29.441406 38.671875 29.324219 39.164062 29.398438 Z M 39.164062 29.398438 "/><path style=" stroke:none;fill-rule:nonzero;fill:#165efc;fill-opacity:1;" d="M 32.546875 27.71875 C 32.46875 27.726562 32.375 27.765625 32.316406 27.734375 C 28.59375 25.71875 24.871094 23.699219 21.007812 21.605469 C 21.265625 21.539062 21.378906 21.476562 21.460938 21.5 C 21.644531 21.558594 21.8125 21.660156 21.980469 21.753906 C 25.335938 23.566406 28.691406 25.382812 32.042969 27.199219 C 32.238281 27.304688 32.421875 27.433594 32.609375 27.554688 Z M 32.546875 27.71875 "/><path style=" stroke:none;fill-rule:nonzero;fill:#165efc;fill-opacity:1;" d="M 14.230469 17.679688 C 14.636719 17.6875 15.972656 18.230469 16.421875 18.558594 C 16.488281 18.605469 16.507812 18.710938 16.5625 18.816406 C 15.996094 18.808594 14.59375 18.125 14.230469 17.679688 Z M 14.230469 17.679688 "/><path style=" stroke:none;fill-rule:nonzero;fill:#165efc;fill-opacity:1;" d="M 21.421875 31.324219 C 22.03125 31.523438 22.527344 31.894531 23.039062 32.378906 C 22.542969 32.449219 21.683594 31.890625 21.421875 31.324219 Z M 21.421875 31.324219 "/><path style=" stroke:none;fill-rule:nonzero;fill:#165efc;fill-opacity:1;" d="M 44.203125 42.429688 C 44.660156 42.273438 44.824219 42.480469 45 42.609375 C 46.910156 43.988281 48.816406 45.375 50.722656 46.765625 C 51.101562 47.042969 51.484375 47.316406 51.855469 47.609375 C 51.945312 47.679688 51.984375 47.816406 52.046875 47.925781 L 51.945312 48.023438 C 51.804688 47.949219 51.65625 47.894531 51.53125 47.800781 C 49.121094 46.035156 46.71875 44.273438 44.203125 42.429688 Z M 44.203125 42.429688 "/><path style=" stroke:none;fill-rule:nonzero;fill:#165efc;fill-opacity:1;" d="M 19.925781 53.859375 C 19.925781 55.019531 19.847656 56.082031 19.355469 57.070312 C 18.960938 57.863281 18.367188 58.414062 17.460938 58.554688 C 16.890625 58.640625 16.351562 58.496094 15.835938 58.269531 C 15.140625 57.964844 14.546875 57.507812 14.011719 56.972656 C 12.417969 55.375 11.398438 53.433594 10.707031 51.308594 C 10.226562 49.832031 9.964844 48.316406 10.054688 46.753906 C 10.097656 45.976562 10.238281 45.222656 10.585938 44.515625 C 11.257812 43.148438 12.492188 42.644531 13.910156 43.214844 C 14.378906 43.402344 14.847656 43.660156 15.234375 43.984375 C 15.800781 44.464844 16.351562 44.988281 16.808594 45.578125 C 18.710938 48.035156 19.726562 50.835938 19.925781 53.859375 Z M 19.605469 54.339844 C 19.375 50.757812 18.257812 47.710938 15.972656 45.152344 C 15.480469 44.609375 14.917969 44.15625 14.28125 43.789062 C 12.660156 42.847656 11.292969 43.410156 10.695312 45.179688 C 10.425781 45.988281 10.359375 46.820312 10.40625 47.660156 C 10.582031 50.84375 11.695312 53.671875 13.722656 56.125 C 14.15625 56.648438 14.6875 57.101562 15.234375 57.503906 C 15.621094 57.789062 16.097656 57.992188 16.5625 58.128906 C 17.46875 58.398438 18.28125 58.089844 18.796875 57.296875 C 19.023438 56.941406 19.21875 56.539062 19.316406 56.128906 C 19.46875 55.488281 19.53125 54.824219 19.605469 54.339844 Z M 19.605469 54.339844 "/><path style=" stroke:none;fill-rule:nonzero;fill:#165efc;fill-opacity:1;" d="M 64.828125 47.492188 C 64.628906 50.890625 63.472656 53.988281 61.164062 56.613281 C 60.71875 57.121094 60.164062 57.550781 59.601562 57.933594 C 59.222656 58.195312 58.761719 58.371094 58.316406 58.484375 C 57.242188 58.757812 56.316406 58.367188 55.703125 57.441406 C 55.277344 56.800781 55.082031 56.082031 54.992188 55.328125 C 54.804688 53.8125 55.007812 52.332031 55.410156 50.875 C 55.957031 48.894531 56.824219 47.0625 58.117188 45.449219 C 58.738281 44.675781 59.441406 43.988281 60.316406 43.496094 C 62.207031 42.429688 63.851562 43.070312 64.503906 45.128906 C 64.609375 45.457031 64.683594 45.792969 64.730469 46.132812 C 64.785156 46.558594 64.792969 46.988281 64.828125 47.492188 Z M 64.488281 47.210938 C 64.410156 46.734375 64.367188 46 64.167969 45.308594 C 63.617188 43.382812 62.167969 42.828125 60.4375 43.835938 C 59.667969 44.285156 59.035156 44.894531 58.476562 45.578125 C 57.269531 47.058594 56.425781 48.734375 55.878906 50.558594 C 55.394531 52.175781 55.113281 53.8125 55.378906 55.507812 C 55.480469 56.148438 55.664062 56.761719 56.039062 57.300781 C 56.582031 58.074219 57.375 58.390625 58.285156 58.128906 C 58.730469 57.996094 59.183594 57.808594 59.554688 57.539062 C 60.074219 57.171875 60.582031 56.75 60.996094 56.269531 C 63.164062 53.738281 64.265625 50.78125 64.488281 47.210938 Z M 64.488281 47.210938 "/><path style=" stroke:none;fill-rule:nonzero;fill:#165efc;fill-opacity:1;" d="M 10.621094 47.789062 C 10.742188 47.207031 10.804688 46.535156 11.03125 45.921875 C 11.464844 44.730469 12.503906 44.328125 13.625 44.925781 C 14.164062 45.210938 14.6875 45.601562 15.085938 46.058594 C 17.03125 48.296875 18.039062 50.917969 18.023438 53.890625 C 18.019531 54.496094 17.859375 55.132812 17.625 55.695312 C 17.207031 56.699219 16.296875 57.019531 15.285156 56.609375 C 14.484375 56.285156 13.878906 55.710938 13.347656 55.054688 C 12.148438 53.574219 11.386719 51.882812 10.972656 50.039062 C 10.8125 49.332031 10.742188 48.601562 10.621094 47.789062 Z M 17.730469 53.578125 C 17.660156 51.933594 17.21875 50.394531 16.542969 48.917969 C 16.097656 47.957031 15.566406 47.046875 14.820312 46.292969 C 14.433594 45.902344 13.996094 45.527344 13.515625 45.261719 C 12.554688 44.730469 11.734375 45.050781 11.351562 46.074219 C 11.195312 46.488281 11.089844 46.949219 11.082031 47.390625 C 11.019531 50.351562 12.019531 52.9375 13.9375 55.171875 C 14.242188 55.523438 14.625 55.828125 15.023438 56.070312 C 16.171875 56.777344 17.125 56.398438 17.488281 55.09375 C 17.625 54.605469 17.652344 54.085938 17.730469 53.578125 Z M 17.730469 53.578125 "/><path style=" stroke:none;fill-rule:nonzero;fill:#165efc;fill-opacity:1;" d="M 64.160156 47.882812 C 64 50.664062 63.09375 53.15625 61.285156 55.300781 C 60.839844 55.828125 60.316406 56.273438 59.675781 56.558594 C 58.5625 57.058594 57.632812 56.699219 57.148438 55.582031 C 56.769531 54.707031 56.734375 53.785156 56.832031 52.863281 C 57.070312 50.59375 57.84375 48.519531 59.222656 46.699219 C 59.644531 46.144531 60.195312 45.679688 60.71875 45.210938 C 60.933594 45.015625 61.230469 44.894531 61.511719 44.796875 C 62.429688 44.464844 63.226562 44.773438 63.6875 45.632812 C 64.066406 46.328125 64.15625 47.09375 64.160156 47.882812 Z M 63.777344 48.390625 C 63.792969 47.027344 63.667969 46.339844 63.390625 45.832031 C 63 45.101562 62.375 44.84375 61.609375 45.136719 C 61.292969 45.253906 60.976562 45.425781 60.722656 45.644531 C 60.304688 46.011719 59.894531 46.398438 59.558594 46.839844 C 58.242188 48.566406 57.476562 50.53125 57.210938 52.679688 C 57.101562 53.578125 57.09375 54.484375 57.433594 55.347656 C 57.835938 56.375 58.640625 56.714844 59.597656 56.183594 C 60.128906 55.886719 60.640625 55.484375 61.035156 55.023438 C 62.765625 52.996094 63.628906 50.609375 63.777344 48.390625 Z M 63.777344 48.390625 "/><path style=" stroke:none;fill-rule:nonzero;fill:#165efc;fill-opacity:1;" d="M 11.421875 48.371094 C 11.46875 48.070312 11.488281 47.699219 11.585938 47.355469 C 11.851562 46.449219 12.53125 46.210938 13.320312 46.742188 C 13.59375 46.917969 13.832031 47.132812 14.039062 47.382812 C 15.453125 49.140625 16.207031 51.15625 16.273438 53.414062 C 16.28125 53.695312 16.25 53.972656 16.183594 54.242188 C 15.933594 55.261719 15.203125 55.542969 14.351562 54.941406 C 14.070312 54.746094 13.824219 54.511719 13.609375 54.242188 C 12.269531 52.539062 11.582031 50.585938 11.421875 48.371094 Z M 11.78125 48.402344 C 11.953125 50.511719 12.578125 52.289062 13.757812 53.847656 C 14.035156 54.214844 14.410156 54.53125 14.800781 54.777344 C 15.207031 55.035156 15.566406 54.894531 15.726562 54.441406 C 15.851562 54.085938 15.9375 53.6875 15.917969 53.316406 C 15.820312 51.199219 15.117188 49.296875 13.789062 47.644531 C 13.570312 47.378906 13.3125 47.15625 13.019531 46.976562 C 12.53125 46.679688 12.136719 46.820312 11.96875 47.363281 C 11.847656 47.746094 11.824219 48.160156 11.785156 48.40625 Z M 11.78125 48.402344 "/><path style=" stroke:none;fill-rule:nonzero;fill:#165efc;fill-opacity:1;" d="M 58.539062 53.304688 C 58.714844 51.085938 59.390625 49.152344 60.730469 47.476562 C 61.015625 47.128906 61.359375 46.84375 61.753906 46.621094 C 62.355469 46.273438 62.910156 46.484375 63.167969 47.121094 C 63.300781 47.4375 63.371094 47.773438 63.375 48.117188 C 63.378906 50.480469 62.585938 52.5625 61.105469 54.390625 C 60.910156 54.621094 60.6875 54.816406 60.433594 54.980469 C 59.636719 55.507812 58.960938 55.269531 58.699219 54.359375 C 58.59375 53.992188 58.582031 53.601562 58.539062 53.304688 Z M 63.050781 48.523438 C 63.03125 48.28125 63.015625 48.027344 62.988281 47.769531 C 62.972656 47.644531 62.945312 47.519531 62.902344 47.398438 C 62.695312 46.824219 62.304688 46.652344 61.804688 46.996094 C 61.417969 47.261719 61.082031 47.585938 60.796875 47.964844 C 59.675781 49.507812 59.042969 51.242188 58.929688 53.148438 C 58.910156 53.558594 58.957031 53.957031 59.074219 54.351562 C 59.238281 54.902344 59.640625 55.054688 60.121094 54.742188 C 60.484375 54.507812 60.796875 54.222656 61.0625 53.882812 C 62.257812 52.304688 62.894531 50.511719 63.050781 48.523438 Z M 63.050781 48.523438 "/><path style=" stroke:none;fill-rule:nonzero;fill:#165efc;fill-opacity:1;" d="M 15.074219 52.734375 C 15.074219 52.777344 15.074219 52.820312 15.074219 52.863281 C 15.054688 53.171875 15.015625 53.488281 14.695312 53.625 C 14.359375 53.769531 14.128906 53.535156 13.90625 53.328125 C 13.796875 53.226562 13.699219 53.113281 13.613281 52.988281 C 12.835938 51.851562 12.328125 50.613281 12.242188 49.226562 C 12.21875 48.871094 12.191406 48.445312 12.609375 48.28125 C 13.027344 48.117188 13.304688 48.429688 13.527344 48.710938 C 14.460938 49.886719 14.929688 51.25 15.074219 52.734375 Z M 14.386719 51.316406 C 14.113281 49.980469 13.378906 48.832031 12.65625 48.632812 C 12.488281 49.53125 12.742188 50.335938 13.09375 51.253906 C 13.144531 51.046875 13.15625 50.964844 13.1875 50.886719 C 13.382812 50.386719 13.691406 50.332031 14.015625 50.746094 C 14.140625 50.90625 14.238281 51.085938 14.386719 51.316406 Z M 14.636719 52.222656 C 14.402344 52.675781 14.058594 52.574219 13.683594 52.40625 C 13.925781 52.78125 14.089844 53.1875 14.636719 53.304688 Z M 14.105469 51.996094 C 14.054688 51.585938 13.960938 51.199219 13.574219 50.855469 C 13.574219 51.378906 13.757812 51.726562 14.109375 51.996094 Z M 14.105469 51.996094 "/><path style=" stroke:none;fill-rule:nonzero;fill:#165efc;fill-opacity:1;" d="M 62.617188 49.316406 C 62.453125 50.703125 61.980469 52.035156 61.0625 53.1875 C 60.839844 53.46875 60.566406 53.785156 60.152344 53.621094 C 59.75 53.457031 59.746094 53.039062 59.773438 52.679688 C 59.898438 51.195312 60.410156 49.851562 61.339844 48.683594 C 61.550781 48.417969 61.816406 48.128906 62.203125 48.265625 C 62.664062 48.429688 62.585938 48.875 62.617188 49.316406 Z M 60.511719 51.25 C 60.574219 51.140625 60.632812 51.027344 60.707031 50.925781 C 60.851562 50.71875 60.960938 50.449219 61.277344 50.484375 C 61.601562 50.519531 61.632812 50.800781 61.691406 51.050781 C 61.699219 51.078125 61.742188 51.097656 61.765625 51.121094 C 62.242188 50.105469 62.351562 49.230469 62.046875 48.550781 C 61.125 49.230469 60.785156 50.222656 60.511719 51.25 Z M 60.15625 52.148438 C 60.183594 52.566406 60.007812 52.9375 60.296875 53.292969 C 60.757812 53.15625 60.941406 52.777344 61.191406 52.390625 C 60.605469 52.597656 60.605469 52.597656 60.15625 52.148438 Z M 61.285156 50.90625 C 60.839844 51.296875 60.734375 51.550781 60.808594 52.046875 C 61.066406 51.699219 61.269531 51.363281 61.285156 50.90625 Z M 61.285156 50.90625 "/></g></svg>